<svg width="243" height="230" viewBox="0 0 243 230" fill="none" xmlns="http://www.w3.org/2000/svg">
<path d="M118.279 131.13L39.9186 168.27C31.5186 162.03 31.5186 149.07 31.5186 149.07C31.5186 149.07 106.699 103.11 107.419 103.71L152.719 113.25L169.219 120.81C157.219 135.51 129.799 160.65 129.799 160.65L112.759 205.95C100.519 210.51 86.4186 204.03 86.4186 204.03C86.4186 204.03 95.0585 161.13 99.1385 154.41C103.219 147.69 125.479 123.09 125.479 123.09" fill="#F5FF8C"/>
<path d="M103.159 207.81C97.3388 207.69 91.6388 206.49 86.2988 204.27C86.1788 204.21 86.1188 204.09 86.1188 203.97C86.4788 202.23 94.8188 160.95 98.8388 154.23C101.299 150.21 110.239 139.77 117.079 132.03L40.0388 168.57C39.9188 168.63 39.7988 168.63 39.7388 168.57C31.3388 162.33 31.2188 149.31 31.2188 149.13C31.2188 149.01 31.2788 148.95 31.3388 148.89C31.5188 148.77 50.3588 137.25 69.0188 125.97C103.159 105.33 106.879 103.47 107.479 103.47L152.779 113.01H152.839L169.339 120.57C169.399 120.63 169.459 120.69 169.519 120.75C169.519 120.87 169.519 120.93 169.459 120.99C157.819 135.27 131.419 159.51 130.039 160.77L112.999 206.01C112.939 206.07 112.879 206.13 112.819 206.19C109.699 207.33 106.459 207.87 103.159 207.81ZM86.7188 203.79C88.5188 204.57 101.359 209.73 112.519 205.65L129.499 160.47C129.499 160.41 129.559 160.41 129.559 160.35C129.859 160.11 156.739 135.45 168.679 120.87L152.599 113.55L107.359 104.01C105.019 104.67 57.0788 133.83 31.7588 149.25C31.8188 150.75 32.3588 162.15 39.8588 167.91L118.039 130.83C122.059 126.27 125.119 122.91 125.179 122.79C125.299 122.67 125.479 122.67 125.599 122.79C125.719 122.91 125.719 123.09 125.599 123.21C125.359 123.45 103.279 147.87 99.2588 154.47C95.4788 160.89 87.4388 200.37 86.7188 203.79Z" fill="#00283C"/>
<path d="M158.899 47.5502C165.679 46.3502 174.739 47.8502 178.939 51.9902C183.139 56.1302 198.499 80.3702 204.799 87.0302C211.099 93.6902 219.559 102.81 220.579 105.81C221.599 108.81 219.559 111.81 219.559 111.81L213.919 113.31C213.919 113.31 210.379 117.39 204.799 114.57C199.219 111.75 184.159 94.4102 181.039 89.0102C181.039 89.0102 176.299 112.41 171.739 123.03C171.739 123.03 159.799 117.33 142.279 115.35C124.759 113.37 109.879 107.01 104.119 103.05L119.479 79.2902C113.299 82.4102 105.859 81.6302 100.519 77.3102C90.8592 69.9302 78.6192 47.0702 78.6192 47.0702C78.6192 47.0702 78.5592 44.6702 83.2392 41.3702C87.9192 38.0702 91.8192 37.2902 93.7992 38.5502C95.7792 39.8102 114.559 58.8902 114.559 58.8902C114.559 58.8902 126.199 52.0502 135.919 50.3102C145.639 48.5702 158.899 47.5502 158.899 47.5502Z" fill="#5A3296"/>
<path d="M161.299 45.8697C162.979 43.0497 167.479 42.6897 168.679 42.5697C169.879 42.4497 174.859 38.7897 175.339 35.3097C175.819 31.8297 179.899 29.9097 178.639 27.2697C177.379 24.6297 176.539 21.7497 176.959 19.9497C177.379 18.1497 177.199 13.8297 174.499 12.4497C171.799 11.0697 168.559 8.42971 168.019 6.62971C167.479 4.82971 166.879 0.389709 164.059 0.509709C161.239 0.629709 158.719 2.60971 156.619 1.76971C154.519 0.929708 151.459 1.04971 149.899 2.60971C148.339 4.16971 144.619 4.40971 144.199 6.92971C143.779 9.44971 144.859 18.0297 144.859 18.0297L161.299 45.8697Z" fill="#F5FF8C"/>
<path d="M161.299 46.1701C161.179 46.1701 161.119 46.11 161.059 46.05L144.679 18.2101C144.679 18.1501 144.619 18.1501 144.619 18.0901C144.559 17.7301 143.539 9.45005 144.019 6.87005C144.319 5.13005 145.939 4.41006 147.499 3.75006C148.339 3.45006 149.119 2.97005 149.839 2.37005C151.519 0.630054 154.759 0.630054 156.859 1.47005C157.999 1.89005 159.259 1.47006 160.699 0.990056C161.839 0.570057 162.979 0.270055 164.179 0.210055C166.819 0.0900547 167.719 3.57005 168.199 5.67005C168.259 6.03005 168.379 6.33005 168.439 6.57005C168.919 8.25005 172.099 10.8301 174.739 12.2101C177.499 13.6501 177.799 18.0901 177.319 20.0701C176.959 21.6301 177.559 24.2101 178.999 27.2101C179.779 28.8901 178.759 30.2701 177.679 31.7101C176.839 32.8501 175.999 33.9901 175.759 35.4301C175.219 39.0301 170.119 42.81 168.799 42.93H168.739C165.079 43.23 162.739 44.31 161.659 46.05C161.479 46.11 161.419 46.1701 161.299 46.1701ZM145.159 17.9701L161.299 45.33C162.559 43.65 164.959 42.63 168.559 42.33H168.619C169.579 42.27 174.499 38.6701 175.039 35.3701C175.279 33.8101 176.239 32.4901 177.079 31.3501C178.159 29.9101 178.999 28.7701 178.339 27.4501C177.439 25.6501 176.059 22.1701 176.599 19.8901C177.019 18.0901 176.779 14.0101 174.319 12.7501C171.559 11.3101 168.259 8.61006 167.719 6.75006C167.659 6.51006 167.539 6.15006 167.479 5.79006C166.999 3.75006 166.219 0.750055 164.059 0.810055C162.919 0.930055 161.779 1.17006 160.759 1.59006C159.259 2.07006 157.819 2.61005 156.499 2.07005C154.519 1.29005 151.639 1.29006 150.139 2.85006C149.419 3.51006 148.579 3.99006 147.619 4.35006C146.119 5.01006 144.739 5.61006 144.499 7.05006C144.139 9.33006 145.099 17.1301 145.159 17.9701Z" fill="#00283C"/>
<path d="M151.098 43.0498L149.178 50.9098C149.178 50.9098 148.998 53.7898 153.558 53.9698C156.258 54.0298 158.898 52.9498 160.758 50.9098L164.118 39.0298L151.098 43.0498Z" fill="#F5FF8C"/>
<path d="M153.918 54.2698H153.558C151.758 54.2098 150.498 53.7298 149.658 52.8298C149.178 52.2898 148.878 51.6298 148.878 50.9098L150.798 42.9898C150.798 42.8698 150.918 42.8098 150.978 42.7498L163.938 38.7298C164.118 38.6698 164.238 38.7898 164.298 38.9098C164.298 38.9698 164.298 39.0298 164.298 39.0898L160.938 50.9098C160.938 50.9698 160.878 50.9698 160.878 51.0298C159.138 53.0698 156.558 54.2098 153.918 54.2698ZM149.478 50.9698C149.538 51.5098 149.718 52.0498 150.138 52.4098C150.798 53.1298 151.998 53.5498 153.558 53.6098C156.138 53.6698 158.658 52.5898 160.458 50.7298L163.638 39.5098L151.398 43.2898L149.478 50.9698Z" fill="#00283C"/>
<path d="M164.359 34.0497C164.359 34.0497 165.499 30.3897 168.859 32.3697C172.219 34.3497 167.959 39.0297 165.859 38.2497C161.419 42.3897 155.419 44.3697 149.419 43.7097C139.399 42.5697 133.219 31.6497 139.639 22.2897C146.059 12.9297 148.219 11.4897 150.679 10.4697C150.679 10.4697 152.419 12.8697 154.339 13.7097C156.259 14.5497 156.679 17.0097 156.499 19.5297C156.319 22.0497 159.379 22.1697 159.919 23.1297C160.459 24.0897 159.619 28.0497 160.999 29.1297C162.379 30.2097 160.699 34.7097 161.479 35.4297C162.259 36.1497 164.359 34.0497 164.359 34.0497Z" fill="#F5FF8C"/>
<path d="M151.759 44.2502C150.979 44.2502 150.199 44.1902 149.419 44.1302C144.439 43.5902 140.059 40.4702 137.899 35.9702C135.859 31.5902 136.459 26.5502 139.399 22.2902C145.939 12.7502 148.039 11.3702 150.559 10.3502C150.679 10.2902 150.859 10.3502 150.919 10.4702C150.919 10.4702 152.659 12.8102 154.459 13.5902C156.259 14.3702 156.979 16.4702 156.799 19.7102C156.679 21.1502 157.879 21.6902 158.899 22.2302C159.439 22.4102 159.859 22.7102 160.219 23.1302C160.459 23.7902 160.519 24.5702 160.459 25.2902C160.459 26.6702 160.459 28.4702 161.239 29.0102C162.199 29.7302 161.959 31.5302 161.779 33.0902C161.659 33.9902 161.539 35.1302 161.779 35.3702C162.199 35.7302 163.459 34.8302 164.239 34.0502C164.599 33.0902 165.259 32.2502 166.219 31.8302C167.179 31.5302 168.259 31.7102 169.159 32.3102C170.539 33.1502 170.899 34.5302 170.179 36.0302C169.459 37.5302 167.539 39.0902 166.099 38.7902C162.079 42.2102 157.039 44.1902 151.759 44.2502ZM150.559 10.9502C148.219 11.9102 146.119 13.4102 139.879 22.5302C137.059 26.6702 136.519 31.4102 138.439 35.6702C140.479 40.0502 144.679 42.9902 149.479 43.5302C155.419 44.1302 161.299 42.2102 165.679 38.1302C165.739 38.0702 165.859 38.0102 165.979 38.0702C166.999 38.4302 168.739 37.2302 169.519 35.6702C169.879 34.9502 170.239 33.6302 168.739 32.7302C168.079 32.1902 167.179 32.0702 166.339 32.3102C165.199 32.7302 164.659 34.2302 164.659 34.2302C164.659 34.2902 164.599 34.2902 164.599 34.3502C164.239 34.7702 162.259 36.6902 161.299 35.7902C160.819 35.3702 160.939 34.3502 161.119 33.0302C161.299 31.7102 161.479 30.0302 160.819 29.4902C159.799 28.7102 159.799 26.7902 159.799 25.2902C159.859 24.6902 159.799 24.0302 159.679 23.4302C159.379 23.1302 159.019 22.8902 158.659 22.7702C157.579 22.2302 156.139 21.5702 156.259 19.7102C156.379 17.6702 156.139 15.0302 154.279 14.1902C152.539 13.3502 151.039 11.5502 150.559 10.9502Z" fill="#00283C"/>
<path d="M162.56 27.3904C162.5 27.9904 160.16 33.1504 159.08 35.4904C158.72 36.2704 157.94 36.7504 157.1 36.8104H156.92C156.38 36.8104 155.84 36.7504 155.36 36.5704C156.14 35.1904 157.4 33.0304 158.18 31.3504C159.44 28.6504 160.22 27.6904 158.24 26.6704C154.28 24.3304 150.68 21.5104 147.56 18.1504C144.56 14.7304 143.54 12.5104 143.54 12.5104L145.1 12.3304C145.52 12.2704 145.94 12.5104 146.06 12.9304C146.54 14.0704 147.8 16.5304 151.04 19.4104C155.48 23.4304 162.62 26.6104 162.56 27.3904Z" fill="#5A3296"/>
<path d="M156.858 37.1101C156.318 37.1101 155.778 36.9902 155.298 36.8702C155.178 36.8702 155.118 36.8101 155.118 36.6901C155.058 36.6301 155.058 36.5101 155.118 36.4501C155.838 35.2501 157.098 33.0301 157.938 31.2301L158.358 30.3901C159.438 28.1701 159.618 27.6901 158.118 26.9701C156.138 25.9501 150.378 21.8701 147.318 18.3901C144.258 14.9101 143.298 12.8101 143.238 12.6901C143.178 12.6301 143.178 12.5101 143.238 12.4501C143.298 12.3901 143.358 12.3301 143.478 12.3301L145.038 12.1501C145.578 12.0901 146.118 12.3901 146.298 12.9301C146.778 14.1301 148.038 16.5301 151.218 19.2901C153.678 21.4501 156.978 23.4301 159.378 24.8101C162.018 26.3701 162.858 26.9101 162.798 27.3901C162.738 27.8701 160.878 32.1901 159.318 35.6101C158.898 36.5101 158.058 37.0501 157.098 37.1101H156.798H156.858ZM155.838 36.3901C156.198 36.4501 156.558 36.5101 156.978 36.5101H157.158C157.878 36.5101 158.538 36.0302 158.838 35.3702C161.238 30.0902 162.138 27.8101 162.258 27.3901C162.078 27.0901 160.578 26.1901 159.138 25.3501C156.738 23.9101 153.378 21.9301 150.858 19.7101C147.618 16.8301 146.298 14.3101 145.818 13.1101C145.698 12.8701 145.458 12.6901 145.158 12.6901L144.018 12.8101C145.098 14.6701 146.358 16.4101 147.798 17.9701C150.918 21.2701 154.518 24.0901 158.418 26.3701C160.458 27.3901 159.918 28.5301 158.898 30.5701C158.778 30.8101 158.658 31.1101 158.478 31.4101C157.698 33.1501 156.558 35.1301 155.838 36.3901Z" fill="#00283C"/>
<path d="M158.178 31.3503C157.398 33.0903 156.138 35.1903 155.358 36.5703C153.438 36.0903 149.958 34.6503 145.398 30.6303C138.978 25.1103 137.778 20.7903 137.778 20.7903L143.598 12.5103C143.598 12.5103 144.618 14.7303 147.618 18.1503C150.738 21.4503 154.338 24.3303 158.298 26.6703C160.218 27.6903 159.498 28.6503 158.178 31.3503Z" fill="#F5FF8C"/>
<path d="M155.359 36.87H155.299C153.259 36.33 149.839 34.89 145.219 30.87C138.799 25.35 137.539 21.09 137.479 20.91C137.479 20.85 137.479 20.73 137.539 20.67L143.359 12.39C143.419 12.33 143.539 12.27 143.659 12.27C143.779 12.27 143.839 12.33 143.899 12.45C144.979 14.49 146.299 16.35 147.859 18.03C150.979 21.33 154.579 24.15 158.479 26.43C160.519 27.45 159.979 28.59 158.959 30.63C158.839 30.87 158.719 31.17 158.539 31.47C157.699 33.27 156.379 35.55 155.659 36.75C155.599 36.81 155.479 36.87 155.359 36.87ZM138.079 20.91C138.319 21.69 139.939 25.59 145.579 30.45C150.199 34.41 153.499 35.79 155.239 36.27C155.959 35.07 157.159 32.91 157.939 31.23L158.359 30.39C159.439 28.17 159.619 27.69 158.119 26.97C156.139 25.95 150.379 21.87 147.319 18.39C145.819 16.77 144.559 15.03 143.479 13.17L138.079 20.91Z" fill="#00283C"/>
<path d="M148.338 38.6704C147.618 38.6704 146.898 38.3704 146.418 37.8904C145.638 37.2304 145.338 36.1504 145.758 35.1904C145.818 35.0704 145.998 35.0104 146.178 35.0704C146.298 35.1304 146.418 35.3104 146.298 35.4904C145.998 36.2104 146.238 36.9904 146.838 37.4704C147.678 38.1904 148.878 38.3104 149.838 37.6504C149.958 37.5904 150.138 37.5904 150.258 37.7704C150.318 37.8904 150.318 38.0704 150.138 38.1904C149.598 38.4904 148.998 38.6704 148.338 38.6704Z" fill="#00283C"/>
<path d="M166.098 34.4102C167.118 33.1502 168.078 33.6902 168.678 34.2302Z" fill="#F5FF8C"/>
<path d="M166.098 34.7101C165.918 34.7101 165.798 34.5901 165.798 34.4101C165.798 34.3501 165.798 34.2901 165.858 34.2301C167.178 32.6101 168.438 33.6301 168.858 33.9901C168.978 34.1101 169.038 34.2901 168.918 34.4101C168.798 34.5301 168.618 34.5901 168.498 34.4701C167.778 33.8701 167.118 33.6901 166.338 34.6501C166.218 34.6501 166.158 34.7101 166.098 34.7101Z" fill="#00283C"/>
<path d="M89.9586 40.3503C89.9586 40.3503 82.6386 32.8503 79.8186 31.1703C76.9986 29.4903 73.0386 27.8703 68.8986 28.2903C64.7586 28.7103 59.8986 29.1303 58.5786 29.3703C57.2586 29.6103 60.0786 32.4903 63.4386 32.1903C65.7786 32.0703 68.1786 32.3103 70.4586 32.9103C70.4586 32.9103 67.2186 33.6303 67.9386 36.5103C67.3986 36.4503 66.8586 36.8703 66.7986 37.4103C66.7986 37.5303 66.7986 37.5903 66.7986 37.7103C66.1386 38.2503 65.9586 39.2703 66.4386 39.9903C67.6986 42.2103 70.0386 43.5903 72.5586 43.7103C73.9986 44.7303 75.7386 45.1503 77.4786 44.9703C80.2386 44.6103 81.0786 46.1103 81.0786 46.1103C81.0786 46.1103 87.3786 44.4303 89.9586 40.3503Z" fill="#F5FF8C"/>
<path d="M81.0784 46.4101C80.9584 46.4101 80.8384 46.3501 80.8384 46.2301C80.8384 46.1701 80.0584 44.9101 77.5384 45.2101C75.7384 45.3901 73.9384 44.9701 72.4984 43.9501C69.9184 43.8301 67.5184 42.3901 66.1984 40.1101C65.6584 39.2701 65.7784 38.1901 66.4984 37.5301C66.4384 37.1701 66.5584 36.8101 66.7984 36.5701C66.9784 36.3901 67.2784 36.2101 67.5784 36.1501C67.4584 35.4901 67.5784 34.7701 67.9384 34.1701C68.2984 33.6301 68.8384 33.1501 69.4384 32.8501C67.4584 32.3701 65.4784 32.1901 63.4384 32.3701C60.5584 32.6101 58.0984 30.7501 57.9184 29.7301C57.8584 29.3701 58.0984 29.0701 58.3984 29.0101H58.4584C60.1384 28.6501 66.7984 28.0501 68.7784 27.8701C73.5184 27.4501 77.7784 29.5501 79.8784 30.8101C82.6984 32.4901 89.7784 39.7501 90.0784 40.0501C90.1984 40.1701 90.1984 40.2901 90.1384 40.4101C87.5584 44.5501 81.3784 46.2301 81.1384 46.2901C81.1384 46.4101 81.1384 46.4701 81.0784 46.4101ZM78.3184 44.6101C79.3984 44.5501 80.4784 44.9701 81.1984 45.8101C82.2784 45.5101 87.2584 43.8301 89.5384 40.4101C88.3984 39.2701 82.1584 32.9701 79.6384 31.4701C77.5984 30.2101 73.4584 28.2301 68.8984 28.5901C66.9184 28.7701 60.2584 29.3701 58.6384 29.6701C58.5784 29.6701 58.5784 29.6701 58.5184 29.7301C58.5184 29.7301 58.5184 29.9101 58.7584 30.1501C59.9584 31.4101 61.6984 32.0701 63.4384 31.8901C65.8384 31.7701 68.2384 32.0101 70.5784 32.6101C70.6984 32.6701 70.8184 32.7901 70.8184 32.9101C70.8184 33.0301 70.6984 33.1501 70.5784 33.2101C69.7384 33.3901 69.0184 33.9301 68.4784 34.5901C68.1784 35.1301 68.0584 35.7901 68.2384 36.4501C68.2984 36.6301 68.1784 36.7501 67.9984 36.8101H67.9384C67.6984 36.8101 67.4584 36.8701 67.2784 37.0501C67.1584 37.2301 67.0984 37.4701 67.1584 37.7101C67.1584 37.8301 67.1584 37.8901 67.0384 37.9501C66.4384 38.4301 66.3184 39.2101 66.7384 39.8101C67.9384 41.9701 70.1584 43.2901 72.6184 43.3501C72.6784 43.3501 72.7384 43.3501 72.7984 43.4101C74.1784 44.3701 75.8584 44.7901 77.4784 44.6101C77.7184 44.6701 78.0184 44.6101 78.3184 44.6101Z" fill="#00283C"/>
<path d="M79.4587 40.9503C78.6187 40.9503 77.6587 40.9503 76.5787 40.8903C74.4787 40.7703 73.5187 39.6903 73.2787 38.7303C73.0987 38.0703 73.3387 37.3503 73.9387 36.9303C74.8987 36.3903 79.1587 36.3303 81.6187 36.3903H81.6787C81.8587 36.3903 81.9787 36.5103 81.9787 36.6903C81.9787 36.8703 81.8587 36.9903 81.6787 36.9903H81.6187C77.7187 36.9303 74.7787 37.1103 74.1787 37.4703C73.8187 37.7703 73.6987 38.1903 73.8187 38.6103C73.9987 39.3903 74.7787 40.2303 76.5787 40.2903C78.4387 40.4103 80.2387 40.4103 82.0987 40.2903C82.2787 40.2903 82.3987 40.4103 82.3987 40.5903C82.3987 40.7703 82.2787 40.8903 82.0987 40.8903C82.1587 40.9503 81.1387 40.9503 79.4587 40.9503Z" fill="#00283C"/>
<path d="M73.6983 40.2301C71.6583 40.2301 68.3583 38.1901 67.6383 36.6301C67.5783 36.4501 67.6383 36.3301 67.7583 36.2101C67.8783 36.1501 68.0583 36.2101 68.1783 36.3301C68.9583 38.0101 72.7383 39.9901 74.2383 39.5101C74.4183 39.4501 74.5383 39.5101 74.5983 39.6901C74.6583 39.8701 74.5983 39.9901 74.4183 40.0501C74.1783 40.1701 73.9383 40.2301 73.6983 40.2301Z" fill="#00283C"/>
<path d="M74.8385 37.2298C74.7785 37.2298 74.7785 37.2298 74.7185 37.1698C73.6985 36.6898 70.3985 35.0098 70.8185 33.6898C70.8785 33.5098 71.0585 33.4498 71.2385 33.5098C71.4185 33.5698 71.4785 33.7498 71.4185 33.9298C71.2385 34.4698 73.0985 35.7898 74.9585 36.6298C75.1385 36.6898 75.2585 36.8098 75.1985 36.9898C75.1985 37.2298 75.0785 37.2898 74.8385 37.2298Z" fill="#00283C"/>
<path d="M72.7984 41.7901C71.2384 41.7901 67.2184 40.2301 66.5584 37.8301C66.4984 37.6501 66.6184 37.5301 66.7384 37.4701C66.9184 37.4101 67.0384 37.5301 67.0984 37.6501C67.7584 39.8701 71.8384 41.3101 72.9184 41.1901C73.0984 41.1901 73.2784 41.1301 73.3384 40.9501C73.3984 40.6501 73.3384 40.3501 73.2184 40.0501C73.1584 39.9301 73.2184 39.7501 73.3384 39.6301C73.4584 39.5701 73.6384 39.6301 73.7584 39.7501C73.9984 40.1701 74.0584 40.7101 73.8784 41.1901C73.6984 41.4901 73.3384 41.7301 72.9784 41.7301L72.7984 41.7901Z" fill="#00283C"/>
<path d="M72.5591 44.01C72.4391 44.01 72.3791 43.95 72.3191 43.89C72.2591 43.77 72.2591 43.59 72.4391 43.47C72.7391 43.29 72.9191 43.05 72.9791 42.75C73.0391 42.39 72.9191 41.97 72.7391 41.67C72.6191 41.55 72.6791 41.37 72.7991 41.25C72.9191 41.13 73.0991 41.19 73.2191 41.31C73.5191 41.79 73.6391 42.33 73.5191 42.87C73.3991 43.35 73.0991 43.71 72.6791 43.95C72.6791 44.01 72.6191 44.01 72.5591 44.01Z" fill="#00283C"/>
<path d="M70.4582 33.2103C70.3982 33.2103 70.3382 33.2103 70.2782 33.1503C70.1582 33.0303 70.0982 32.8503 70.2182 32.7303C71.1782 31.5303 72.4982 30.7503 74.0582 30.5103C74.2382 30.5103 74.3582 30.5703 74.4182 30.7503C74.4782 30.9303 74.3582 31.0503 74.1782 31.1103C72.8582 31.3503 71.5982 32.0703 70.7582 33.0903C70.6382 33.2103 70.5782 33.2103 70.4582 33.2103Z" fill="#00283C"/>
<path d="M213.858 113.31C216.018 117.03 215.298 123.39 215.838 125.31C216.378 127.23 220.578 123.99 220.098 119.31C220.098 119.31 224.538 124.29 227.238 127.23C229.938 130.17 231.138 128.55 229.398 125.49C227.658 122.43 225.318 118.89 225.318 118.89C225.318 118.89 234.438 124.05 237.798 123.39C241.158 122.73 238.458 121.05 236.538 120.33C234.138 119.31 231.858 118.05 229.698 116.49C229.698 116.49 236.778 117.33 240.198 116.73C243.618 116.13 242.298 113.97 240.198 113.91C238.098 113.85 234.558 113.55 232.098 112.65C232.098 112.65 236.538 111.75 238.518 110.49C240.498 109.23 238.038 108.75 235.518 109.35C232.818 110.01 230.058 110.07 227.358 109.53C224.778 108.93 220.458 105.87 220.458 105.87C220.458 105.87 218.358 110.79 213.858 113.31Z" fill="#F5FF8C"/>
<path d="M229.579 129.03C229.039 129.03 228.259 128.67 227.059 127.41C224.899 125.13 221.719 121.59 220.459 120.15C220.459 123.45 218.239 125.85 216.859 126.15C216.319 126.33 215.719 125.97 215.599 125.43C215.599 125.43 215.599 125.43 215.599 125.37C215.359 124.29 215.299 123.27 215.299 122.19C215.179 119.55 215.059 115.89 213.619 113.49C213.559 113.43 213.559 113.31 213.619 113.25C213.619 113.19 213.679 113.13 213.739 113.07C218.059 110.67 220.219 105.75 220.279 105.75C220.339 105.69 220.399 105.63 220.459 105.57C220.519 105.57 220.639 105.57 220.699 105.63C220.759 105.63 225.019 108.69 227.479 109.23C230.119 109.77 232.879 109.71 235.519 109.05C236.959 108.69 239.179 108.63 239.539 109.47C239.719 109.89 239.419 110.31 238.699 110.73C237.259 111.63 234.739 112.35 233.239 112.71C235.519 113.25 237.859 113.55 240.199 113.61C241.459 113.67 242.539 114.39 242.599 115.29C242.599 115.71 242.479 116.67 240.259 117.03C237.619 117.45 232.999 117.09 230.839 116.91C232.699 118.17 234.619 119.19 236.659 120.03C237.199 120.21 239.779 121.29 239.659 122.49C239.599 123.09 238.999 123.45 237.859 123.69C235.099 124.23 228.739 121.05 226.219 119.73C227.059 120.99 228.499 123.27 229.639 125.31C230.599 126.99 230.779 128.37 230.119 128.85C229.939 128.97 229.759 129.03 229.579 129.03ZM220.099 119.01C220.159 119.01 220.279 119.07 220.339 119.13C220.399 119.19 224.779 124.17 227.479 127.05C228.859 128.49 229.579 128.61 229.819 128.43C230.059 128.25 230.119 127.23 229.219 125.67C227.479 122.61 225.199 119.13 225.139 119.13C225.079 119.01 225.079 118.83 225.139 118.77C225.259 118.65 225.379 118.65 225.499 118.71C225.559 118.77 234.619 123.81 237.799 123.15C238.999 122.91 239.119 122.61 239.119 122.49C239.179 122.07 237.979 121.23 236.479 120.63C234.019 119.61 231.739 118.35 229.579 116.79C229.459 116.73 229.399 116.55 229.459 116.43C229.519 116.31 229.639 116.25 229.759 116.25C229.819 116.25 236.839 117.09 240.139 116.49C241.279 116.31 241.999 115.89 241.999 115.35C241.999 114.81 241.219 114.27 240.199 114.21C236.599 114.09 233.899 113.61 232.039 112.95C231.859 112.95 231.739 112.77 231.739 112.65C231.739 112.47 231.919 112.35 232.039 112.35C232.099 112.35 236.419 111.45 238.339 110.25C238.879 109.95 238.939 109.71 238.939 109.71C238.819 109.47 237.499 109.23 235.579 109.65C232.879 110.31 230.059 110.37 227.299 109.83C225.079 109.29 221.599 107.01 220.579 106.35C220.039 107.49 217.939 111.27 214.219 113.49C215.539 116.01 215.719 119.61 215.839 122.19C215.839 123.21 215.899 124.23 216.139 125.25C216.199 125.43 216.319 125.67 216.739 125.55C217.999 125.31 220.159 122.67 219.799 119.37C219.799 119.25 219.859 119.13 219.979 119.07C220.039 119.01 220.099 119.01 220.099 119.01Z" fill="#00283C"/>
<path d="M120.919 75.9303C120.859 75.9303 120.799 75.9303 120.799 75.8703C120.679 75.8103 120.619 75.6303 120.679 75.4503C120.739 75.3903 124.699 67.2903 127.399 62.1903C127.459 62.0103 127.639 61.9503 127.819 62.0103C127.999 62.0703 128.059 62.2503 127.999 62.4303C127.999 62.4303 127.999 62.4303 127.999 62.4903C125.299 67.6503 121.339 75.6903 121.279 75.7503C121.159 75.8703 121.039 75.9303 120.919 75.9303Z" fill="#00283C"/>
<path d="M179.479 86.9099C179.359 86.9099 179.299 86.8499 179.239 86.7899C173.959 79.0499 170.239 66.2099 173.059 60.6299C173.119 60.5099 173.299 60.4499 173.479 60.5099C173.599 60.5699 173.659 60.7499 173.599 60.9299C170.839 66.3299 174.559 78.8699 179.719 86.4899C179.839 86.6099 179.779 86.7899 179.659 86.9099C179.599 86.9099 179.539 86.9099 179.479 86.9099Z" fill="#00283C"/>
<path d="M110.059 208.77L108.439 227.13C108.319 228.45 107.179 229.47 105.799 229.35L70.5787 226.53C69.2587 226.41 68.2387 225.27 68.3587 223.89C68.3587 223.77 68.3587 223.65 68.4187 223.53L68.5987 222.69C68.5987 222.69 71.9587 206.31 89.4787 206.61C89.5387 206.73 95.2987 210.15 110.059 208.77Z" fill="#5A3296"/>
<path d="M108.199 225.93L69.1389 222.81C68.9589 222.81 68.8389 222.63 68.8389 222.51C68.8389 222.33 69.0189 222.21 69.1389 222.21L108.199 225.33C108.379 225.33 108.499 225.45 108.499 225.63C108.499 225.81 108.439 225.93 108.199 225.93Z" fill="#00283C"/>
<path d="M98.778 225.15C98.598 225.15 98.478 224.97 98.478 224.79C98.478 224.73 99.918 216.21 109.398 216.45C109.578 216.45 109.698 216.57 109.698 216.75C109.698 216.93 109.578 217.05 109.398 217.05C105.618 216.93 102.738 218.25 100.878 220.89C100.038 222.09 99.438 223.47 99.138 224.91C99.078 225.03 98.898 225.15 98.778 225.15Z" fill="#00283C"/>
<path d="M89.598 212.67C89.538 212.67 89.418 212.61 89.358 212.61L81.798 204.87C81.678 204.75 81.678 204.57 81.798 204.45C81.918 204.33 82.098 204.33 82.218 204.45L89.778 212.19C89.898 212.31 89.898 212.49 89.778 212.61C89.718 212.61 89.658 212.67 89.598 212.67Z" fill="#00283C"/>
<path d="M85.4587 213.87C85.3987 213.87 85.2787 213.81 85.2187 213.81L77.6587 206.07C77.5387 205.95 77.5987 205.77 77.7187 205.65C77.8387 205.59 77.9587 205.59 78.0787 205.65L85.6387 213.39C85.7587 213.51 85.7587 213.69 85.6387 213.81C85.5787 213.81 85.5187 213.87 85.4587 213.87Z" fill="#00283C"/>
<path d="M36.9788 171.99L20.4788 180.21C19.2788 180.81 17.8388 180.33 17.2388 179.13L1.21876 147.63C0.618757 146.43 1.09876 144.99 2.29876 144.33C2.41876 144.27 2.47876 144.21 2.59876 144.21L3.37876 143.91C3.37876 143.91 19.0988 138.21 27.9788 153.33C27.9788 153.39 28.0988 160.05 36.9788 171.99Z" fill="#5A3296"/>
<path d="M21.6788 179.43C21.5588 179.43 21.4388 179.37 21.4388 179.25L3.67881 144.33C3.61881 144.21 3.67881 143.97 3.79881 143.91C3.91881 143.85 4.15881 143.91 4.21881 144.03L21.9788 178.95C22.0388 179.07 21.9788 179.25 21.8588 179.37C21.7388 179.43 21.7388 179.43 21.6788 179.43Z" fill="#00283C"/>
<path d="M29.8377 175.83C29.7177 175.83 29.6577 175.77 29.5977 175.71C25.1577 167.97 17.8377 170.91 17.5377 171.03C17.3577 171.09 17.2377 171.03 17.1177 170.85C17.0577 170.73 17.1177 170.55 17.2977 170.49C17.3577 170.43 25.3977 167.19 30.1377 175.41C30.1977 175.53 30.1377 175.71 30.0177 175.83C29.9577 175.83 29.8977 175.83 29.8377 175.83Z" fill="#00283C"/>
<path d="M23.2385 156.63H23.1785C22.9985 156.57 22.9385 156.45 22.9385 156.27L25.5785 145.83C25.6385 145.65 25.7585 145.59 25.9385 145.59C26.1185 145.65 26.1785 145.77 26.1785 145.95L23.5385 156.45C23.4785 156.57 23.3585 156.63 23.2385 156.63Z" fill="#00283C"/>
<path d="M20.0588 153.75H19.9988C19.8188 153.69 19.7588 153.57 19.7588 153.39L22.3988 142.89C22.4588 142.71 22.5788 142.65 22.7588 142.65C22.9388 142.65 22.9988 142.83 22.9988 143.01L20.2988 153.51C20.2988 153.63 20.1788 153.75 20.0588 153.75Z" fill="#00283C"/>
</svg>
