<svg width="1466" height="26" viewBox="0 0 1466 26" fill="none" xmlns="http://www.w3.org/2000/svg">
<path d="M94.3952 25.9214L36.4347 19.1025L0.635742 19.1025L0.635742 0.350658L1465.84 0.350658V8.87424L1378.05 19.1025L1332.87 8.87424L1312.41 19.1025L1271.5 8.87424L1234 8.87424L1158.99 8.87424L1049.04 19.1025L962.095 8.87424L902.43 19.1025L836.799 4.61245L635.642 19.1025L595.581 8.87424L397.834 8.87424L372.264 25.9214C361.183 20.239 337.999 8.87424 333.908 8.87424C329.816 8.87424 329.93 20.239 330.498 25.9214L313.451 8.87424L300.666 19.1025L292.994 8.87424L247.82 19.1025L176.221 8.87424L94.3952 25.9214Z" fill="#1482C8"/>
</svg>
