<svg width="1466" height="26" viewBox="0 0 1466 26" fill="none" xmlns="http://www.w3.org/2000/svg">
<path d="M1372.08 0.350586L1430.04 7.16943L1465.84 7.16943V25.9213L0.635864 25.9213V17.3977L88.4287 7.16943L133.604 17.3977L154.06 7.16943L194.974 17.3977L232.477 17.3977L307.485 17.3977L417.439 7.16943L504.379 17.3977L564.044 7.16943L629.676 21.6595L830.832 7.16943L870.893 17.3977L1068.64 17.3977L1094.21 0.350586C1105.29 6.03297 1128.48 17.3977 1132.57 17.3977C1136.66 17.3977 1136.54 6.03297 1135.98 0.350586L1153.02 17.3977L1165.81 7.16943L1173.48 17.3977L1218.66 7.16943L1290.25 17.3977L1372.08 0.350586Z" fill="#1482C8"/>
</svg>
