<svg width="300" height="300" viewBox="0 0 300 300" fill="none" xmlns="http://www.w3.org/2000/svg">
<path d="M146.279 175.62L67.9186 212.76C59.5186 206.52 59.5186 193.56 59.5186 193.56C59.5186 193.56 134.699 147.6 135.419 148.2L180.719 157.74L197.219 165.3C185.219 180 157.799 205.14 157.799 205.14L140.759 250.44C128.519 255 114.419 248.52 114.419 248.52C114.419 248.52 123.059 205.62 127.139 198.9C131.219 192.18 153.479 167.58 153.479 167.58" fill="#F5FF8C"/>
<path d="M131.159 252.3C125.339 252.18 119.639 250.98 114.299 248.76C114.179 248.7 114.119 248.58 114.119 248.46C114.479 246.72 122.819 205.44 126.839 198.72C129.299 194.7 138.239 184.26 145.079 176.52L68.0388 213.06C67.9188 213.12 67.7988 213.12 67.7388 213.06C59.3388 206.82 59.2188 193.8 59.2188 193.62C59.2188 193.5 59.2788 193.44 59.3388 193.38C59.5188 193.26 78.3588 181.74 97.0188 170.46C131.159 149.82 134.879 147.96 135.479 147.96L180.779 157.5H180.839L197.339 165.06C197.399 165.12 197.459 165.18 197.519 165.24C197.519 165.36 197.519 165.42 197.459 165.48C185.819 179.76 159.419 204 158.039 205.26L140.999 250.5C140.939 250.56 140.879 250.62 140.819 250.68C137.699 251.82 134.459 252.36 131.159 252.3ZM114.719 248.28C116.519 249.06 129.359 254.22 140.519 250.14L157.499 204.96C157.499 204.9 157.559 204.9 157.559 204.84C157.859 204.6 184.739 179.94 196.679 165.36L180.599 158.04L135.359 148.5C133.019 149.16 85.0788 178.32 59.7588 193.74C59.8188 195.24 60.3588 206.64 67.8588 212.4L146.039 175.32C150.059 170.76 153.119 167.4 153.179 167.28C153.299 167.16 153.479 167.16 153.599 167.28C153.719 167.4 153.719 167.58 153.599 167.7C153.359 167.94 131.279 192.36 127.259 198.96C123.479 205.38 115.439 244.86 114.719 248.28Z" fill="#00283C"/>
<path d="M186.9 92.0405C193.68 90.8405 202.74 92.3405 206.94 96.4805C211.14 100.62 226.5 124.86 232.8 131.52C239.1 138.18 247.56 147.3 248.58 150.3C249.6 153.3 247.56 156.3 247.56 156.3L241.92 157.8C241.92 157.8 238.38 161.88 232.8 159.06C227.22 156.24 212.16 138.9 209.04 133.5C209.04 133.5 204.3 156.9 199.74 167.52C199.74 167.52 187.8 161.82 170.28 159.84C152.76 157.86 137.88 151.5 132.12 147.54L147.48 123.78C141.3 126.9 133.86 126.12 128.52 121.8C118.86 114.42 106.62 91.5605 106.62 91.5605C106.62 91.5605 106.56 89.1605 111.24 85.8605C115.92 82.5605 119.82 81.7805 121.8 83.0405C123.78 84.3005 142.56 103.38 142.56 103.38C142.56 103.38 154.2 96.5405 163.92 94.8005C173.64 93.0605 186.9 92.0405 186.9 92.0405Z" fill="#5A3296"/>
<path d="M189.3 90.3599C190.98 87.5399 195.48 87.1799 196.68 87.0599C197.88 86.9399 202.86 83.2799 203.34 79.7999C203.82 76.3199 207.9 74.3999 206.64 71.7599C205.38 69.1199 204.54 66.2399 204.96 64.4399C205.38 62.6399 205.2 58.3199 202.5 56.9399C199.8 55.5599 196.56 52.9199 196.02 51.1199C195.48 49.3199 194.88 44.8799 192.06 44.9999C189.24 45.1199 186.72 47.0999 184.62 46.2599C182.52 45.4199 179.46 45.5399 177.9 47.0999C176.34 48.6599 172.62 48.8999 172.2 51.4199C171.78 53.9399 172.86 62.5199 172.86 62.5199L189.3 90.3599Z" fill="#F5FF8C"/>
<path d="M189.3 90.6603C189.18 90.6603 189.12 90.6003 189.06 90.5403L172.68 62.7003C172.68 62.6403 172.62 62.6403 172.62 62.5803C172.56 62.2203 171.54 53.9403 172.02 51.3603C172.32 49.6203 173.94 48.9003 175.5 48.2403C176.34 47.9403 177.12 47.4603 177.84 46.8603C179.52 45.1203 182.76 45.1203 184.86 45.9603C186 46.3803 187.26 45.9603 188.7 45.4803C189.84 45.0603 190.98 44.7603 192.18 44.7003C194.82 44.5803 195.72 48.0603 196.2 50.1603C196.26 50.5203 196.38 50.8203 196.44 51.0603C196.92 52.7403 200.1 55.3203 202.74 56.7003C205.5 58.1403 205.8 62.5803 205.32 64.5603C204.96 66.1203 205.56 68.7003 207 71.7003C207.78 73.3803 206.76 74.7603 205.68 76.2003C204.84 77.3403 204 78.4803 203.76 79.9203C203.22 83.5203 198.12 87.3003 196.8 87.4203H196.74C193.08 87.7203 190.74 88.8003 189.66 90.5403C189.48 90.6003 189.42 90.6603 189.3 90.6603ZM173.16 62.4603L189.3 89.8203C190.56 88.1403 192.96 87.1203 196.56 86.8203H196.62C197.58 86.7603 202.5 83.1603 203.04 79.8603C203.28 78.3003 204.24 76.9803 205.08 75.8403C206.16 74.4003 207 73.2603 206.34 71.9403C205.44 70.1403 204.06 66.6603 204.6 64.3803C205.02 62.5803 204.78 58.5003 202.32 57.2403C199.56 55.8003 196.26 53.1003 195.72 51.2403C195.66 51.0003 195.54 50.6403 195.48 50.2803C195 48.2403 194.22 45.2403 192.06 45.3003C190.92 45.4203 189.78 45.6603 188.76 46.0803C187.26 46.5603 185.82 47.1003 184.5 46.5603C182.52 45.7803 179.64 45.7803 178.14 47.3403C177.42 48.0003 176.58 48.4803 175.62 48.8403C174.12 49.5003 172.74 50.1003 172.5 51.5403C172.14 53.8203 173.1 61.6203 173.16 62.4603Z" fill="#00283C"/>
<path d="M179.099 87.54L177.179 95.4C177.179 95.4 176.999 98.28 181.559 98.46C184.259 98.52 186.899 97.44 188.759 95.4L192.119 83.52L179.099 87.54Z" fill="#F5FF8C"/>
<path d="M181.919 98.7601H181.559C179.759 98.7001 178.499 98.2201 177.659 97.3201C177.179 96.7801 176.879 96.1201 176.879 95.4001L178.799 87.4801C178.799 87.3601 178.919 87.3001 178.979 87.2401L191.939 83.2201C192.119 83.1601 192.239 83.2801 192.299 83.4001C192.299 83.4601 192.299 83.5201 192.299 83.5801L188.939 95.4001C188.939 95.4601 188.879 95.4601 188.879 95.5201C187.139 97.5601 184.559 98.7001 181.919 98.7601ZM177.479 95.4601C177.539 96.0001 177.719 96.5401 178.139 96.9001C178.799 97.6201 179.999 98.0401 181.559 98.1001C184.139 98.1601 186.659 97.0801 188.459 95.2201L191.639 84.0001L179.399 87.7801L177.479 95.4601Z" fill="#00283C"/>
<path d="M192.359 78.54C192.359 78.54 193.499 74.88 196.859 76.86C200.219 78.84 195.959 83.52 193.859 82.74C189.419 86.88 183.419 88.86 177.419 88.2C167.399 87.06 161.219 76.14 167.639 66.78C174.059 57.42 176.219 55.98 178.679 54.96C178.679 54.96 180.419 57.36 182.339 58.2C184.259 59.04 184.679 61.5 184.499 64.02C184.319 66.54 187.379 66.66 187.919 67.62C188.459 68.58 187.619 72.54 188.999 73.62C190.379 74.7 188.699 79.2 189.479 79.92C190.259 80.64 192.359 78.54 192.359 78.54Z" fill="#F5FF8C"/>
<path d="M179.759 88.7404C178.979 88.7404 178.199 88.6804 177.419 88.6204C172.439 88.0804 168.059 84.9604 165.899 80.4604C163.859 76.0804 164.459 71.0404 167.399 66.7804C173.939 57.2404 176.039 55.8604 178.559 54.8404C178.679 54.7804 178.859 54.8404 178.919 54.9604C178.919 54.9604 180.659 57.3004 182.459 58.0804C184.259 58.8604 184.979 60.9604 184.799 64.2004C184.679 65.6404 185.879 66.1804 186.899 66.7204C187.439 66.9004 187.859 67.2004 188.219 67.6204C188.459 68.2804 188.519 69.0604 188.459 69.7804C188.459 71.1604 188.459 72.9604 189.239 73.5004C190.199 74.2204 189.959 76.0204 189.779 77.5804C189.659 78.4804 189.539 79.6204 189.779 79.8604C190.199 80.2204 191.459 79.3204 192.239 78.5404C192.599 77.5804 193.259 76.7404 194.219 76.3204C195.179 76.0204 196.259 76.2004 197.159 76.8004C198.539 77.6404 198.899 79.0204 198.179 80.5204C197.459 82.0204 195.539 83.5804 194.099 83.2804C190.079 86.7004 185.039 88.6804 179.759 88.7404ZM178.559 55.4404C176.219 56.4004 174.119 57.9004 167.879 67.0204C165.059 71.1604 164.519 75.9004 166.439 80.1604C168.479 84.5404 172.679 87.4804 177.479 88.0204C183.419 88.6204 189.299 86.7004 193.679 82.6204C193.739 82.5604 193.859 82.5004 193.979 82.5604C194.999 82.9204 196.739 81.7204 197.519 80.1604C197.879 79.4404 198.239 78.1204 196.739 77.2204C196.079 76.6804 195.179 76.5604 194.339 76.8004C193.199 77.2204 192.659 78.7204 192.659 78.7204C192.659 78.7804 192.599 78.7804 192.599 78.8404C192.239 79.2604 190.259 81.1804 189.299 80.2804C188.819 79.8604 188.939 78.8404 189.119 77.5204C189.299 76.2004 189.479 74.5204 188.819 73.9804C187.799 73.2004 187.799 71.2804 187.799 69.7804C187.859 69.1804 187.799 68.5204 187.679 67.9204C187.379 67.6204 187.019 67.3804 186.659 67.2604C185.579 66.7204 184.139 66.0604 184.259 64.2004C184.379 62.1604 184.139 59.5204 182.279 58.6804C180.539 57.8404 179.039 56.0404 178.559 55.4404Z" fill="#00283C"/>
<path d="M190.56 71.8806C190.5 72.4806 188.16 77.6406 187.08 79.9806C186.72 80.7606 185.94 81.2406 185.1 81.3006H184.92C184.38 81.3006 183.84 81.2407 183.36 81.0607C184.14 79.6807 185.4 77.5206 186.18 75.8406C187.44 73.1406 188.22 72.1806 186.24 71.1606C182.28 68.8206 178.68 66.0006 175.56 62.6406C172.56 59.2206 171.54 57.0006 171.54 57.0006L173.1 56.8206C173.52 56.7606 173.94 57.0006 174.06 57.4206C174.54 58.5606 175.8 61.0206 179.04 63.9006C183.48 67.9206 190.62 71.1006 190.56 71.8806Z" fill="#5A3296"/>
<path d="M184.859 81.6004C184.319 81.6004 183.779 81.4804 183.299 81.3604C183.179 81.3604 183.119 81.3004 183.119 81.1804C183.059 81.1204 183.059 81.0004 183.119 80.9404C183.839 79.7404 185.099 77.5204 185.939 75.7204L186.359 74.8804C187.439 72.6604 187.619 72.1804 186.119 71.4604C184.139 70.4404 178.379 66.3604 175.319 62.8804C172.259 59.4004 171.299 57.3004 171.239 57.1804C171.179 57.1204 171.179 57.0004 171.239 56.9404C171.299 56.8804 171.359 56.8204 171.479 56.8204L173.039 56.6404C173.579 56.5804 174.119 56.8804 174.299 57.4204C174.779 58.6204 176.039 61.0204 179.219 63.7804C181.679 65.9404 184.979 67.9204 187.379 69.3004C190.019 70.8604 190.859 71.4004 190.799 71.8804C190.739 72.3604 188.879 76.6804 187.319 80.1004C186.899 81.0004 186.059 81.5404 185.099 81.6004H184.799H184.859ZM183.839 80.8804C184.199 80.9404 184.559 81.0004 184.979 81.0004H185.159C185.879 81.0004 186.539 80.5204 186.839 79.8604C189.239 74.5804 190.139 72.3004 190.259 71.8804C190.079 71.5804 188.579 70.6804 187.139 69.8404C184.739 68.4004 181.379 66.4204 178.859 64.2004C175.619 61.3204 174.299 58.8004 173.819 57.6004C173.699 57.3604 173.459 57.1804 173.159 57.1804L172.019 57.3004C173.099 59.1604 174.359 60.9004 175.799 62.4604C178.919 65.7604 182.519 68.5804 186.419 70.8604C188.459 71.8804 187.919 73.0204 186.899 75.0604C186.779 75.3004 186.659 75.6004 186.479 75.9004C185.699 77.6404 184.559 79.6204 183.839 80.8804Z" fill="#00283C"/>
<path d="M186.179 75.8405C185.399 77.5805 184.139 79.6805 183.359 81.0605C181.439 80.5805 177.959 79.1405 173.399 75.1205C166.979 69.6005 165.779 65.2805 165.779 65.2805L171.599 57.0005C171.599 57.0005 172.619 59.2205 175.619 62.6405C178.739 65.9405 182.339 68.8205 186.299 71.1605C188.219 72.1805 187.499 73.1405 186.179 75.8405Z" fill="#F5FF8C"/>
<path d="M183.36 81.3603H183.3C181.26 80.8203 177.84 79.3803 173.22 75.3603C166.8 69.8403 165.539 65.5803 165.479 65.4003C165.479 65.3403 165.479 65.2203 165.539 65.1603L171.36 56.8803C171.42 56.8203 171.54 56.7603 171.66 56.7603C171.78 56.7603 171.839 56.8203 171.899 56.9403C172.979 58.9803 174.3 60.8403 175.86 62.5203C178.98 65.8203 182.579 68.6403 186.479 70.9203C188.519 71.9403 187.98 73.0803 186.96 75.1203C186.84 75.3603 186.719 75.6603 186.539 75.9603C185.699 77.7603 184.38 80.0402 183.66 81.2402C183.6 81.3002 183.48 81.3603 183.36 81.3603ZM166.079 65.4003C166.319 66.1803 167.939 70.0803 173.579 74.9403C178.199 78.9003 181.499 80.2803 183.239 80.7603C183.959 79.5603 185.159 77.4003 185.939 75.7203L186.36 74.8803C187.44 72.6603 187.62 72.1803 186.12 71.4603C184.14 70.4403 178.38 66.3603 175.32 62.8803C173.82 61.2603 172.559 59.5203 171.479 57.6603L166.079 65.4003Z" fill="#00283C"/>
<path d="M176.339 83.1606C175.619 83.1606 174.899 82.8606 174.419 82.3806C173.639 81.7206 173.339 80.6406 173.759 79.6806C173.819 79.5606 173.999 79.5006 174.179 79.5606C174.299 79.6206 174.419 79.8006 174.299 79.9806C173.999 80.7006 174.239 81.4806 174.839 81.9606C175.679 82.6806 176.879 82.8006 177.839 82.1406C177.959 82.0806 178.139 82.0806 178.259 82.2606C178.319 82.3806 178.319 82.5606 178.139 82.6806C177.599 82.9806 176.999 83.1606 176.339 83.1606Z" fill="#00283C"/>
<path d="M194.099 78.9004C195.119 77.6404 196.079 78.1804 196.679 78.7204Z" fill="#F5FF8C"/>
<path d="M194.099 79.2003C193.919 79.2003 193.799 79.0803 193.799 78.9003C193.799 78.8403 193.799 78.7803 193.859 78.7203C195.179 77.1003 196.439 78.1203 196.859 78.4803C196.979 78.6003 197.039 78.7803 196.919 78.9003C196.799 79.0203 196.619 79.0803 196.499 78.9603C195.779 78.3603 195.119 78.1803 194.339 79.1403C194.219 79.1403 194.159 79.2003 194.099 79.2003Z" fill="#00283C"/>
<path d="M117.959 84.8406C117.959 84.8406 110.639 77.3406 107.819 75.6606C104.999 73.9806 101.039 72.3606 96.8991 72.7806C92.7591 73.2006 87.8991 73.6206 86.5791 73.8606C85.2591 74.1006 88.0791 76.9806 91.4391 76.6806C93.7791 76.5606 96.1791 76.8006 98.4591 77.4006C98.4591 77.4006 95.2191 78.1206 95.9391 81.0006C95.3991 80.9406 94.8591 81.3606 94.7991 81.9006C94.7991 82.0206 94.7991 82.0806 94.7991 82.2006C94.1391 82.7406 93.9591 83.7606 94.4391 84.4806C95.6991 86.7006 98.0391 88.0806 100.559 88.2006C101.999 89.2206 103.739 89.6406 105.479 89.4606C108.239 89.1006 109.079 90.6006 109.079 90.6006C109.079 90.6006 115.379 88.9206 117.959 84.8406Z" fill="#F5FF8C"/>
<path d="M109.078 90.9003C108.958 90.9003 108.838 90.8403 108.838 90.7203C108.838 90.6603 108.058 89.4003 105.538 89.7003C103.738 89.8803 101.938 89.4603 100.498 88.4403C97.9184 88.3203 95.5184 86.8803 94.1984 84.6003C93.6584 83.7603 93.7784 82.6803 94.4984 82.0203C94.4384 81.6603 94.5584 81.3003 94.7984 81.0603C94.9784 80.8803 95.2784 80.7003 95.5784 80.6403C95.4584 79.9803 95.5784 79.2603 95.9384 78.6603C96.2984 78.1203 96.8384 77.6403 97.4384 77.3403C95.4584 76.8603 93.4784 76.6803 91.4384 76.8603C88.5584 77.1003 86.0984 75.2403 85.9184 74.2203C85.8584 73.8603 86.0984 73.5603 86.3984 73.5003H86.4584C88.1384 73.1403 94.7984 72.5403 96.7784 72.3603C101.518 71.9403 105.778 74.0403 107.878 75.3003C110.698 76.9803 117.778 84.2403 118.078 84.5403C118.198 84.6603 118.198 84.7803 118.138 84.9003C115.558 89.0403 109.378 90.7203 109.138 90.7803C109.138 90.9003 109.138 90.9603 109.078 90.9003ZM106.318 89.1003C107.398 89.0403 108.478 89.4603 109.198 90.3003C110.278 90.0003 115.258 88.3203 117.538 84.9003C116.398 83.7603 110.158 77.4603 107.638 75.9603C105.598 74.7003 101.458 72.7203 96.8984 73.0803C94.9184 73.2603 88.2584 73.8603 86.6384 74.1603C86.5784 74.1603 86.5784 74.1603 86.5184 74.2203C86.5184 74.2203 86.5184 74.4003 86.7584 74.6403C87.9584 75.9003 89.6984 76.5603 91.4384 76.3803C93.8384 76.2603 96.2384 76.5003 98.5784 77.1003C98.6984 77.1603 98.8184 77.2803 98.8184 77.4003C98.8184 77.5203 98.6984 77.6403 98.5784 77.7003C97.7384 77.8803 97.0184 78.4203 96.4784 79.0803C96.1784 79.6203 96.0584 80.2803 96.2384 80.9403C96.2984 81.1203 96.1784 81.2403 95.9984 81.3003H95.9384C95.6984 81.3003 95.4584 81.3603 95.2784 81.5403C95.1584 81.7203 95.0984 81.9603 95.1584 82.2003C95.1584 82.3203 95.1584 82.3803 95.0384 82.4403C94.4384 82.9203 94.3184 83.7003 94.7384 84.3003C95.9384 86.4603 98.1584 87.7803 100.618 87.8403C100.678 87.8403 100.738 87.8403 100.798 87.9003C102.178 88.8603 103.858 89.2803 105.478 89.1003C105.718 89.1603 106.018 89.1003 106.318 89.1003Z" fill="#00283C"/>
<path d="M107.459 85.4406C106.619 85.4406 105.659 85.4406 104.579 85.3806C102.479 85.2606 101.519 84.1806 101.279 83.2206C101.099 82.5606 101.339 81.8406 101.939 81.4206C102.899 80.8806 107.159 80.8206 109.619 80.8806H109.679C109.859 80.8806 109.979 81.0006 109.979 81.1806C109.979 81.3606 109.859 81.4806 109.679 81.4806H109.619C105.719 81.4206 102.779 81.6006 102.179 81.9606C101.819 82.2606 101.699 82.6806 101.819 83.1006C101.999 83.8806 102.779 84.7206 104.579 84.7806C106.439 84.9006 108.239 84.9006 110.099 84.7806C110.279 84.7806 110.399 84.9006 110.399 85.0806C110.399 85.2606 110.279 85.3806 110.099 85.3806C110.159 85.4406 109.139 85.4406 107.459 85.4406Z" fill="#00283C"/>
<path d="M101.699 84.7203C99.6588 84.7203 96.3588 82.6803 95.6388 81.1203C95.5788 80.9403 95.6388 80.8203 95.7588 80.7003C95.8788 80.6403 96.0588 80.7003 96.1788 80.8203C96.9588 82.5003 100.739 84.4803 102.239 84.0003C102.419 83.9403 102.539 84.0003 102.599 84.1803C102.659 84.3603 102.599 84.4803 102.419 84.5403C102.179 84.6603 101.939 84.7203 101.699 84.7203Z" fill="#00283C"/>
<path d="M102.839 81.72C102.779 81.72 102.779 81.72 102.719 81.66C101.699 81.18 98.399 79.5 98.819 78.18C98.879 78 99.0589 77.94 99.2389 78C99.4189 78.06 99.479 78.24 99.419 78.42C99.239 78.96 101.099 80.28 102.959 81.12C103.139 81.18 103.259 81.3 103.199 81.48C103.199 81.72 103.079 81.78 102.839 81.72Z" fill="#00283C"/>
<path d="M100.799 86.2803C99.2389 86.2803 95.2189 84.7203 94.5589 82.3203C94.4989 82.1403 94.6189 82.0203 94.7389 81.9603C94.9189 81.9003 95.0389 82.0203 95.0989 82.1403C95.7589 84.3603 99.8389 85.8003 100.919 85.6803C101.099 85.6803 101.279 85.6203 101.339 85.4403C101.399 85.1403 101.339 84.8403 101.219 84.5403C101.159 84.4203 101.219 84.2403 101.339 84.1203C101.459 84.0603 101.639 84.1203 101.759 84.2403C101.999 84.6603 102.059 85.2003 101.879 85.6803C101.699 85.9803 101.339 86.2203 100.979 86.2203L100.799 86.2803Z" fill="#00283C"/>
<path d="M100.559 88.5002C100.439 88.5002 100.379 88.4402 100.319 88.3802C100.259 88.2602 100.259 88.0802 100.439 87.9602C100.739 87.7802 100.919 87.5402 100.979 87.2402C101.039 86.8802 100.919 86.4602 100.739 86.1602C100.619 86.0402 100.679 85.8602 100.799 85.7402C100.919 85.6202 101.099 85.6802 101.219 85.8002C101.519 86.2802 101.639 86.8202 101.519 87.3602C101.399 87.8402 101.099 88.2002 100.679 88.4402C100.679 88.5002 100.619 88.5002 100.559 88.5002Z" fill="#00283C"/>
<path d="M98.4587 77.7005C98.3987 77.7005 98.3387 77.7005 98.2787 77.6405C98.1587 77.5205 98.0987 77.3405 98.2187 77.2205C99.1787 76.0205 100.499 75.2405 102.059 75.0005C102.239 75.0005 102.359 75.0605 102.419 75.2405C102.479 75.4205 102.359 75.5405 102.179 75.6005C100.859 75.8405 99.5987 76.5605 98.7587 77.5805C98.6387 77.7005 98.5787 77.7005 98.4587 77.7005Z" fill="#00283C"/>
<path d="M241.859 157.8C244.019 161.52 243.299 167.88 243.839 169.8C244.379 171.72 248.579 168.48 248.099 163.8C248.099 163.8 252.539 168.78 255.239 171.72C257.939 174.66 259.139 173.04 257.399 169.98C255.659 166.92 253.319 163.38 253.319 163.38C253.319 163.38 262.439 168.54 265.799 167.88C269.159 167.22 266.459 165.54 264.539 164.82C262.139 163.8 259.859 162.54 257.699 160.98C257.699 160.98 264.779 161.82 268.199 161.22C271.619 160.62 270.299 158.46 268.199 158.4C266.099 158.34 262.559 158.04 260.099 157.14C260.099 157.14 264.539 156.24 266.519 154.98C268.499 153.72 266.039 153.24 263.519 153.84C260.819 154.5 258.059 154.56 255.359 154.02C252.779 153.42 248.459 150.36 248.459 150.36C248.459 150.36 246.359 155.28 241.859 157.8Z" fill="#F5FF8C"/>
<path d="M257.579 173.521C257.039 173.521 256.259 173.161 255.059 171.901C252.899 169.621 249.719 166.081 248.459 164.641C248.459 167.941 246.239 170.341 244.859 170.641C244.319 170.821 243.719 170.461 243.599 169.921C243.599 169.921 243.599 169.921 243.599 169.861C243.359 168.781 243.299 167.761 243.299 166.681C243.179 164.041 243.059 160.381 241.619 157.981C241.559 157.921 241.559 157.801 241.619 157.741C241.619 157.681 241.679 157.621 241.739 157.561C246.059 155.161 248.219 150.241 248.279 150.241C248.339 150.181 248.399 150.121 248.459 150.061C248.519 150.061 248.639 150.061 248.699 150.121C248.759 150.121 253.019 153.181 255.479 153.721C258.119 154.261 260.879 154.201 263.519 153.541C264.959 153.181 267.179 153.121 267.539 153.961C267.719 154.381 267.419 154.801 266.699 155.221C265.259 156.121 262.739 156.841 261.239 157.201C263.519 157.741 265.859 158.041 268.199 158.101C269.459 158.161 270.539 158.881 270.599 159.781C270.599 160.201 270.479 161.161 268.259 161.521C265.619 161.941 260.999 161.581 258.839 161.401C260.699 162.661 262.619 163.681 264.659 164.521C265.199 164.701 267.779 165.781 267.659 166.981C267.599 167.581 266.999 167.941 265.859 168.181C263.099 168.721 256.739 165.541 254.219 164.221C255.059 165.481 256.499 167.761 257.639 169.801C258.599 171.481 258.779 172.861 258.119 173.341C257.939 173.461 257.759 173.521 257.579 173.521ZM248.099 163.501C248.159 163.501 248.279 163.561 248.339 163.621C248.399 163.681 252.779 168.661 255.479 171.541C256.859 172.981 257.579 173.101 257.819 172.921C258.059 172.741 258.119 171.721 257.219 170.161C255.479 167.101 253.199 163.621 253.139 163.621C253.079 163.501 253.079 163.321 253.139 163.261C253.259 163.141 253.379 163.141 253.499 163.201C253.559 163.261 262.619 168.301 265.799 167.641C266.999 167.401 267.119 167.101 267.119 166.981C267.179 166.561 265.979 165.721 264.479 165.121C262.019 164.101 259.739 162.841 257.579 161.281C257.459 161.221 257.399 161.041 257.459 160.921C257.519 160.801 257.639 160.741 257.759 160.741C257.819 160.741 264.839 161.581 268.139 160.981C269.279 160.801 269.999 160.381 269.999 159.841C269.999 159.301 269.219 158.761 268.199 158.701C264.599 158.581 261.899 158.101 260.039 157.441C259.859 157.441 259.739 157.261 259.739 157.141C259.739 156.961 259.919 156.841 260.039 156.841C260.099 156.841 264.419 155.941 266.339 154.741C266.879 154.441 266.939 154.201 266.939 154.201C266.819 153.961 265.499 153.721 263.579 154.141C260.879 154.801 258.059 154.861 255.299 154.321C253.079 153.781 249.599 151.501 248.579 150.841C248.039 151.981 245.939 155.761 242.219 157.981C243.539 160.501 243.719 164.101 243.839 166.681C243.839 167.701 243.899 168.721 244.139 169.741C244.199 169.921 244.319 170.161 244.739 170.041C245.999 169.801 248.159 167.161 247.799 163.861C247.799 163.741 247.859 163.621 247.979 163.561C248.039 163.501 248.099 163.501 248.099 163.501Z" fill="#00283C"/>
<path d="M148.919 120.421C148.859 120.421 148.799 120.421 148.799 120.361C148.679 120.301 148.619 120.121 148.679 119.941C148.739 119.881 152.699 111.781 155.399 106.681C155.459 106.501 155.639 106.441 155.819 106.501C155.999 106.561 156.059 106.741 155.999 106.921C155.999 106.921 155.999 106.921 155.999 106.981C153.299 112.141 149.339 120.181 149.279 120.241C149.159 120.361 149.039 120.421 148.919 120.421Z" fill="#00283C"/>
<path d="M207.479 131.4C207.359 131.4 207.299 131.34 207.239 131.28C201.959 123.54 198.239 110.7 201.059 105.12C201.119 105 201.299 104.94 201.479 105C201.599 105.06 201.659 105.24 201.599 105.42C198.839 110.82 202.559 123.36 207.719 130.98C207.839 131.1 207.779 131.28 207.659 131.4C207.599 131.4 207.539 131.4 207.479 131.4Z" fill="#00283C"/>
<path d="M138.059 253.26L136.439 271.62C136.319 272.94 135.179 273.96 133.799 273.84L98.5792 271.02C97.2592 270.9 96.2392 269.76 96.3592 268.38C96.3592 268.26 96.3592 268.14 96.4192 268.02L96.5992 267.18C96.5992 267.18 99.9592 250.8 117.479 251.1C117.539 251.22 123.299 254.64 138.059 253.26Z" fill="#5A3296"/>
<path d="M136.199 270.42L97.1389 267.3C96.9589 267.3 96.8389 267.12 96.8389 267C96.8389 266.82 97.0189 266.7 97.1389 266.7L136.199 269.82C136.379 269.82 136.499 269.94 136.499 270.12C136.499 270.3 136.439 270.42 136.199 270.42Z" fill="#00283C"/>
<path d="M126.779 269.641C126.599 269.641 126.479 269.461 126.479 269.281C126.479 269.221 127.919 260.701 137.399 260.941C137.579 260.941 137.699 261.061 137.699 261.241C137.699 261.421 137.579 261.541 137.399 261.541C133.619 261.421 130.739 262.741 128.879 265.381C128.039 266.581 127.439 267.961 127.139 269.401C127.079 269.521 126.899 269.641 126.779 269.641Z" fill="#00283C"/>
<path d="M117.599 257.16C117.539 257.16 117.419 257.1 117.359 257.1L109.799 249.36C109.679 249.24 109.679 249.06 109.799 248.94C109.919 248.82 110.099 248.82 110.219 248.94L117.779 256.68C117.899 256.8 117.899 256.98 117.779 257.1C117.719 257.1 117.659 257.16 117.599 257.16Z" fill="#00283C"/>
<path d="M113.459 258.36C113.399 258.36 113.279 258.3 113.219 258.3L105.659 250.56C105.539 250.44 105.599 250.26 105.719 250.14C105.839 250.08 105.959 250.08 106.079 250.14L113.639 257.88C113.759 258 113.759 258.18 113.639 258.3C113.579 258.3 113.519 258.36 113.459 258.36Z" fill="#00283C"/>
<path d="M64.9792 216.48L48.4792 224.7C47.2792 225.3 45.8392 224.82 45.2392 223.62L29.2192 192.12C28.6192 190.92 29.0992 189.48 30.2992 188.82C30.4192 188.76 30.4792 188.7 30.5992 188.7L31.3792 188.4C31.3792 188.4 47.0992 182.7 55.9792 197.82C55.9792 197.88 56.0992 204.54 64.9792 216.48Z" fill="#5A3296"/>
<path d="M49.6788 223.92C49.5588 223.92 49.4388 223.86 49.4388 223.74L31.6788 188.82C31.6188 188.7 31.6788 188.46 31.7988 188.4C31.9188 188.34 32.1588 188.4 32.2188 188.52L49.9788 223.44C50.0388 223.56 49.9788 223.74 49.8588 223.86C49.7388 223.92 49.7388 223.92 49.6788 223.92Z" fill="#00283C"/>
<path d="M57.8382 220.32C57.7182 220.32 57.6582 220.26 57.5982 220.2C53.1582 212.46 45.8382 215.4 45.5382 215.52C45.3582 215.58 45.2382 215.52 45.1182 215.34C45.0582 215.22 45.1182 215.04 45.2982 214.98C45.3582 214.92 53.3982 211.68 58.1382 219.9C58.1982 220.02 58.1382 220.2 58.0182 220.32C57.9582 220.32 57.8982 220.32 57.8382 220.32Z" fill="#00283C"/>
<path d="M51.2395 201.12H51.1795C50.9995 201.06 50.9395 200.94 50.9395 200.76L53.5795 190.32C53.6395 190.14 53.7595 190.08 53.9395 190.08C54.1195 190.14 54.1795 190.26 54.1795 190.44L51.5395 200.94C51.4795 201.06 51.3595 201.12 51.2395 201.12Z" fill="#00283C"/>
<path d="M48.0588 198.24H47.9988C47.8188 198.18 47.7588 198.06 47.7588 197.88L50.3988 187.38C50.4588 187.2 50.5788 187.14 50.7588 187.14C50.9388 187.14 50.9988 187.32 50.9988 187.5L48.2988 198C48.2988 198.12 48.1788 198.24 48.0588 198.24Z" fill="#00283C"/>
<path d="M81.6006 149.1L67.2006 159.72L69.9006 152.4L66.1206 140.76C66.1206 140.76 62.5206 139.2 62.1006 137.1C62.1006 137.1 73.8006 137.76 76.8606 137.1C79.9206 136.44 81.6006 149.1 81.6006 149.1Z" fill="#5A3296"/>
<path d="M67.1397 160.08C67.0797 160.08 67.0197 160.08 66.9597 160.02C66.8397 159.96 66.8397 159.78 66.8397 159.66L69.4797 152.46L65.7597 141.06C65.0997 140.76 62.0997 139.26 61.6797 137.28C61.6797 137.22 61.6797 137.1 61.7397 137.04C61.7997 136.98 61.9197 136.92 61.9797 136.92C62.0997 136.92 73.6797 137.58 76.6797 136.92C77.0997 136.8 77.5197 136.92 77.8797 137.16C80.3997 138.9 81.7797 148.68 81.8397 149.1C81.8397 149.22 81.7797 149.34 81.7197 149.4L67.2597 160.02C67.2597 160.08 67.1997 160.08 67.1397 160.08ZM62.4597 137.46C63.1797 139.2 66.1197 140.46 66.1797 140.52C66.2397 140.58 66.2997 140.64 66.3597 140.7L70.1997 152.34C70.1997 152.4 70.1997 152.46 70.1997 152.52L67.8597 158.88L81.3597 148.92C81.1797 147.6 79.8597 139.08 77.6997 137.58C77.5197 137.4 77.2197 137.34 76.9797 137.4C74.0997 138.06 64.6197 137.58 62.4597 137.46Z" fill="#00283C"/>
<path d="M87.8998 146.34C80.9398 149.1 73.7998 151.44 66.5998 153.36C61.3798 148.44 63.1798 141.48 63.1798 141.48C68.2198 140.58 75.4198 137.94 81.5998 135.18C82.6198 141.42 87.8998 146.34 87.8998 146.34Z" fill="#F5FF8C"/>
<path d="M66.6001 153.6C66.5401 153.6 66.4801 153.54 66.4201 153.54C61.1401 148.56 62.8801 141.42 62.8801 141.36C62.8801 141.24 63.0001 141.18 63.1201 141.12C67.7401 140.28 74.6401 137.94 81.4801 134.82C81.5401 134.76 81.6601 134.76 81.7201 134.82C81.7801 134.88 81.8401 134.94 81.8401 135.06C82.8601 141.18 88.0201 146.04 88.0801 146.1C88.2001 146.22 88.2001 146.4 88.0801 146.52C88.0801 146.58 88.0201 146.58 87.9601 146.58C81.0601 149.34 73.9201 151.68 66.6001 153.6ZM63.4201 141.66C63.1801 142.8 62.2801 148.68 66.6601 152.94C73.6801 151.14 80.5801 148.86 87.3601 146.16C86.2201 144.96 82.3201 140.82 81.3601 135.48C74.6401 138.54 67.9801 140.82 63.4201 141.66Z" fill="#00283C"/>
<path d="M97.3194 141.54C96.3594 142.14 95.3394 142.8 94.1994 143.4C90.5394 140.7 88.2594 136.5 87.8994 132C89.0394 131.34 90.0594 130.74 90.9594 130.2C97.0794 126.24 103.919 124.86 106.199 127.8C107.999 130.08 107.339 135 97.3194 141.54Z" fill="#F5FF8C"/>
<path d="M94.1996 143.64C94.1396 143.64 94.0796 143.64 94.0196 143.58C90.3596 140.82 88.0196 136.56 87.5996 132C87.5996 131.88 87.6596 131.76 87.7796 131.76C88.9796 131.1 89.9996 130.5 90.8396 129.96C97.4396 125.7 104.16 124.68 106.5 127.62C107.22 128.58 107.52 129.84 107.28 131.04C106.92 133.32 104.94 136.98 97.5596 141.84C96.5996 142.5 95.5196 143.1 94.4396 143.7C94.3196 143.7 94.2596 143.7 94.1996 143.64ZM88.1996 132.12C88.6196 136.38 90.7796 140.34 94.1996 142.98C95.2196 142.44 96.2396 141.84 97.1396 141.24C104.34 136.5 106.26 133.02 106.62 130.86C106.86 129.84 106.62 128.76 105.96 127.92C103.92 125.28 97.3796 126.36 91.1396 130.38C90.3596 130.92 89.3396 131.52 88.1996 132.12Z" fill="#00283C"/>
<path d="M66.5992 153.3L63.2992 156.6C62.5192 157.44 61.1992 157.44 60.3592 156.6C58.0192 154.2 54.0592 148.8 56.7592 141.54C57.1192 140.52 58.2592 139.98 59.2792 140.28L63.1792 141.42C63.1192 141.42 61.3792 148.44 66.5992 153.3Z" fill="#F5FF8C"/>
<path d="M61.7997 157.56C61.1397 157.56 60.5397 157.32 60.1197 156.84C57.5997 154.2 53.7597 148.8 56.4597 141.42C56.8797 140.28 58.1397 139.62 59.3397 139.98L63.2397 141.12C63.4197 141.18 63.4797 141.3 63.4197 141.48C63.4197 141.54 61.7397 148.38 66.7797 153.06C66.8397 153.12 66.8997 153.18 66.8997 153.3C66.8997 153.36 66.8397 153.48 66.7797 153.54L63.4797 156.84C63.0597 157.32 62.4597 157.56 61.7997 157.56ZM58.6797 140.52C57.9597 140.52 57.2997 141 56.9997 141.66C54.4197 148.74 58.0797 153.96 60.5397 156.42C60.8997 156.78 61.3197 156.96 61.7997 156.96C62.2797 156.96 62.6997 156.78 63.0597 156.42L66.1797 153.3C61.7397 148.92 62.5797 142.98 62.8197 141.6L59.2197 140.52C59.0397 140.52 58.8597 140.52 58.6797 140.52Z" fill="#00283C"/>
<path d="M94.1991 143.4C92.2791 144.42 90.1191 145.44 87.8991 146.34C87.8991 146.34 82.5591 141.48 81.5391 135.12C83.8191 134.1 85.9791 133.02 87.8991 132C88.2591 136.56 90.5391 140.7 94.1991 143.4Z" fill="#5A3296"/>
<path d="M87.8988 146.64C87.8388 146.64 87.7788 146.64 87.7188 146.58C87.4788 146.4 82.3188 141.54 81.2988 135.18C81.2988 135.06 81.3588 134.94 81.4788 134.88C83.8188 133.8 85.9788 132.78 87.7788 131.76C87.9588 131.7 88.1388 131.76 88.1988 131.88C88.1988 131.94 88.1988 131.94 88.2588 132C88.6788 136.44 90.8988 140.46 94.4388 143.16C94.5588 143.28 94.6188 143.46 94.4988 143.58L94.4388 143.64C92.6388 144.6 90.5388 145.56 88.0788 146.58C88.0188 146.58 87.9588 146.58 87.8988 146.64ZM81.8988 135.3C82.8588 140.76 87.1188 145.2 87.9588 145.98C90.1188 145.08 91.9788 144.18 93.6588 143.34C90.2988 140.64 88.1388 136.74 87.6588 132.48C85.9788 133.38 84.0588 134.34 81.8988 135.3Z" fill="#00283C"/>
<path d="M99.4033 136.564C101.33 135.53 102.257 133.508 101.473 132.048C100.69 130.588 98.4923 130.243 96.5653 131.278C94.6383 132.312 93.7115 134.334 94.4952 135.794C95.2789 137.254 97.4763 137.599 99.4033 136.564Z" fill="#5A3296"/>
<path d="M97.1393 137.46C96.8993 137.46 96.7193 137.46 96.4793 137.4C94.9193 137.28 93.7793 135.84 93.8993 134.28C93.9593 133.92 94.0193 133.56 94.1993 133.2C94.6793 132.24 95.3993 131.46 96.3593 130.98C97.2593 130.44 98.3393 130.26 99.4193 130.38C100.979 130.5 102.119 131.88 101.999 133.44C101.939 133.8 101.879 134.22 101.699 134.52C101.219 135.48 100.499 136.26 99.5393 136.74C98.8193 137.22 97.9793 137.46 97.1393 137.46ZM98.7593 130.98C98.0393 130.98 97.3193 131.16 96.6593 131.52C95.8193 131.94 95.1593 132.66 94.7393 133.44C94.1393 134.52 94.4993 135.9 95.5793 136.5C95.8793 136.68 96.1793 136.74 96.5393 136.8C98.4593 137.04 100.259 136.02 101.099 134.34C101.699 133.26 101.339 131.88 100.259 131.28C99.9593 131.1 99.6593 131.04 99.2993 130.98C99.1793 130.98 98.9993 130.98 98.7593 130.98Z" fill="#00283C"/>
<path d="M53.2212 148.74C34.9212 144.9 29.0412 136.86 27.3012 130.74C24.8412 122.1 28.9212 111.54 38.2812 102.6C38.4012 102.48 38.5812 102.48 38.7012 102.6C38.8212 102.72 38.8212 102.9 38.7012 103.02C29.5212 111.84 25.4412 122.16 27.8412 130.56C30.2412 138.96 39.0612 145.14 53.2212 148.14C53.4012 148.14 53.5212 148.32 53.4612 148.5C53.5212 148.62 53.4012 148.74 53.2212 148.74Z" fill="#00283C"/>
<path d="M73.6813 86.2804C73.5013 86.2804 73.3813 86.1604 73.3213 86.0404C73.3213 85.8604 73.4413 85.7404 73.5613 85.6804C85.7413 82.6804 98.1613 80.9404 110.641 80.4004C110.821 80.4004 110.941 80.5204 110.941 80.7004C110.941 80.8804 110.821 81.0004 110.641 81.0004C98.1613 81.5404 85.8013 83.2804 73.7413 86.2804H73.6813Z" fill="#00283C"/>
<path d="M76.7418 93.3602C76.7418 102.9 69.3618 110.82 59.8818 111.48C59.4618 111.54 58.9818 111.54 58.5618 111.54C48.7818 111.54 40.7418 103.8 40.3818 94.0802C40.3818 93.8402 40.3818 93.6002 40.3818 93.3602C40.3818 84.4802 46.8018 76.8602 55.5618 75.4202C56.5818 75.2402 57.6018 75.1802 58.6218 75.1802C68.5818 75.1802 76.7418 83.2802 76.7418 93.3602Z" fill="#5A3296"/>
<path d="M58.5015 111.84C48.5415 111.9 40.3815 104.04 40.0215 94.0804C40.0215 93.8404 40.0215 93.6004 40.0215 93.3604C40.0215 88.6804 41.7615 84.1204 45.0015 80.7004C47.7615 77.7604 51.4215 75.7804 55.4415 75.1204C56.4615 74.9404 57.4815 74.8804 58.5015 74.8804C68.7015 74.8804 77.0415 83.1604 77.0415 93.3604C77.0415 103.08 69.5415 111.12 59.8815 111.84C59.4615 111.84 58.9815 111.84 58.5015 111.84ZM58.5015 75.4204C57.4815 75.4204 56.5215 75.4804 55.5015 75.6604C46.8615 77.1004 40.5615 84.6004 40.5615 93.3004C40.5615 93.5404 40.5615 93.7804 40.5615 94.0204C40.9215 103.62 48.8415 111.24 58.4415 111.24C58.8615 111.24 59.3415 111.24 59.7615 111.18C66.6015 110.64 72.5415 106.32 75.1215 99.9004C78.7815 90.7204 74.2815 80.2804 65.0415 76.6804C62.9415 75.9004 60.7215 75.4204 58.5015 75.4204Z" fill="#00283C"/>
<path d="M76.7412 93.3602C76.7412 95.6402 76.3212 97.9202 75.4812 100.08C74.1612 100.44 72.9612 101.04 71.9412 101.82C70.3212 103.14 67.0212 102.78 67.2012 100.56C67.3812 98.3402 67.0812 98.0402 66.3012 96.0602C65.5812 94.2602 66.0012 92.1602 67.3212 90.7802C68.5812 89.4602 68.3412 88.1402 70.3212 87.3002C72.3012 86.4602 75.3012 86.7002 75.4812 86.7002C76.3212 88.8002 76.7412 91.0802 76.7412 93.3602Z" fill="#F5FF8C"/>
<path d="M69.601 102.9C69.061 102.9 68.521 102.78 67.981 102.54C67.201 102.18 66.721 101.4 66.841 100.56C67.021 99.3005 66.781 98.0405 66.241 96.9005C66.181 96.6605 66.061 96.4205 65.941 96.1805C65.161 94.2605 65.641 92.0405 67.021 90.5405C67.381 90.1205 67.741 89.6405 67.981 89.1005C68.401 88.1405 69.121 87.3605 70.141 86.9405C72.001 86.1605 74.881 86.2805 75.481 86.3405C75.601 86.3405 75.721 86.4005 75.721 86.5205C77.461 90.9005 77.461 95.7605 75.721 100.14C75.661 100.2 75.601 100.32 75.541 100.32C74.281 100.62 73.141 101.22 72.121 102C71.341 102.6 70.501 102.9 69.601 102.9ZM74.401 86.9405C73.021 86.8805 71.641 87.1205 70.381 87.5405C69.541 87.9005 68.881 88.5605 68.521 89.4005C68.281 89.9405 67.921 90.4805 67.441 90.9605C66.181 92.2805 65.821 94.2605 66.481 95.9405L66.781 96.6605C67.321 97.8605 67.561 99.2405 67.381 100.56C67.321 101.16 67.681 101.76 68.221 102C69.361 102.48 70.681 102.36 71.641 101.58C72.661 100.74 73.861 100.14 75.181 99.7805C76.801 95.6405 76.801 91.0205 75.181 86.8805C75.061 86.9405 74.761 86.9405 74.401 86.9405Z" fill="#00283C"/>
<path d="M56.5811 86.6405C59.1611 86.1605 61.0211 86.7605 61.8011 88.8605C62.5811 90.9605 62.1011 92.2205 60.6011 92.7605C59.1011 93.3005 57.7811 92.2205 57.1211 91.3805C56.4611 90.6005 55.4411 90.2405 54.4811 90.5405C53.5211 90.7805 52.7411 88.3205 53.5811 87.9605C54.4211 87.6005 55.2611 86.8805 56.5811 86.6405Z" fill="#F5FF8C"/>
<path d="M59.7611 93.2406C58.5011 93.2406 57.4811 92.2806 56.8811 91.5606C56.3411 90.8406 55.3811 90.6006 54.5411 90.8406C53.9411 90.9606 53.4011 90.5406 53.1011 89.7006C52.8611 88.9806 52.8611 88.0206 53.4611 87.7206C53.7011 87.6006 53.9411 87.4806 54.1811 87.3606C54.9011 86.8806 55.7411 86.5806 56.5811 86.4006C59.4611 85.8606 61.3211 86.7006 62.1011 88.8006C63.1211 91.5006 61.9211 92.6406 60.7211 93.1206C60.3611 93.1206 60.0611 93.1806 59.7611 93.2406ZM55.1411 90.1206C55.9811 90.1206 56.7611 90.5406 57.3011 91.2006C58.0211 92.0406 59.1611 93.0006 60.4211 92.4606C61.8011 91.9206 62.1611 90.7806 61.5011 88.9206C60.8411 87.0606 59.2211 86.4606 56.6411 86.8806C55.8611 87.0606 55.0811 87.3606 54.4211 87.7806C54.1811 87.9006 53.9411 88.0806 53.7011 88.1406C53.4611 88.2006 53.4611 88.8006 53.6411 89.4006C53.8211 89.8206 54.1211 90.2406 54.3611 90.1806C54.6611 90.1806 54.9011 90.1806 55.1411 90.1206Z" fill="#00283C"/>
<path d="M56.5812 77.9399C56.4012 79.9199 53.4612 80.2199 52.4412 80.9999C51.4212 81.7799 51.5412 82.4399 50.1612 83.2799C48.7812 84.1199 47.0412 83.3999 46.7412 82.4399C46.4412 81.7799 45.9012 81.2399 45.2412 80.9399C47.9412 77.9999 51.5412 76.0799 55.5012 75.4199C55.5012 75.4199 56.7612 75.9599 56.5812 77.9399Z" fill="#F5FF8C"/>
<path d="M48.7815 83.9401C48.4215 83.9401 48.1215 83.8801 47.7615 83.7601C47.1615 83.5801 46.6215 83.1601 46.3815 82.5601C46.0815 81.9601 45.6015 81.4801 45.0615 81.1801C44.9415 81.1201 44.8815 80.9401 44.9415 80.7601L45.0015 80.7001C47.7615 77.7601 51.4215 75.7801 55.4415 75.1201C55.5015 75.1201 55.5615 75.1201 55.6215 75.1201C55.6815 75.1201 57.1215 75.7801 56.8815 77.9401C56.7015 79.4401 55.2015 80.1001 54.0015 80.5801C53.5215 80.7601 53.1015 81.0001 52.6815 81.2401C52.3815 81.4801 52.0815 81.7801 51.8415 82.1401C51.4815 82.7401 50.9415 83.2201 50.3415 83.5201C49.8015 83.8201 49.3215 83.9401 48.7815 83.9401ZM45.7215 80.8801C46.2615 81.2401 46.7415 81.7801 46.9815 82.3801C47.1615 82.8001 47.5815 83.1001 48.0015 83.2201C48.6615 83.4601 49.3815 83.4001 49.9815 83.0401C50.5215 82.7401 51.0015 82.3201 51.3015 81.7801C51.5415 81.4201 51.8415 81.0601 52.2015 80.7601C52.6815 80.4601 53.1615 80.2201 53.7015 80.0401C54.8415 79.5601 56.1015 79.0801 56.2215 77.8801C56.3415 76.4401 55.6215 75.8401 55.3815 75.7201C51.7215 76.3801 48.3015 78.1801 45.7215 80.8801Z" fill="#00283C"/>
<path d="M59.8818 111.481C59.4618 111.541 58.9818 111.541 58.5618 111.541C48.7818 111.541 40.7418 103.801 40.3818 94.0806C40.5018 94.1406 42.4218 94.5606 42.9018 95.5206C43.3818 96.4806 43.1418 98.0406 43.2618 98.7606C43.3818 99.4806 44.9418 100.981 46.6218 101.281C48.3018 101.581 52.4418 98.4006 54.4818 98.4606C56.5218 98.5206 57.5418 99.4206 58.2618 101.281C58.9818 103.141 58.6818 103.981 58.5618 105.421C58.4418 106.861 57.5418 107.281 58.2018 108.121C58.8618 108.961 60.3018 109.441 59.8818 111.481Z" fill="#F5FF8C"/>
<path d="M58.5015 111.84C48.5415 111.9 40.3815 104.04 40.0215 94.0803C40.0215 93.9603 40.0815 93.9003 40.1415 93.8403C40.2015 93.7803 40.3215 93.7803 40.3815 93.7803C40.8615 93.9003 42.6015 94.3803 43.1415 95.4003C43.4415 96.1803 43.6215 97.0803 43.5015 97.9203C43.5015 98.1603 43.5015 98.4603 43.5015 98.7003C43.5615 99.1803 45.0015 100.68 46.6215 100.98C47.4015 101.16 48.9015 100.38 50.4015 99.6603C51.9015 98.9403 53.4015 98.1603 54.4215 98.2203C56.4615 98.2803 57.6615 99.1203 58.5015 101.22C58.9815 102.36 59.1015 103.56 58.8615 104.76C58.8615 105 58.8015 105.24 58.8015 105.48C58.7415 105.96 58.6215 106.5 58.3815 106.92C58.1415 107.46 58.0815 107.64 58.3815 108C58.5615 108.18 58.7415 108.42 58.9815 108.54C59.7015 109.14 60.5415 109.8 60.1815 111.54C60.1815 111.66 60.0615 111.78 59.9415 111.78C59.4615 111.84 58.9815 111.84 58.5015 111.84ZM40.6815 94.4403C41.2215 103.92 49.0815 111.3 58.5615 111.24C58.9215 111.24 59.2815 111.24 59.6415 111.18C59.8215 109.98 59.2215 109.5 58.6215 109.02C58.3815 108.84 58.1415 108.6 57.9615 108.36C57.6015 107.88 57.6015 107.22 57.9015 106.68C58.0815 106.26 58.2015 105.84 58.2615 105.42C58.2615 105.18 58.3215 104.94 58.3215 104.7C58.5615 103.62 58.4415 102.48 57.9615 101.46C57.2415 99.6003 56.2815 98.8803 54.4815 98.8203C53.5815 98.7603 52.1415 99.5403 50.7015 100.2C49.0815 101.04 47.5215 101.76 46.5615 101.58C44.7615 101.22 43.0815 99.6003 42.9615 98.7603C42.9615 98.4603 42.9615 98.1603 42.9615 97.8603C43.0215 97.0803 42.9615 96.3603 42.6615 95.6403C42.2415 95.0403 41.2215 94.6803 40.6815 94.4403Z" fill="#00283C"/>
<path d="M174.599 219.72C184.407 219.72 192.359 211.768 192.359 201.96C192.359 192.151 184.407 184.2 174.599 184.2C164.79 184.2 156.839 192.151 156.839 201.96C156.839 211.768 164.79 219.72 174.599 219.72Z" fill="#F5FF8C"/>
<path d="M174.599 219.96C164.639 219.96 156.539 211.86 156.539 201.9C156.539 191.94 164.639 183.84 174.599 183.84C184.559 183.84 192.659 191.94 192.659 201.9C192.599 211.92 184.559 219.96 174.599 219.96ZM174.599 184.5C164.939 184.5 157.139 192.3 157.139 201.96C157.139 211.62 164.939 219.42 174.599 219.42C184.259 219.42 192.059 211.62 192.059 201.96C191.999 192.3 184.199 184.5 174.599 184.5Z" fill="#00283C"/>
<path d="M42.7813 167.64C44.1399 167.64 45.2413 166.538 45.2413 165.18C45.2413 163.821 44.1399 162.72 42.7813 162.72C41.4227 162.72 40.3213 163.821 40.3213 165.18C40.3213 166.538 41.4227 167.64 42.7813 167.64Z" fill="#5A3296"/>
<path d="M233.461 129.3C231.901 129.3 230.701 128.04 230.701 126.54C230.701 124.98 231.961 123.72 233.461 123.72C235.021 123.72 236.221 124.98 236.221 126.48C236.221 128.04 235.021 129.3 233.461 129.3ZM233.461 124.32C232.261 124.32 231.301 125.28 231.301 126.48C231.301 127.68 232.261 128.7 233.461 128.7C234.661 128.7 235.621 127.74 235.621 126.54C235.681 125.28 234.661 124.32 233.461 124.32Z" fill="#00283C"/>
<path d="M134.221 98.0402C130.801 98.0402 128.041 95.2802 128.041 91.8602C128.041 88.4402 130.801 85.6802 134.221 85.6802C137.641 85.6802 140.401 88.4402 140.401 91.8602C140.461 95.2802 137.641 98.0402 134.221 98.0402ZM134.221 86.2802C131.101 86.2802 128.641 88.8002 128.641 91.8602C128.641 94.9802 131.161 97.4402 134.221 97.4402C137.341 97.4402 139.801 94.9202 139.801 91.8602C139.861 88.8002 137.341 86.2802 134.221 86.2802Z" fill="#00283C"/>
<path d="M226.562 109.26C222.182 109.26 218.642 112.8 218.642 117.18C218.642 112.8 215.102 109.26 210.722 109.26C215.102 109.26 218.642 105.72 218.642 101.34C218.642 105.72 222.182 109.26 226.562 109.26Z" fill="#5A3296"/>
<path d="M138.841 66.6002C134.461 66.6002 130.921 70.1402 130.921 74.5202C130.921 70.1402 127.381 66.6002 123.001 66.6002C127.381 66.6002 130.921 63.0602 130.921 58.6802C130.921 63.0602 134.461 66.6002 138.841 66.6002Z" fill="#5A3296"/>
</svg>
