<svg width="300" height="300" viewBox="0 0 300 300" fill="none" xmlns="http://www.w3.org/2000/svg">
<path d="M78.7802 128.88H196.8C198.78 128.88 200.34 130.44 200.34 132.42V210.3C200.34 212.28 198.78 213.84 196.8 213.84H78.7802C76.8002 213.84 75.2402 212.28 75.2402 210.3V132.42C75.2402 130.44 76.8602 128.88 78.7802 128.88Z" fill="#F5FF8C"/>
<path d="M196.86 214.14H78.7804C76.6804 214.14 74.9404 212.4 74.9404 210.3V132.42C74.9404 130.32 76.6804 128.58 78.7804 128.58H196.8C198.9 128.58 200.64 130.32 200.64 132.42V210.3C200.7 212.4 198.96 214.14 196.86 214.14ZM78.7804 129.18C76.9804 129.18 75.5404 130.62 75.5404 132.42V210.3C75.5404 212.1 76.9804 213.54 78.7804 213.54H196.8C198.6 213.54 200.04 212.1 200.04 210.3V132.42C200.04 130.62 198.6 129.18 196.8 129.18H78.7804Z" fill="#00283C"/>
<path d="M198.48 213.84H77.16C75.9 213.84 74.7 214.14 73.62 214.74L34.5 235.08H241.2L202.08 214.74C200.94 214.14 199.74 213.84 198.48 213.84Z" fill="#F5FF8C"/>
<path d="M241.14 235.32H34.5002C34.3202 235.32 34.2002 235.2 34.2002 235.02C34.2002 234.9 34.2602 234.84 34.3802 234.78L73.5002 214.44C74.6402 213.84 75.9002 213.54 77.2202 213.54H198.54C199.86 213.54 201.12 213.84 202.26 214.44L241.38 234.78C241.5 234.84 241.56 235.02 241.5 235.2C241.38 235.26 241.26 235.32 241.14 235.32ZM35.7002 234.72H239.94L201.9 214.98C200.82 214.44 199.68 214.14 198.48 214.14H77.1602C75.9602 214.14 74.8202 214.44 73.7402 214.98L35.7002 234.72Z" fill="#00283C"/>
<path d="M81.5401 132.9H194.1C194.88 132.9 195.54 133.56 195.54 134.34V208.38C195.54 209.16 194.88 209.82 194.1 209.82H81.5401C80.7601 209.82 80.1001 209.16 80.1001 208.38V134.34C80.1001 133.56 80.7601 132.9 81.5401 132.9Z" fill="#5A3296"/>
<path d="M194.1 210.06H81.5403C80.5803 210.06 79.8003 209.28 79.8003 208.32V134.34C79.8003 133.38 80.5803 132.6 81.5403 132.6H194.1C195.06 132.6 195.84 133.38 195.84 134.34V208.38C195.84 209.34 195.06 210.06 194.1 210.06ZM81.5403 133.2C80.9403 133.2 80.4003 133.68 80.4003 134.34V208.38C80.4003 208.98 80.8803 209.52 81.5403 209.52H194.1C194.7 209.52 195.24 209.04 195.24 208.38V134.34C195.24 133.74 194.76 133.2 194.1 133.2H81.5403Z" fill="#00283C"/>
<path d="M241.2 235.02H34.5V238.38H241.2V235.02Z" fill="#5A3296"/>
<path d="M241.14 238.68H34.5002C34.3202 238.68 34.2002 238.56 34.2002 238.38V235.02C34.2002 234.84 34.3202 234.72 34.5002 234.72H241.2C241.38 234.72 241.5 234.84 241.5 235.02V238.38C241.44 238.5 241.32 238.68 241.14 238.68ZM34.7402 238.08H240.84V235.32H34.8002L34.7402 238.08Z" fill="#00283C"/>
<path d="M116.58 227.76H159.66C160.62 227.76 161.52 228.18 162.18 228.84L167.82 235.02H108.48L114.12 228.84C114.72 228.12 115.62 227.76 116.58 227.76Z" fill="#F5FF8C"/>
<path d="M167.76 235.32H108.42C108.3 235.32 108.18 235.26 108.12 235.14C108.06 235.02 108.12 234.9 108.18 234.84L113.82 228.66C114.54 227.88 115.5 227.46 116.52 227.46H159.6C160.62 227.46 161.64 227.88 162.3 228.66L167.94 234.84C168 234.9 168.06 235.08 168 235.14C168 235.26 167.88 235.32 167.76 235.32ZM109.14 234.72H167.1L161.94 229.02C161.34 228.36 160.56 228 159.66 228H116.58C115.74 228 114.9 228.36 114.3 229.02L109.14 234.72Z" fill="#00283C"/>
<path d="M215.46 225.54H60.1802L76.1402 216.48H199.5L215.46 225.54Z" fill="#5A3296"/>
<path d="M215.46 225.84H60.18C60.06 225.84 59.94 225.78 59.88 225.6C59.82 225.48 59.88 225.36 60 225.24L75.96 216.18C76.02 216.18 76.08 216.12 76.08 216.12H199.44C199.5 216.12 199.56 216.12 199.56 216.18L215.52 225.24C215.64 225.3 215.7 225.42 215.64 225.6C215.7 225.72 215.58 225.84 215.46 225.84ZM61.32 225.24H214.32L199.44 216.78H76.26L61.32 225.24Z" fill="#00283C"/>
<path d="M74.28 225.84C74.16 225.84 74.1 225.78 74.04 225.72C73.92 225.6 73.98 225.42 74.1 225.3L87.18 216.24C87.3 216.12 87.48 216.18 87.6 216.3C87.72 216.42 87.66 216.6 87.54 216.72L74.46 225.78C74.46 225.84 74.4 225.84 74.28 225.84Z" fill="#00283C"/>
<path d="M88.4403 225.84C88.3803 225.84 88.2604 225.78 88.2004 225.72C88.0804 225.6 88.0804 225.42 88.2004 225.3L98.4004 216.24C98.5204 216.12 98.7003 216.12 98.8203 216.24C98.9403 216.36 98.9403 216.54 98.8203 216.66L88.6804 225.72C88.5604 225.78 88.5003 225.84 88.4403 225.84Z" fill="#00283C"/>
<path d="M102.54 225.84C102.48 225.84 102.42 225.84 102.36 225.78C102.24 225.66 102.24 225.48 102.3 225.36L109.56 216.3C109.68 216.18 109.86 216.18 109.98 216.24C110.1 216.36 110.1 216.54 110.04 216.66L102.78 225.72C102.72 225.78 102.6 225.84 102.54 225.84Z" fill="#00283C"/>
<path d="M116.64 225.84C116.58 225.84 116.58 225.84 116.52 225.84C116.34 225.78 116.28 225.6 116.4 225.42L120.72 216.36C120.78 216.18 120.96 216.12 121.14 216.24C121.32 216.3 121.38 216.48 121.26 216.66L116.88 225.72C116.88 225.78 116.76 225.84 116.64 225.84Z" fill="#00283C"/>
<path d="M130.74 225.84C130.5 225.84 130.44 225.66 130.44 225.48L131.88 216.42C131.88 216.24 132.06 216.12 132.24 216.18C132.42 216.18 132.54 216.36 132.48 216.54L131.04 225.66C131.04 225.72 130.92 225.84 130.74 225.84Z" fill="#00283C"/>
<path d="M144.9 225.84C144.78 225.84 144.6 225.72 144.6 225.6L143.16 216.54C143.16 216.36 143.22 216.24 143.4 216.18C143.58 216.18 143.7 216.24 143.76 216.42L145.26 225.48C145.26 225.66 145.2 225.78 145.02 225.84H144.9Z" fill="#00283C"/>
<path d="M159 225.84C158.88 225.84 158.76 225.78 158.7 225.66L154.32 216.6C154.26 216.42 154.32 216.24 154.44 216.18C154.62 216.12 154.8 216.18 154.86 216.3L159.18 225.36C159.24 225.48 159.18 225.66 159.06 225.78C159.06 225.84 159.06 225.84 159 225.84Z" fill="#00283C"/>
<path d="M173.1 225.84C172.98 225.84 172.92 225.78 172.86 225.72L165.6 216.66C165.48 216.54 165.54 216.36 165.66 216.24C165.78 216.12 165.96 216.18 166.08 216.3L173.34 225.36C173.46 225.48 173.4 225.66 173.28 225.78C173.22 225.78 173.16 225.84 173.1 225.84Z" fill="#00283C"/>
<path d="M187.2 225.84C187.14 225.84 187.08 225.84 187.02 225.78L176.88 216.72C176.76 216.6 176.76 216.42 176.88 216.3C177 216.18 177.18 216.18 177.3 216.3L187.44 225.36C187.56 225.48 187.56 225.66 187.44 225.78C187.32 225.78 187.26 225.84 187.2 225.84Z" fill="#00283C"/>
<path d="M201.3 225.84C201.24 225.84 201.18 225.84 201.12 225.78L188.04 216.72C187.92 216.6 187.86 216.42 187.98 216.3C188.1 216.18 188.28 216.12 188.4 216.24L201.48 225.3C201.6 225.42 201.66 225.6 201.54 225.72C201.54 225.78 201.42 225.84 201.3 225.84Z" fill="#00283C"/>
<path d="M203.28 218.94H72.3601C72.1801 218.94 72.0601 218.82 72.0601 218.64C72.0601 218.46 72.1801 218.34 72.3601 218.34H203.34C203.52 218.34 203.64 218.46 203.64 218.64C203.64 218.82 203.46 218.94 203.28 218.94Z" fill="#00283C"/>
<path d="M209.52 222.6H65.5202C65.3402 222.6 65.2202 222.48 65.2202 222.3C65.2202 222.12 65.3402 222 65.5202 222H209.58C209.76 222 209.88 222.12 209.88 222.3C209.88 222.48 209.7 222.6 209.52 222.6Z" fill="#00283C"/>
<path d="M91.5 190.38H220.38C220.98 190.38 221.46 189.9 221.46 189.3V150C221.46 149.4 220.98 148.92 220.38 148.92H98.04C97.44 148.92 96.96 149.4 96.96 150V182.88C96.96 183.18 96.84 183.54 96.54 183.72L90.78 188.46C90.3 188.88 90.3 189.54 90.72 190.02C90.9 190.26 91.2 190.38 91.5 190.38Z" fill="#F5FF8C"/>
<path d="M220.38 190.68H91.5001C90.7201 190.68 90.1201 190.02 90.1201 189.3C90.1201 188.88 90.3001 188.52 90.6001 188.22L96.3601 183.48C96.5401 183.36 96.6601 183.12 96.6601 182.88V150C96.6601 149.22 97.2601 148.62 98.0401 148.62H220.38C221.16 148.62 221.76 149.22 221.76 150V189.3C221.76 190.08 221.16 190.68 220.38 190.68ZM98.0401 149.16C97.6201 149.16 97.2601 149.52 97.2601 149.94V182.82C97.2601 183.24 97.0801 183.66 96.7201 183.9L90.9601 188.64C90.6001 188.94 90.5401 189.42 90.8401 189.78C91.0201 189.96 91.2001 190.08 91.4401 190.08H220.32C220.74 190.08 221.1 189.72 221.1 189.3V150C221.1 149.58 220.74 149.22 220.32 149.22L98.0401 149.16Z" fill="#00283C"/>
<path d="M121.98 183.3C129.536 183.3 135.66 177.175 135.66 169.62C135.66 162.065 129.536 155.94 121.98 155.94C114.425 155.94 108.3 162.065 108.3 169.62C108.3 177.175 114.425 183.3 121.98 183.3Z" fill="#F5FF8C"/>
<path d="M121.98 183.6C114.24 183.6 108 177.36 108 169.62C108 161.88 114.24 155.64 121.98 155.64C129.72 155.64 135.96 161.88 135.96 169.62C135.96 177.36 129.72 183.6 121.98 183.6ZM121.98 156.24C114.6 156.24 108.6 162.24 108.6 169.62C108.6 177 114.6 183 121.98 183C129.36 183 135.36 177 135.36 169.62C135.36 162.24 129.36 156.24 121.98 156.24Z" fill="#00283C"/>
<path d="M128.52 171.12C128.46 171.12 128.4 171.12 128.34 171.06L124.38 167.7C124.32 167.64 124.26 167.58 124.26 167.46C124.26 167.4 124.26 167.28 124.32 167.22L128.28 163.44C128.4 163.32 128.58 163.32 128.7 163.44C128.82 163.56 128.82 163.74 128.7 163.86L124.98 167.4L128.7 170.52C128.82 170.64 128.82 170.82 128.76 170.94C128.7 171.06 128.58 171.12 128.52 171.12Z" fill="#00283C"/>
<path d="M115.44 171.12C115.38 171.12 115.26 171.06 115.2 171C115.08 170.88 115.14 170.7 115.26 170.58L118.98 167.46L115.26 163.92C115.14 163.8 115.14 163.62 115.26 163.5C115.38 163.38 115.56 163.38 115.68 163.5L119.64 167.28C119.7 167.34 119.76 167.4 119.76 167.52C119.76 167.58 119.7 167.7 119.64 167.76L115.68 171.12C115.56 171.12 115.5 171.12 115.44 171.12Z" fill="#00283C"/>
<path d="M130.56 173.64H114.48C114.48 173.64 115.56 180.48 122.52 180.48C129.48 180.48 130.56 173.64 130.56 173.64Z" fill="#F5FF8C"/>
<path d="M122.52 180.78C115.38 180.78 114.18 173.76 114.18 173.7C114.18 173.64 114.18 173.52 114.24 173.46C114.3 173.4 114.36 173.34 114.48 173.34H130.56C130.62 173.34 130.74 173.4 130.8 173.46C130.86 173.52 130.86 173.64 130.86 173.7C130.86 173.76 129.66 180.78 122.52 180.78ZM114.84 173.94C115.14 175.32 116.7 180.18 122.52 180.18C128.34 180.18 129.84 175.32 130.2 173.94H114.84Z" fill="#00283C"/>
<path d="M119.16 173.64H125.88V178.44C125.88 180.3 124.38 181.8 122.52 181.8C120.66 181.8 119.16 180.3 119.16 178.44V173.64Z" fill="#5A3296"/>
<path d="M122.52 182.16C120.48 182.16 118.86 180.54 118.86 178.5V173.7C118.86 173.52 118.98 173.4 119.16 173.4H125.88C126.06 173.4 126.18 173.52 126.18 173.7V178.5C126.18 180.48 124.56 182.16 122.52 182.16ZM119.46 173.94V178.44C119.4 180.12 120.72 181.56 122.4 181.62C124.08 181.68 125.52 180.36 125.58 178.68C125.58 178.56 125.58 178.5 125.58 178.38V173.88H119.46V173.94Z" fill="#00283C"/>
<path d="M122.52 179.46C122.34 179.46 122.22 179.34 122.22 179.16V173.64C122.22 173.46 122.34 173.34 122.52 173.34C122.7 173.34 122.82 173.46 122.82 173.64V179.16C122.82 179.34 122.7 179.46 122.52 179.46Z" fill="#00283C"/>
<path d="M178.8 163.98H145.8C145.62 163.98 145.5 163.86 145.5 163.68C145.5 163.5 145.62 163.38 145.8 163.38H178.8C178.98 163.38 179.1 163.5 179.1 163.68C179.1 163.86 178.98 163.98 178.8 163.98Z" fill="#00283C"/>
<path d="M207.06 171.66H145.8C145.62 171.66 145.5 171.54 145.5 171.36C145.5 171.18 145.62 171.06 145.8 171.06H207.06C207.24 171.06 207.36 171.18 207.36 171.36C207.36 171.54 207.24 171.66 207.06 171.66Z" fill="#00283C"/>
<path d="M207.06 179.28H145.8C145.62 179.28 145.5 179.16 145.5 178.98C145.5 178.8 145.62 178.68 145.8 178.68H207.06C207.24 178.68 207.36 178.8 207.36 178.98C207.36 179.16 207.24 179.28 207.06 179.28Z" fill="#00283C"/>
<path d="M112.92 144.36L106.8 141C106.44 140.82 106.02 140.7 105.66 140.7H61.2599C59.9399 140.7 58.8599 139.62 58.8599 138.3V87.9C58.8599 86.58 59.9399 85.5 61.2599 85.5H112.98C114.3 85.5 115.38 86.58 115.38 87.9V142.86C115.38 143.82 114.66 144.54 113.7 144.54C113.4 144.6 113.16 144.54 112.92 144.36Z" fill="#F5FF8C"/>
<path d="M113.7 144.9C113.34 144.9 113.04 144.84 112.74 144.66L106.62 141.3C106.32 141.12 105.96 141.06 105.6 141.06H61.2C59.7 141.06 58.5 139.86 58.5 138.36V87.9598C58.5 86.4598 59.7 85.2598 61.2 85.2598H112.92C114.42 85.2598 115.62 86.4598 115.62 87.9598V142.92C115.62 143.64 115.26 144.3 114.66 144.66C114.42 144.78 114.06 144.9 113.7 144.9ZM113.04 144.12C113.46 144.36 114 144.36 114.42 144.12C114.84 143.88 115.08 143.4 115.08 142.92V87.8998C115.08 86.7598 114.12 85.7998 112.98 85.7998H61.26C60.12 85.7998 59.16 86.7598 59.16 87.8998V138.3C59.16 139.44 60.12 140.4 61.26 140.4H105.66C106.14 140.4 106.56 140.52 106.98 140.76L113.04 144.12Z" fill="#00283C"/>
<path d="M87.12 106.92H104.64V125.58H76.2C76.2 125.58 73.56 124.98 73.38 123.24C73.2 121.5 73.98 120.84 73.98 120.84C73.98 120.84 69.9 119.04 72.18 114.84C72.18 114.84 68.58 113.64 70.26 110.1C69.48 110.16 68.7 110.16 67.98 109.92C67.14 109.62 66.72 108.72 67.02 107.94C67.26 107.28 67.86 106.86 68.52 106.86H76.68C76.68 106.86 75.78 95.3999 78.48 94.4999C81.18 93.5999 83.04 106.56 87.12 106.92Z" fill="#F5FF8C"/>
<path d="M104.58 125.94H76.1402C76.0202 125.94 73.2602 125.28 73.0802 123.36C72.9602 122.58 73.1402 121.74 73.5002 121.02C72.5402 120.48 71.7602 119.58 71.3402 118.56C70.9802 117.42 71.1002 116.16 71.7002 115.14C70.8002 114.78 70.0802 114.06 69.7202 113.22C69.4202 112.38 69.4202 111.42 69.7802 110.58C69.1202 110.58 68.5202 110.52 67.8602 110.34C66.9602 110.1 66.4802 109.2 66.6002 108.3C66.7202 107.4 67.5002 106.68 68.4602 106.68H76.3202C76.2002 104.52 75.6602 95.2197 78.3602 94.3197C79.9202 93.7797 81.0002 96.4797 82.2602 99.5997C83.5202 102.72 85.0202 106.44 87.0002 106.62H104.52C104.7 106.62 104.82 106.74 104.82 106.92V125.58C104.88 125.82 104.76 125.94 104.58 125.94ZM76.2602 125.34H104.34V107.22H87.1202C84.7802 107.04 83.2202 103.2 81.8402 99.8397C80.7602 97.2597 79.6802 94.5597 78.6602 94.8597C77.9402 95.0997 76.3202 97.6797 77.0402 106.92C77.0402 106.98 77.0402 107.1 76.9802 107.16C76.9202 107.22 76.8602 107.28 76.7402 107.28H68.5802C67.9202 107.28 67.3802 107.76 67.3202 108.36C67.2002 108.96 67.5602 109.56 68.1602 109.74C68.8802 109.92 69.6002 109.98 70.3202 109.92C70.4402 109.92 70.5602 109.98 70.6202 110.04C70.6802 110.16 70.6802 110.28 70.6202 110.34C70.1402 111.12 70.0802 112.08 70.3802 112.92C70.8002 113.76 71.5202 114.36 72.3602 114.66C72.5402 114.72 72.6002 114.9 72.5402 115.08C72.5402 115.08 72.5402 115.08 72.5402 115.14C71.9402 116.1 71.7602 117.3 72.0602 118.38C72.4802 119.4 73.2602 120.18 74.2202 120.66C74.3402 120.72 74.4002 120.78 74.4002 120.9C74.4002 121.02 74.4002 121.08 74.2802 121.14C74.2802 121.14 73.6202 121.74 73.8002 123.3C73.8602 124.68 75.9602 125.28 76.2602 125.34Z" fill="#00283C"/>
<path d="M104.58 106.92H95.3999V125.58H104.58V106.92Z" fill="#5A3296"/>
<path d="M104.58 125.94H95.4001C95.2201 125.94 95.1001 125.82 95.1001 125.64V106.92C95.1001 106.74 95.2201 106.62 95.4001 106.62H104.58C104.76 106.62 104.88 106.74 104.88 106.92V125.58C104.88 125.82 104.76 125.94 104.58 125.94ZM95.7001 125.34H104.28V107.22H95.7001V125.34Z" fill="#00283C"/>
<path d="M130.44 123.9L137.76 117.42C138.6 116.7 139.68 116.28 140.82 116.28H234.18C236.76 116.28 238.86 114.18 238.86 111.6V67.8602C238.86 65.2802 236.76 63.1802 234.18 63.1802H133.2C130.62 63.1802 128.52 65.2802 128.52 67.8602V123C128.58 123.66 129.12 124.14 129.78 124.14C130.08 124.14 130.26 124.08 130.44 123.9Z" fill="#F5FF8C"/>
<path d="M129.72 124.5C129.54 124.5 129.3 124.44 129.12 124.38C128.58 124.14 128.28 123.6 128.28 123.06V67.9199C128.28 65.1599 130.5 62.9999 133.26 62.9399H234.36C237.12 62.9399 239.28 65.1599 239.34 67.9199V111.6C239.34 114.36 237.12 116.58 234.36 116.58H140.88C139.8 116.58 138.78 116.94 138 117.66L130.68 124.14C130.38 124.38 130.08 124.5 129.72 124.5ZM133.2 63.5399C130.8 63.5399 128.82 65.5199 128.82 67.9199V123.06C128.82 123.42 129 123.72 129.36 123.84C129.66 123.96 130.02 123.9 130.32 123.72L137.64 117.24C138.54 116.46 139.68 115.98 140.94 115.98H234.3C236.7 115.98 238.68 114 238.68 111.6V67.8599C238.68 65.4599 236.7 63.4799 234.3 63.4799L133.2 63.5399Z" fill="#00283C"/>
<path d="M207.3 83.5199H182.16C181.98 83.5199 181.86 83.3999 181.86 83.2199C181.86 83.0399 181.98 82.9199 182.16 82.9199H207.3C207.48 82.9199 207.6 83.0399 207.6 83.2199C207.6 83.3999 207.48 83.5199 207.3 83.5199Z" fill="#00283C"/>
<path d="M228.84 91.2001H182.1C181.92 91.2001 181.8 91.0801 181.8 90.9001C181.8 90.7201 181.92 90.6001 182.1 90.6001H228.84C229.02 90.6001 229.14 90.7201 229.14 90.9001C229.14 91.0801 229.02 91.2001 228.84 91.2001Z" fill="#00283C"/>
<path d="M228.84 98.8197H182.1C181.92 98.8197 181.8 98.6997 181.8 98.5197C181.8 98.3397 181.92 98.2197 182.1 98.2197H228.84C229.02 98.2197 229.14 98.3397 229.14 98.5197C229.14 98.6997 229.02 98.8197 228.84 98.8197Z" fill="#00283C"/>
<path d="M175.969 94.3621C177.911 84.2745 171.308 74.5222 161.221 72.5796C151.133 70.6371 141.381 77.24 139.438 87.3276C137.496 97.4152 144.099 107.168 154.186 109.11C164.274 111.053 174.026 104.45 175.969 94.3621Z" fill="#F5FF8C"/>
<path d="M157.74 109.8C147.3 109.8 138.84 101.34 138.84 90.9C138.84 80.46 147.3 72 157.74 72C168.18 72 176.64 80.46 176.64 90.9C176.64 101.34 168.18 109.8 157.74 109.8ZM157.74 72.6C147.66 72.6 139.44 80.76 139.44 90.9C139.44 101.04 147.6 109.2 157.74 109.2C167.88 109.2 176.04 101.04 176.04 90.9C175.98 80.82 167.82 72.6 157.74 72.6Z" fill="#00283C"/>
<path d="M168 86.9401C167.88 86.9401 167.76 86.8801 167.7 86.7001C166.92 84.1201 165.66 82.5601 164.34 82.6201C163.02 82.6801 161.94 84.2401 161.46 86.7001C161.46 86.8801 161.28 86.9401 161.1 86.9401C160.92 86.8801 160.86 86.7601 160.86 86.5801C161.4 83.8201 162.66 82.0801 164.28 82.0201C165.9 81.9601 167.4 83.6401 168.24 86.5201C168.3 86.7001 168.18 86.8201 168.06 86.8801L168 86.9401Z" fill="#00283C"/>
<path d="M153.9 86.9401C153.78 86.9401 153.66 86.8801 153.6 86.7001C152.82 84.1201 151.56 82.5601 150.24 82.6201C148.92 82.6801 147.84 84.2401 147.36 86.7001C147.36 86.8801 147.18 86.9401 147 86.9401C146.82 86.8801 146.76 86.7601 146.76 86.5801C147.3 83.8201 148.56 82.0801 150.18 82.0201C151.8 81.9601 153.3 83.6401 154.14 86.5201C154.2 86.7001 154.08 86.8201 153.96 86.8801L153.9 86.9401Z" fill="#00283C"/>
<path d="M168.3 98.04C167.28 99.84 165.72 101.22 163.8 102C163.74 101.82 162.48 98.16 157.74 98.16C153 98.16 151.74 101.82 151.68 102C149.82 101.22 148.2 99.84 147.18 98.1L168.3 98.04Z" fill="#00283C"/>
<path d="M163.8 102.3C163.74 102.3 163.74 102.3 163.68 102.3C163.62 102.24 163.56 102.18 163.5 102.12C163.38 101.76 162.18 98.4599 157.68 98.4599C153.18 98.4599 151.98 101.76 151.86 102.12C151.8 102.3 151.62 102.36 151.5 102.3C151.5 102.3 151.5 102.3 151.44 102.3C149.52 101.52 147.84 100.08 146.82 98.2799C146.76 98.1599 146.76 98.0999 146.82 97.9799C146.88 97.8599 147 97.8599 147.06 97.8599H168.24C168.36 97.8599 168.42 97.9199 168.48 97.9799C168.54 98.0999 168.54 98.1599 168.48 98.2799C167.4 100.08 165.78 101.52 163.86 102.3C163.86 102.3 163.86 102.3 163.8 102.3ZM147.66 98.3399C148.62 99.7199 149.88 100.86 151.44 101.58C152.1 100.14 153.24 98.9999 154.74 98.3399H147.66ZM160.68 98.3399C162.18 98.9399 163.32 100.08 163.98 101.58C165.54 100.86 166.86 99.7799 167.76 98.3399H160.68Z" fill="#00283C"/>
<path d="M169.62 94.2601C169.44 95.5801 169.02 96.9001 168.3 98.1001H147.18C146.52 96.9001 146.04 95.6401 145.86 94.2601C145.8 93.6601 146.16 93.1801 146.76 93.0601C146.82 93.0601 146.88 93.0601 146.94 93.0601H168.6C169.2 93.0601 169.68 93.5401 169.68 94.0801C169.62 94.1401 169.62 94.2001 169.62 94.2601Z" fill="#F5FF8C"/>
<path d="M168.3 98.3398H147.18C147.06 98.3398 147 98.2798 146.94 98.2198C146.22 97.0198 145.8 95.6398 145.62 94.2598C145.5 93.5398 146.04 92.8198 146.82 92.7598C146.88 92.7598 146.94 92.7598 147 92.7598H168.66C169.38 92.7598 170.04 93.3598 170.04 94.1398C170.04 94.1998 170.04 94.2598 170.04 94.3198C169.86 95.6998 169.38 97.0198 168.72 98.2798C168.48 98.2798 168.42 98.3398 168.3 98.3398ZM147.36 97.7398H168.18C168.78 96.6598 169.2 95.3998 169.38 94.1998C169.44 93.9598 169.38 93.7798 169.2 93.5998C169.02 93.4198 168.84 93.3598 168.6 93.3598H146.94C146.7 93.3598 146.52 93.4798 146.4 93.5998C146.28 93.7798 146.16 93.9598 146.22 94.1998C146.34 95.4598 146.7 96.6598 147.36 97.7398Z" fill="#00283C"/>
<path d="M163.8 102C159.9 103.5 155.58 103.5 151.62 102C151.68 101.82 152.94 98.1602 157.68 98.1602C162.48 98.1602 163.74 101.82 163.8 102Z" fill="#5A3296"/>
<path d="M157.74 103.38C155.64 103.44 153.48 103.02 151.56 102.24C151.44 102.18 151.32 102 151.38 101.88C151.5 101.46 152.88 97.7998 157.74 97.7998C162.6 97.7998 163.98 101.46 164.1 101.88C164.16 102 164.1 102.18 163.92 102.24C161.94 103.08 159.84 103.44 157.74 103.38ZM152.04 101.82C155.7 103.14 159.78 103.14 163.44 101.82C163.08 100.92 161.64 98.3998 157.74 98.3998C153.84 98.3998 152.4 100.92 152.04 101.82Z" fill="#00283C"/>
</svg>
