<svg width="300" height="300" viewBox="0 0 300 300" fill="none" xmlns="http://www.w3.org/2000/svg">
<path d="M231.9 219.72V85.6799C231.9 82.4999 229.74 79.6799 226.68 78.8399L110.82 47.1599C107.04 46.1399 103.14 48.3599 102.12 52.1399C101.94 52.7399 101.88 53.3999 101.88 54.0599V173.34L231.9 219.72Z" fill="#F5FF8C"/>
<path d="M231.9 220.02C231.84 220.02 231.84 220.02 231.78 220.02L101.76 173.52C101.64 173.46 101.58 173.34 101.58 173.22V54.0001C101.58 49.9201 104.88 46.6201 108.96 46.6201C109.62 46.6201 110.28 46.6801 110.88 46.8601L226.74 78.6001C229.92 79.5001 232.14 82.3801 232.2 85.6801V219.72C232.2 219.84 232.14 219.9 232.08 219.96C232.02 220.02 231.96 220.02 231.9 220.02ZM102.18 173.04L231.6 219.3V85.6801C231.6 82.6201 229.56 79.9801 226.62 79.1401L110.76 47.4601C107.16 46.5001 103.44 48.6001 102.42 52.2001C102.24 52.8001 102.18 53.4001 102.18 54.0001V173.04Z" fill="#00283C"/>
<path d="M115.2 257.28H89.58L81.66 229.2L74.7 257.28H53.04C53.04 257.28 58.14 222.54 60.18 209.7L101.88 211.2L115.2 257.28Z" fill="#F5FF8C"/>
<path d="M115.2 257.58H89.5802C89.4602 257.58 89.3402 257.52 89.2802 257.34L81.6602 230.34L75.0002 257.4C74.9402 257.52 74.8202 257.64 74.7002 257.64H53.0402C52.9802 257.64 52.8602 257.58 52.8002 257.52C52.7402 257.46 52.7402 257.34 52.7402 257.28C52.8002 256.92 57.8402 222.42 59.8802 209.7C59.8802 209.52 60.0602 209.46 60.1802 209.46L101.88 210.96C102 210.96 102.12 211.08 102.18 211.2L115.5 257.28C115.5 257.4 115.5 257.46 115.44 257.52C115.38 257.58 115.26 257.58 115.2 257.58ZM89.8202 256.98H114.78L101.64 211.5L60.4202 210C58.5002 222.24 53.9402 253.32 53.4002 256.98H74.5202L81.4202 229.08C81.4802 228.96 81.6002 228.84 81.7202 228.84C81.8402 228.84 81.9602 228.9 82.0202 229.08L89.8202 256.98Z" fill="#00283C"/>
<path d="M124.201 153.24C121.981 153.06 116.461 158.46 113.881 162C111.301 165.54 108.541 168.84 108.541 168.84C108.541 168.84 90.0007 154.98 80.3407 154.98C70.6807 154.98 69.2407 153.42 65.3407 161.88C61.4407 170.34 54.6607 184.8 56.3407 188.34C57.3607 190.5 58.7407 192.42 60.5407 193.98L57.4807 208.8C57.0607 210.78 58.2007 212.7 60.0607 213.36C66.2407 215.4 80.8207 218.7 101.281 214.02C103.321 213.54 104.641 211.56 104.281 209.52L99.1807 180.18C99.1807 180.18 106.921 185.22 113.341 183.06C119.761 180.9 131.101 161.82 131.341 160.8C131.461 159.96 131.341 159.06 131.041 158.28C131.041 158.28 126.181 153.18 124.201 153.24Z" fill="#5A3296"/>
<path d="M95.82 129.72C97.86 125.88 97.68 122.34 97.2 121.62C96.72 120.9 86.16 113.82 76.02 120.66C65.88 127.5 59.58 146.88 60.6 149.16C61.62 151.44 70.5 156.6 78.36 155.94C86.22 155.28 90.18 152.7 90.18 152.7C89.04 151.68 88.08 150.48 87.36 149.1C86.46 147.18 95.82 129.72 95.82 129.72Z" fill="#F5FF8C"/>
<path d="M76.9804 156.3C69.3604 156.3 61.3204 151.44 60.3604 149.28C59.3404 146.94 65.5204 127.5 75.9004 120.42C79.9204 117.66 84.8404 116.76 89.5804 117.78C94.0804 118.74 97.2004 120.96 97.5004 121.38C98.1004 122.34 98.1004 126.06 96.1204 129.84C92.5204 136.5 87.0004 147.66 87.6004 148.98C88.3204 150.3 89.2204 151.5 90.3604 152.46C90.4204 152.52 90.4804 152.64 90.4804 152.7C90.4804 152.82 90.4204 152.88 90.3604 152.94C90.1804 153.06 86.2204 155.58 78.4204 156.24C77.9404 156.3 77.4604 156.3 76.9804 156.3ZM85.6204 118.02C82.2604 118.02 78.9604 119.04 76.2004 120.96C66.1204 127.8 60.0004 147.12 60.9004 149.04C61.8604 151.2 70.7404 156.3 78.3604 155.7C84.7204 155.16 88.5604 153.3 89.7004 152.7C88.6204 151.74 87.7804 150.6 87.1204 149.28C86.2204 147.3 94.0804 132.54 95.6404 129.6C97.6204 125.82 97.4404 122.4 97.0204 121.74C96.6604 121.32 91.8004 118.02 85.6204 118.02Z" fill="#00283C"/>
<path d="M95.0403 126.96C95.0403 126.96 96.6603 132.54 97.0803 135.72C97.0803 135.72 98.8803 135.72 99.0603 137.04C99.2403 138.36 97.0203 138.66 97.0203 138.66C97.0203 138.66 97.6803 144.42 95.2203 147C92.7603 149.58 87.2403 149.1 87.2403 149.1C87.2403 149.1 83.3403 142.44 86.7603 137.16C90.1803 131.88 93.6603 129.42 95.0403 126.96Z" fill="#F5FF8C"/>
<path d="M88.3803 149.46C87.7803 149.46 87.3602 149.4 87.3002 149.4C87.1802 149.4 87.1203 149.34 87.0603 149.28C86.8803 148.98 83.1003 142.38 86.5803 137.04C88.2003 134.64 90.0002 132.3 92.0402 130.2C93.0602 129.18 94.0202 128.04 94.8002 126.78C94.8602 126.66 95.0402 126.6 95.2202 126.66C95.2802 126.72 95.3402 126.78 95.3402 126.84C95.3402 126.9 96.9003 132.18 97.3803 135.42C97.9203 135.48 99.2402 135.72 99.4202 136.98C99.4802 137.34 99.4203 137.64 99.1803 137.94C98.7003 138.48 98.0403 138.78 97.3803 138.9C97.5003 140.1 97.7402 144.9 95.5202 147.24C93.6602 149.16 90.1203 149.46 88.3803 149.46ZM87.4803 148.86C88.3803 148.92 93.0002 149.04 95.1002 146.82C97.4402 144.42 96.7803 138.78 96.7803 138.72C96.7803 138.54 96.9002 138.42 97.0202 138.36C97.6202 138.3 98.2202 138 98.7002 137.58C98.8202 137.46 98.8802 137.28 98.8202 137.04C98.6402 136.02 97.1403 135.96 97.0803 135.96C96.9603 135.96 96.7803 135.84 96.7803 135.72C96.4203 133.2 95.3402 129.18 94.9202 127.62C94.1402 128.64 93.3603 129.6 92.4603 130.56C90.4803 132.66 88.6803 134.94 87.0603 137.34C84.1203 141.96 87.0003 147.84 87.4803 148.86Z" fill="#00283C"/>
<path d="M94.2598 142.68C92.6998 142.68 91.2598 141.72 90.7198 140.28C90.6598 140.1 90.7198 139.98 90.8398 139.86C90.9598 139.8 91.1398 139.86 91.2598 139.98C91.7398 141.3 93.0598 142.08 94.4398 142.02C94.6198 142.02 94.7398 142.14 94.7998 142.26C94.7998 142.44 94.6798 142.56 94.5598 142.62C94.3798 142.68 94.3198 142.68 94.2598 142.68Z" fill="#00283C"/>
<path d="M95.5801 132.36C95.4601 132.3 95.3401 132.24 95.2201 132.24C95.0401 132.18 94.9201 132.18 94.7401 132.18C94.3801 132.18 94.0801 132.24 93.7801 132.3C93.1201 132.54 92.4601 132.84 91.9201 133.26C91.8001 133.38 91.6201 133.32 91.5001 133.2C91.4401 133.08 91.4401 132.96 91.5001 132.84C91.7401 132.48 92.0401 132.18 92.3401 131.88C92.7001 131.58 93.1201 131.4 93.5401 131.28C93.9601 131.16 94.4401 131.16 94.9201 131.22C95.1601 131.28 95.3401 131.34 95.5801 131.46C95.8201 131.58 96.0601 131.76 96.1801 132C96.2401 132.12 96.1801 132.3 96.0601 132.36C96.0001 132.42 95.9401 132.42 95.8201 132.36H95.5801Z" fill="#00283C"/>
<path d="M93.66 134.94C93.72 135.6 94.14 136.08 94.62 136.02C95.1 135.96 95.34 135.42 95.28 134.76C95.28 134.58 95.22 134.4 95.1 134.22L94.38 134.7L94.62 133.74C94.5 133.68 94.44 133.68 94.32 133.68C93.9 133.74 93.6 134.28 93.66 134.94Z" fill="#00283C"/>
<path d="M95.04 126.96C96.36 124.92 96.48 123.78 96.48 123.78Z" fill="#F5FF8C"/>
<path d="M95.0403 127.26C94.9803 127.26 94.9203 127.26 94.8603 127.2C94.7403 127.14 94.6803 126.96 94.7403 126.78C96.0003 124.86 96.1203 123.78 96.1203 123.78C96.1203 123.6 96.2403 123.48 96.4203 123.48C96.6003 123.48 96.7203 123.6 96.7203 123.78C96.7203 123.84 96.6003 124.98 95.2803 127.08C95.2803 127.2 95.1603 127.26 95.0403 127.26Z" fill="#00283C"/>
<path d="M124.2 153.24C124.98 151.56 125.58 149.82 125.94 148.08C126.48 145.32 126.9 144.42 127.92 144.42C128.94 144.42 129.18 147.18 129.18 147.18C130.74 145.74 132.24 144.18 133.62 142.56C135.66 140.1 137.28 137.76 138.18 138.36C139.08 138.96 137.82 141 136.5 142.8C135.18 144.6 134.58 145.74 134.58 145.74C134.58 145.74 136.56 146.16 136.02 147.54C136.02 147.54 137.88 148.74 137.28 150.06C137.28 150.06 138.6 151.62 137.88 153.12C137.16 154.62 135.42 155.46 133.74 156.3C132.72 156.78 131.76 157.44 130.98 158.22C131.04 158.28 126.9 153.78 124.2 153.24Z" fill="#F5FF8C"/>
<path d="M131.04 158.58C130.98 158.58 130.86 158.52 130.8 158.46C130.74 158.4 126.66 154.02 124.14 153.54C124.02 153.54 123.96 153.48 123.9 153.36C123.84 153.3 123.84 153.18 123.9 153.12C124.68 151.5 125.28 149.76 125.64 148.02C126.18 145.32 126.6 144.12 127.8 144.12H127.86C128.76 144.18 129.18 145.68 129.36 146.58C130.74 145.26 132.12 143.88 133.32 142.38C133.62 142.02 133.92 141.66 134.22 141.3C136.02 139.08 137.34 137.46 138.3 138.12C138.54 138.24 138.66 138.48 138.72 138.72C138.9 139.62 138.06 141.06 136.74 142.98C135.9 144.18 135.3 145.14 135.06 145.56C135.54 145.74 136.02 146.04 136.32 146.46C136.5 146.76 136.5 147.06 136.44 147.42C136.92 147.78 138.12 148.86 137.7 150.06C138.06 150.48 138.9 151.86 138.24 153.3C137.52 154.86 135.78 155.76 134.1 156.6L134.04 156.66C133.08 157.14 132.12 157.8 131.34 158.52C131.22 158.52 131.16 158.58 131.04 158.58ZM124.62 153.06C127.02 153.78 130.2 156.96 131.04 157.86C131.82 157.14 132.72 156.54 133.68 156.06L133.74 156C135.36 155.22 136.98 154.38 137.64 153C138.3 151.62 137.1 150.24 137.1 150.24C137.04 150.18 137.04 150 137.04 149.94C137.52 148.86 135.9 147.78 135.9 147.78C135.78 147.72 135.72 147.54 135.78 147.42C135.9 147.24 135.9 146.94 135.78 146.76C135.48 146.4 135.06 146.1 134.58 146.04C134.46 146.04 134.4 145.98 134.34 145.86C134.28 145.8 134.28 145.68 134.34 145.62C134.4 145.56 135 144.48 136.26 142.68C136.86 141.78 138.3 139.68 138.12 138.84C138.12 138.72 138 138.66 137.94 138.6C137.4 138.24 135.96 140.1 134.64 141.66C134.34 142.02 134.04 142.38 133.74 142.74C132.36 144.36 130.86 145.92 129.3 147.42C129.24 147.48 129.12 147.54 129 147.48C128.88 147.42 128.82 147.36 128.82 147.24C128.7 146.22 128.28 144.78 127.86 144.72H127.8C127.2 144.72 126.78 145.26 126.18 148.14C125.88 149.82 125.34 151.5 124.62 153.06Z" fill="#00283C"/>
<path d="M127.74 148.98C127.68 148.98 127.56 148.98 127.5 148.92C127.38 148.8 127.38 148.62 127.5 148.5C128.52 147.48 129 147 129 147C129.12 146.88 129.3 146.88 129.42 147C129.54 147.12 129.54 147.3 129.42 147.42C129.42 147.42 129.42 147.42 129.36 147.42C129.36 147.42 128.88 147.9 127.92 148.86C127.86 148.98 127.8 148.98 127.74 148.98Z" fill="#00283C"/>
<path d="M133.14 148.26C133.08 148.26 133.02 148.26 132.96 148.2C132.84 148.08 132.78 147.9 132.9 147.78C132.9 147.78 133.56 146.94 134.4 145.56C134.46 145.44 134.7 145.38 134.82 145.44C134.94 145.5 135 145.68 134.94 145.86C134.1 147.24 133.44 148.08 133.44 148.08C133.32 148.2 133.2 148.26 133.14 148.26Z" fill="#00283C"/>
<path d="M133.92 150.54C133.86 150.54 133.74 150.48 133.68 150.42C133.56 150.3 133.56 150.12 133.68 150C134.46 149.22 135.18 148.32 135.78 147.42C135.84 147.3 136.08 147.24 136.2 147.3C136.32 147.36 136.38 147.54 136.32 147.72C135.72 148.74 135 149.64 134.1 150.48C134.1 150.48 134.04 150.48 133.92 150.54Z" fill="#00283C"/>
<path d="M135.721 152.58C135.661 152.58 135.541 152.52 135.481 152.46C135.361 152.34 135.361 152.16 135.481 152.04C136.081 151.44 136.621 150.72 137.041 149.94C137.101 149.82 137.281 149.76 137.461 149.82C137.581 149.88 137.641 150.06 137.581 150.24C137.101 151.08 136.561 151.8 135.901 152.52C135.841 152.52 135.781 152.52 135.721 152.58Z" fill="#00283C"/>
<path d="M97.5 180.12H97.38C81.24 174.84 79.8 170.16 79.5 164.58C79.5 164.4 79.62 164.28 79.8 164.28C79.98 164.28 80.1 164.4 80.1 164.58C80.34 169.92 81.84 174.48 97.56 179.58C97.74 179.64 97.8 179.82 97.74 179.94C97.74 180 97.62 180.12 97.5 180.12Z" fill="#00283C"/>
<path d="M60.5402 194.34C60.3002 194.34 60.2402 194.16 60.2402 193.98C60.3002 193.74 64.2602 171.12 66.0002 163.56C66.0602 163.38 66.1802 163.32 66.3602 163.32C66.5402 163.38 66.6002 163.5 66.6002 163.68C64.8602 171.24 60.9002 193.86 60.8402 194.1C60.7802 194.22 60.6602 194.34 60.5402 194.34Z" fill="#00283C"/>
<path d="M102.361 237.96C102.181 237.96 102.061 237.84 102.061 237.66C102.061 237.54 102.241 227.4 102.061 216.66C102.061 216.48 102.181 216.36 102.361 216.36C102.541 216.36 102.661 216.48 102.661 216.66C102.841 227.4 102.661 237.6 102.661 237.72C102.661 237.84 102.541 237.96 102.361 237.96Z" fill="#00283C"/>
<path d="M150.841 205.62C149.881 201.36 148.561 196.98 147.301 195.12C146.041 193.26 147.841 190.92 150.841 193.8C150.841 193.8 152.101 190.02 153.361 188.16C154.681 186.3 157.021 183.84 158.041 184.26C159.061 184.68 156.661 188.34 155.941 189.72C155.521 190.56 155.161 191.46 154.861 192.36C154.861 192.36 158.161 190.8 158.281 193.74C158.281 193.74 161.221 194.04 160.861 196.26C160.861 196.26 163.021 196.56 162.301 199.02C161.581 201.48 159.721 206.16 159.721 206.16L150.841 205.62Z" fill="#F5FF8C"/>
<path d="M159.78 206.52L150.84 205.98C150.72 205.98 150.6 205.86 150.54 205.74C149.4 200.82 148.14 196.92 147.06 195.36C146.4 194.52 146.46 193.38 147.18 192.6C147.84 192.06 149.1 191.94 150.72 193.32C151.32 191.46 152.16 189.72 153.18 188.04C154.32 186.42 156.84 183.48 158.22 184.08C158.4 184.14 158.58 184.32 158.64 184.5C158.94 185.28 158.1 186.84 156.96 188.82C156.72 189.3 156.48 189.66 156.36 189.96C156.06 190.62 155.76 191.28 155.52 191.94C156.3 191.64 157.14 191.64 157.86 192C158.4 192.36 158.7 192.96 158.7 193.56C159.54 193.68 160.32 194.1 160.92 194.76C161.22 195.18 161.34 195.66 161.34 196.14C161.82 196.32 162.24 196.62 162.54 197.04C162.9 197.7 162.96 198.48 162.72 199.2C162.06 201.6 160.14 206.34 160.14 206.4C160.02 206.46 159.9 206.52 159.78 206.52ZM151.08 205.32L159.6 205.86C159.96 204.96 161.46 201.06 162.06 198.96C162.3 198.42 162.24 197.82 161.94 197.28C161.7 196.92 161.28 196.68 160.86 196.56C160.8 196.56 160.68 196.5 160.68 196.44C160.62 196.38 160.62 196.32 160.62 196.2C160.74 195.78 160.62 195.36 160.38 195C159.84 194.46 159.12 194.1 158.34 194.04C158.22 194.04 158.1 193.92 158.04 193.74C158.1 193.2 157.86 192.72 157.44 192.42C156.72 192 155.46 192.42 155.04 192.6C154.92 192.66 154.8 192.66 154.74 192.54C154.68 192.48 154.62 192.36 154.68 192.24C154.98 191.34 155.34 190.44 155.76 189.54C155.88 189.24 156.12 188.82 156.42 188.34C157.08 187.14 158.28 185.1 158.04 184.56C158.04 184.5 158.04 184.5 157.98 184.5C157.26 184.2 155.28 186 153.66 188.28C152.4 190.08 151.14 193.8 151.14 193.86C151.08 193.98 151.02 194.04 150.9 194.04C150.78 194.04 150.72 194.04 150.6 193.98C149.16 192.54 148.08 192.54 147.54 192.96C147.06 193.5 147.06 194.34 147.54 194.88C149.1 197.22 150.48 202.8 151.08 205.32Z" fill="#00283C"/>
<path d="M150.54 199.08C150.36 199.08 150.24 198.96 150.24 198.78C150.24 196.26 150.54 193.8 150.54 193.8C150.54 193.62 150.72 193.5 150.84 193.56C151.02 193.56 151.14 193.74 151.14 193.86C150.96 195.48 150.9 197.16 150.84 198.78C150.84 198.96 150.72 199.08 150.54 199.08Z" fill="#00283C"/>
<path d="M154.38 194.82C154.2 194.82 154.08 194.7 154.08 194.52C154.2 193.74 154.38 193.02 154.68 192.3C154.74 192.12 154.92 192.06 155.04 192.12C155.16 192.18 155.28 192.36 155.22 192.48C154.98 193.14 154.8 193.8 154.68 194.52C154.68 194.7 154.56 194.82 154.38 194.82Z" fill="#00283C"/>
<path d="M157.38 196.02C157.2 196.02 157.08 195.84 157.08 195.66C157.2 194.88 157.56 194.1 158.1 193.56C158.22 193.44 158.4 193.5 158.52 193.62C158.64 193.74 158.58 193.92 158.52 194.04C158.04 194.52 157.74 195.18 157.68 195.84C157.68 195.96 157.56 196.02 157.38 196.02Z" fill="#00283C"/>
<path d="M159.78 198.24H159.72C159.54 198.18 159.48 198.06 159.48 197.88C159.66 197.16 160.14 196.5 160.74 196.08C160.86 196.02 161.04 196.02 161.16 196.2C161.22 196.32 161.22 196.5 161.04 196.62C160.56 196.98 160.2 197.46 160.02 198.06C160.02 198.12 159.9 198.24 159.78 198.24Z" fill="#00283C"/>
<path d="M134.88 200.88C142.44 200.52 147.3 205.56 149.52 210.48V205.68C149.52 205.68 153.06 203.28 157.08 203.7C161.1 204.12 162.48 205.08 162.48 205.08C162.48 205.08 164.22 231.6 162.48 235.92C160.74 240.24 151.2 237.42 151.2 237.42L151.68 259.38C151.68 259.38 140.82 259.98 124.2 259.98C107.58 259.98 102.36 258 102.36 258L101.88 241.98C101.88 241.98 93.2402 238.38 95.1002 229.86C96.9602 221.34 99.0602 210.12 104.58 204.72C110.1 199.32 134.88 200.88 134.88 200.88Z" fill="#5A3296"/>
<path d="M149.221 236.46C149.161 236.46 149.101 236.46 149.101 236.4C141.961 232.38 136.141 223.56 134.641 217.26C134.581 217.08 134.701 216.9 134.881 216.9C135.061 216.84 135.241 216.96 135.241 217.14C136.681 223.14 142.501 232.02 149.401 235.86C149.521 235.92 149.581 236.1 149.521 236.28C149.401 236.4 149.281 236.46 149.221 236.46Z" fill="#00283C"/>
<path d="M154.32 219.18C154.2 219.18 154.14 219.12 154.08 219.06C152.58 217.02 151.26 214.8 150.18 212.46C150.12 212.34 150.18 212.16 150.3 212.04C150.42 211.92 150.6 212.04 150.72 212.16C150.72 212.16 150.72 212.16 150.72 212.22C151.8 214.5 153.06 216.66 154.56 218.7C154.68 218.82 154.62 219 154.5 219.12C154.5 219.12 154.38 219.18 154.32 219.18Z" fill="#00283C"/>
<path d="M135.54 194.1C135.54 194.1 136.56 198.9 137.58 202.32C138.6 205.74 134.34 221.46 122.22 221.16C110.1 220.86 99.2404 211.8 103.2 200.34C107.16 188.88 107.64 180.42 109.56 177.84C110.4 176.7 111.3 175.62 112.32 174.6C112.32 174.6 114.54 166.98 123.84 163.62C133.14 160.26 140.34 166.74 141.24 169.08C142.14 171.42 139.68 174.78 139.68 174.78L135.54 194.1Z" fill="#F5FF8C"/>
<path d="M122.581 221.46H122.221C114.901 221.28 108.121 217.98 104.581 212.88C101.941 209.22 101.341 204.42 102.901 200.22C104.521 195.42 105.841 190.56 106.861 185.58C107.701 181.74 108.301 178.98 109.321 177.66C110.161 176.52 111.061 175.44 112.081 174.42C112.381 173.58 114.961 166.5 123.721 163.32C133.081 159.9 140.521 166.5 141.481 168.96C142.381 171.3 140.281 174.42 139.921 174.9L135.781 194.1C135.901 194.7 136.861 199.08 137.821 202.26C138.481 204.48 137.101 210.9 133.501 215.64C130.681 219.48 126.841 221.46 122.581 221.46ZM129.121 162.9C127.381 162.9 125.641 163.2 123.961 163.8C114.961 167.04 112.681 174.54 112.621 174.6C112.621 174.66 112.561 174.72 112.561 174.72C111.541 175.74 110.641 176.82 109.801 177.96C108.841 179.16 108.241 181.92 107.461 185.64C106.441 190.62 105.121 195.54 103.501 200.34C102.001 204.42 102.601 208.92 105.061 212.46C108.481 217.44 115.081 220.62 122.221 220.8C127.561 220.92 131.041 217.86 133.081 215.22C136.681 210.48 137.821 204.24 137.281 202.38C136.261 198.96 135.241 194.16 135.181 194.1C135.181 194.04 135.181 194.04 135.181 193.98L139.381 174.6C139.381 174.54 139.381 174.54 139.441 174.48C139.441 174.48 141.841 171.24 140.941 169.08C140.281 167.28 135.601 162.9 129.121 162.9Z" fill="#00283C"/>
<path d="M139.8 172.68C141.18 179.1 141.42 181.26 141.42 181.26C142.14 181.26 142.86 181.74 143.1 182.4C143.46 183.6 141.66 184.2 141.06 183.9C141.06 183.9 142.32 194.1 135.54 194.04C135.54 194.1 132.48 180.6 139.8 172.68Z" fill="#F5FF8C"/>
<path d="M135.6 194.4H135.54C135.42 194.4 135.3 194.28 135.24 194.16C135.18 194.04 132.24 180.42 139.62 172.5C139.74 172.38 139.92 172.38 140.04 172.5C140.1 172.56 140.1 172.56 140.1 172.62C141.24 177.9 141.6 180.24 141.72 180.96C142.5 181.02 143.16 181.56 143.4 182.34C143.58 182.88 143.4 183.42 142.92 183.78C142.5 184.14 141.96 184.32 141.36 184.32C141.48 185.7 141.66 190.32 139.44 192.78C138.48 193.86 137.04 194.46 135.6 194.4ZM139.68 173.34C133.5 180.54 135.48 192.06 135.78 193.8C136.98 193.8 138.18 193.26 139.02 192.36C141.42 189.66 140.76 184.02 140.76 183.96C140.76 183.84 140.76 183.72 140.88 183.66C141 183.6 141.12 183.6 141.18 183.66C141.66 183.78 142.2 183.6 142.56 183.3C142.8 183.12 142.92 182.82 142.86 182.46C142.62 181.86 142.08 181.5 141.48 181.5C141.3 181.5 141.18 181.38 141.18 181.2C141.12 181.32 140.88 179.22 139.68 173.34Z" fill="#00283C"/>
<path d="M141.54 176.7C141.42 176.64 141.3 176.58 141.18 176.58C141 176.52 140.88 176.52 140.7 176.52C140.34 176.52 140.04 176.58 139.74 176.64C139.08 176.88 138.42 177.18 137.88 177.6C137.76 177.66 137.52 177.66 137.46 177.48C137.4 177.36 137.4 177.24 137.46 177.18C137.7 176.82 138 176.52 138.3 176.22C138.66 175.92 139.08 175.74 139.5 175.62C139.92 175.5 140.4 175.5 140.88 175.56C141.12 175.62 141.36 175.68 141.54 175.8C141.78 175.92 142.02 176.1 142.14 176.34C142.2 176.46 142.14 176.64 142.02 176.7C141.96 176.76 141.84 176.76 141.78 176.7H141.54Z" fill="#00283C"/>
<path d="M138.42 179.76C138.48 180.42 138.9 180.9 139.38 180.84C139.86 180.78 140.1 180.24 140.04 179.58C140.04 179.4 139.98 179.22 139.86 179.04L139.14 179.52L139.38 178.56C139.26 178.5 139.2 178.5 139.08 178.5C138.66 178.56 138.36 179.16 138.42 179.76Z" fill="#00283C"/>
<path d="M138.66 188.94C137.94 188.94 137.22 188.58 136.86 187.92C136.8 187.8 136.8 187.62 136.98 187.5C137.1 187.44 137.28 187.44 137.4 187.62C137.88 188.34 138.84 188.58 139.56 188.1C139.68 188.04 139.86 188.1 139.98 188.22C140.04 188.34 139.98 188.52 139.86 188.64C139.5 188.82 139.08 188.94 138.66 188.94Z" fill="#00283C"/>
<path d="M101.94 238.74C101.76 238.74 101.64 238.62 101.64 238.44C101.4 228.72 102.6 214.44 102.6 214.32C102.6 214.14 102.78 214.02 102.9 214.02C103.08 214.02 103.2 214.2 103.2 214.32C103.2 214.44 102 228.72 102.24 238.38C102.24 238.62 102.12 238.74 101.94 238.74Z" fill="#00283C"/>
<path d="M218.099 186.18L220.619 195.78C220.619 195.78 211.919 196.14 206.939 197.94L206.279 189.48L216.599 183L218.099 186.18Z" fill="#F5FF8C"/>
<path d="M206.88 198.24C206.82 198.24 206.76 198.24 206.7 198.18C206.64 198.12 206.58 198.06 206.58 197.94L205.92 189.48C205.92 189.36 205.98 189.24 206.04 189.18L216.42 182.7C216.48 182.64 216.6 182.64 216.66 182.7C216.72 182.7 216.78 182.76 216.84 182.88L218.34 186.06V186.12L220.86 195.72C220.86 195.78 220.86 195.9 220.8 195.96C220.74 196.02 220.68 196.08 220.56 196.08C220.5 196.08 211.86 196.44 206.94 198.24C206.94 198.24 206.94 198.24 206.88 198.24ZM206.58 189.66L207.18 197.52C211.62 196.02 218.52 195.54 220.2 195.48L217.8 186.3L216.48 183.48L206.58 189.66Z" fill="#00283C"/>
<path d="M216.18 184.56C216.18 184.56 217.98 187.02 220.32 185.76C220.32 185.76 222.78 186.78 224.58 185.34C224.58 185.34 229.98 183.42 227.64 177.96C227.64 177.96 229.02 173.52 227.7 171.36C226.38 169.2 225.18 168.48 225.18 168.48C225.18 168.48 226.98 165.18 225.18 162.36C224.22 160.74 222.42 159.78 220.56 159.84C220.56 159.84 218.46 156.06 215.04 154.38C211.62 152.7 206.46 155.82 206.46 155.82C206.46 155.82 203.28 153.6 200.64 154.98C199.14 155.64 198.3 157.26 198.48 158.88C198.48 158.88 193.2 162.9 198.24 168.12C203.28 173.34 216.18 184.56 216.18 184.56Z" fill="#F5FF8C"/>
<path d="M222.18 186.48C221.52 186.48 220.92 186.36 220.32 186.18C217.98 187.32 216.18 185.1 215.94 184.86C215.34 184.32 202.92 173.52 198 168.48C196.38 166.8 195.6 165.06 195.72 163.26C195.96 161.52 196.8 159.96 198.12 158.88C198 157.2 198.9 155.58 200.46 154.86C202.92 153.6 205.74 155.16 206.4 155.58C207.3 155.04 211.86 152.64 215.1 154.2C218.22 155.7 220.26 158.88 220.68 159.6C222.6 159.66 224.34 160.62 225.36 162.3C226.98 164.82 225.9 167.64 225.48 168.48C226.44 169.26 227.28 170.22 227.88 171.3C229.14 173.4 228.06 177.36 227.88 178.08C228.6 179.52 228.66 181.2 228.06 182.64C227.34 184.08 226.14 185.16 224.7 185.76C223.98 186.18 223.08 186.48 222.18 186.48ZM220.32 185.52C220.38 185.52 220.38 185.52 220.44 185.52C220.44 185.52 222.72 186.48 224.4 185.1L224.46 185.04C225.78 184.5 226.92 183.54 227.58 182.22C228.12 180.84 228 179.34 227.34 178.02C227.34 177.96 227.34 177.9 227.34 177.78C227.34 177.72 228.66 173.46 227.46 171.42C226.86 170.34 226.08 169.38 225.06 168.66C224.94 168.6 224.88 168.42 224.94 168.24C224.94 168.24 226.68 165.06 224.94 162.48C224.04 160.98 222.36 160.02 220.62 160.08C220.5 160.08 220.38 160.02 220.32 159.96C220.32 159.9 218.22 156.24 214.92 154.62C211.62 153 206.64 156.06 206.64 156.06C206.52 156.12 206.4 156.12 206.34 156.06C206.34 156.06 203.28 153.96 200.82 155.22C199.44 155.82 198.6 157.32 198.84 158.82C198.84 158.94 198.84 159.06 198.72 159.12C198.72 159.12 196.62 160.74 196.44 163.2C196.32 164.76 197.04 166.38 198.54 167.94C203.52 173.1 216.3 184.2 216.42 184.32C216.42 184.32 216.48 184.32 216.48 184.38C216.54 184.5 218.16 186.6 220.2 185.52C220.2 185.52 220.26 185.52 220.32 185.52Z" fill="#00283C"/>
<path d="M199.44 165.54C199.44 165.54 196.2 172.5 195.78 174.6C195.78 174.6 192.42 175.32 192.72 177C193.02 178.68 195 178.38 195 178.38C195 178.38 193.92 190.08 199.2 191.94C204.48 193.8 213.42 189.36 216.18 184.56C216.18 184.56 216.48 182.1 215.82 181.62C215.16 181.14 214.74 177.78 214.74 177.78C214.74 177.78 216.24 176.16 215.46 174.48C214.68 172.8 212.1 174.12 211.62 175.08C210.6 174.48 209.94 173.4 209.88 172.2C208.26 171.72 207 170.4 206.7 168.66C206.7 168.66 203.64 167.7 203.04 165.96C203.1 166.08 200.58 166.14 199.44 165.54Z" fill="#F5FF8C"/>
<path d="M201.9 192.72C200.94 192.72 199.98 192.6 199.08 192.3C194.1 190.56 194.52 180.84 194.7 178.8C193.62 178.92 192.66 178.2 192.48 177.12C192.18 175.38 194.82 174.6 195.6 174.42C196.14 172.08 199.14 165.72 199.26 165.48C199.32 165.36 199.5 165.24 199.68 165.36C200.7 165.9 203.16 165.84 203.16 165.84C203.28 165.84 203.4 165.9 203.46 166.02C204 167.58 206.88 168.48 206.94 168.54C207.06 168.6 207.12 168.66 207.12 168.78C207.36 170.34 208.5 171.66 210.06 172.08C210.18 172.14 210.3 172.2 210.3 172.38C210.36 173.34 210.84 174.24 211.62 174.84C212.28 174.06 213.24 173.58 214.26 173.52C214.92 173.52 215.52 173.88 215.76 174.54C216.48 176.16 215.4 177.66 215.04 178.08C215.22 179.58 215.64 181.38 216 181.62C216.78 182.16 216.54 184.38 216.48 184.8C216.48 184.86 216.48 184.86 216.42 184.92C214.08 188.82 207.3 192.72 201.9 192.72ZM195 178.14C195.06 178.14 195.18 178.2 195.24 178.2C195.3 178.26 195.36 178.38 195.3 178.44C195.3 178.56 194.28 189.96 199.26 191.7C203.7 193.2 212.7 189.96 215.88 184.5C216 183.42 215.94 182.16 215.64 181.92C214.92 181.38 214.5 178.68 214.44 177.84C214.44 177.78 214.44 177.66 214.5 177.6C214.5 177.6 215.82 176.1 215.16 174.6C215.04 174.18 214.62 173.94 214.2 173.94C213.3 174 212.46 174.42 211.92 175.2C211.86 175.26 211.8 175.32 211.74 175.38C211.68 175.44 211.56 175.44 211.5 175.38C210.48 174.78 209.76 173.7 209.64 172.5C208.02 171.96 206.82 170.64 206.52 168.96C205.86 168.72 203.64 167.82 202.92 166.32C201.84 166.32 200.7 166.2 199.62 165.9C199.02 167.16 196.44 172.8 196.08 174.66C196.08 174.78 195.96 174.9 195.84 174.9C195.84 174.9 192.78 175.62 193.02 177C193.26 178.38 194.88 178.2 195 178.14Z" fill="#00283C"/>
<path d="M203.46 171C203.34 170.88 203.22 170.76 203.1 170.7C202.92 170.58 202.8 170.52 202.62 170.4C202.26 170.22 201.9 170.16 201.48 170.1C201.06 170.04 200.7 170.04 200.28 170.1C199.86 170.16 199.44 170.22 199.08 170.34C198.9 170.4 198.78 170.28 198.72 170.1C198.72 169.98 198.72 169.86 198.84 169.8C199.26 169.5 199.68 169.32 200.16 169.14C200.64 169.02 201.12 168.96 201.66 169.02C202.14 169.08 202.68 169.26 203.1 169.5C203.34 169.62 203.52 169.8 203.7 169.98C203.88 170.22 204.06 170.46 204.12 170.76C204.12 170.94 204.06 171.06 203.88 171.06C203.76 171.06 203.7 171.06 203.64 171H203.46Z" fill="#00283C"/>
<path d="M199.5 174C199.56 174.72 200.04 175.26 200.58 175.2C201.12 175.14 201.42 174.54 201.36 173.76C201.36 173.58 201.3 173.34 201.18 173.16L200.34 173.76L200.64 172.62C200.52 172.56 200.4 172.56 200.28 172.56C199.8 172.68 199.44 173.28 199.5 174Z" fill="#00283C"/>
<path d="M201.54 184.56C201.06 184.56 200.52 184.5 200.04 184.44C199.56 184.32 199.2 183.96 199.14 183.48C199.08 183 199.26 182.58 199.68 182.34C201 181.62 203.34 181.14 204.6 181.68C205.02 181.8 205.32 182.16 205.44 182.52C205.56 182.88 205.44 183.3 205.14 183.54C204.48 184.26 202.92 184.56 201.54 184.56ZM203.28 182.04C202.14 182.04 201 182.34 199.98 182.88C199.8 183 199.68 183.18 199.74 183.42C199.8 183.66 199.92 183.84 200.16 183.84C201.6 184.14 204.06 183.9 204.72 183.18C204.84 183.06 204.9 182.88 204.84 182.7C204.78 182.46 204.6 182.28 204.36 182.22C204 182.1 203.64 182.04 203.28 182.04Z" fill="#00283C"/>
<path d="M199.44 165.54C198.6 165 198.06 164.04 198 163.02Z" fill="#F5FF8C"/>
<path d="M199.44 165.84C199.38 165.84 199.32 165.84 199.32 165.78C198.36 165.18 197.76 164.16 197.76 163.02C197.76 162.84 197.88 162.72 198.06 162.72C198.24 162.72 198.36 162.84 198.36 163.02C198.36 163.02 198.42 164.64 199.62 165.3C199.74 165.36 199.8 165.54 199.74 165.72C199.68 165.78 199.56 165.84 199.44 165.84Z" fill="#00283C"/>
<path d="M206.88 196.2C216.96 192.54 228.12 193.2 237.78 198C246.42 202.38 253.02 209.76 256.2 221.16C259.44 232.44 261.84 243.96 263.52 255.6H177.72C177.72 255.6 179.16 200.46 206.88 196.2Z" fill="#5A3296"/>
<path d="M192.72 253.74C192.54 253.74 192.42 253.62 192.42 253.44C192.42 253.26 192.36 237.48 192.42 215.46C192.42 215.28 192.54 215.16 192.72 215.16C192.9 215.16 193.02 215.28 193.02 215.46C192.96 237.42 193.02 253.26 193.02 253.44C193.02 253.62 192.9 253.74 192.72 253.74Z" fill="#00283C"/>
<path d="M253.02 253.74C252.84 253.74 252.72 253.62 252.72 253.44C252.72 253.2 250.14 226.62 246.3 211.26C246.24 211.08 246.36 210.96 246.54 210.9C246.72 210.84 246.84 210.96 246.9 211.14C250.74 226.56 253.32 253.14 253.32 253.44C253.32 253.56 253.2 253.74 253.02 253.74Z" fill="#00283C"/>
<path d="M180.06 137.94C176.16 139.92 171.54 142.32 170.58 146.28C170.46 146.82 170.1 147.24 169.62 147.36C169.5 147.42 169.38 147.42 169.26 147.42C167.1 147.42 165 147.06 162.96 146.46L162.78 146.4C160.56 145.8 158.46 145.02 156.48 143.94C156.36 143.88 156.24 143.76 156.12 143.7C155.64 143.28 155.28 142.74 155.1 142.08C154.2 137.64 149.58 132.72 145.62 128.58C141.36 124.14 137.58 116.52 138.96 105.36C140.34 94.1999 150.9 89.9399 162.72 93.1199L162.9 93.1799C174.72 96.4799 185.28 106.62 186.66 118.44C188.04 130.26 184.32 135.84 180.06 137.94Z" fill="#F5FF8C"/>
<path d="M169.26 147.66H169.2C167.04 147.6 164.88 147.3 162.84 146.7L162.66 146.64C160.44 146.04 158.28 145.2 156.24 144.12C156.12 144.06 155.94 143.94 155.82 143.82C155.28 143.34 154.86 142.74 154.74 142.02C153.84 137.52 148.92 132.42 145.38 128.7C142.2 125.34 137.04 117.84 138.66 105.24C139.26 100.68 141.42 96.9599 144.96 94.6199C149.46 91.5599 156 90.8999 162.84 92.7599L163.02 92.8199C175.56 96.2999 185.7 107.04 187.02 118.32C188.64 131.88 183.42 136.56 180.18 138.18C176.64 139.98 171.78 142.38 170.88 146.28C170.76 146.88 170.28 147.42 169.68 147.6C169.56 147.66 169.38 147.66 169.26 147.66ZM169.26 147.06C169.38 147.06 169.44 147.06 169.56 147C169.98 146.88 170.28 146.58 170.34 146.16C171.3 141.96 176.28 139.5 179.94 137.64C183.06 136.08 187.98 131.58 186.42 118.38C185.1 107.34 175.2 96.7799 162.84 93.3599L162.66 93.2999C156 91.4999 149.7 92.1599 145.32 95.0999C141.96 97.3799 139.86 100.92 139.26 105.3C137.7 117.66 142.68 124.98 145.8 128.22C149.4 132 154.38 137.22 155.34 141.84C155.46 142.38 155.76 142.92 156.24 143.28C156.36 143.34 156.42 143.46 156.54 143.52C158.52 144.6 160.62 145.44 162.78 145.98L162.96 146.04C165 146.7 167.1 147.06 169.26 147.06Z" fill="#00283C"/>
<path d="M169.02 132.12C166.26 132.12 164.04 130.26 163.92 130.14C163.86 130.08 163.8 130.02 163.8 129.9V109.5C163.8 109.38 164.1 107.46 165.48 106.44C166.14 105.96 166.98 105.78 167.76 105.96C170.76 106.5 172.68 110.22 172.8 112.8C174.24 113.34 175.5 114.3 176.28 115.62C177.36 117.42 177.3 118.56 177.24 118.98C178.26 120.6 178.26 122.64 177.24 124.32C177.42 124.92 177.9 127.2 176.64 129C175.68 130.2 174.18 130.92 172.68 130.8C172.38 131.16 171.3 132.12 169.02 132.12ZM164.46 129.78C165.78 130.8 167.34 131.4 169.02 131.52C171.42 131.52 172.26 130.38 172.32 130.32C172.38 130.26 172.5 130.2 172.62 130.2C172.62 130.2 174.96 130.44 176.22 128.64C177.48 126.84 176.7 124.38 176.7 124.32C176.7 124.26 176.7 124.14 176.7 124.08C177.66 122.58 177.66 120.72 176.7 119.22C176.64 119.16 176.64 119.04 176.64 118.92C176.64 118.92 176.94 117.9 175.8 115.92C175.02 114.66 173.82 113.76 172.44 113.28C172.32 113.22 172.2 113.16 172.2 112.98C172.2 110.64 170.4 106.98 167.64 106.5C166.98 106.38 166.32 106.5 165.78 106.86C164.64 107.7 164.34 109.44 164.34 109.44L164.46 129.78Z" fill="#00283C"/>
<path d="M172.92 127.8H172.74C172.56 127.8 172.44 127.62 172.44 127.5C172.44 127.38 172.62 127.2 172.74 127.2C173.22 127.2 173.76 127.08 174.12 126.72C174.6 126.3 174.9 125.76 175.02 125.16C175.02 125.04 175.14 124.92 175.26 124.86C175.8 124.74 176.34 124.44 176.7 124.02C176.82 123.9 177 123.9 177.12 124.02C177.24 124.14 177.24 124.32 177.12 124.44C176.7 124.86 176.16 125.16 175.56 125.34C175.38 126 175.02 126.6 174.48 127.08C174.12 127.56 173.52 127.8 172.92 127.8Z" fill="#00283C"/>
<path d="M172.56 130.8C172.5 130.8 172.5 130.8 172.44 130.8C172.26 130.74 172.2 130.56 172.26 130.44C172.86 128.88 172.2 126.24 170.88 124.8C170.76 124.68 170.76 124.5 170.88 124.38C171 124.26 171.18 124.26 171.3 124.38C172.8 125.94 173.52 128.88 172.8 130.62C172.8 130.74 172.68 130.8 172.56 130.8Z" fill="#00283C"/>
<path d="M169.68 125.82C169.5 125.82 169.38 125.76 169.32 125.58C169.32 125.4 169.38 125.28 169.56 125.22C170.7 124.86 171.18 123.66 170.82 122.22C170.76 122.04 170.88 121.92 171 121.86C171.18 121.8 171.3 121.92 171.36 122.04C171.84 123.72 171.18 125.28 169.74 125.76C169.74 125.82 169.68 125.82 169.68 125.82Z" fill="#00283C"/>
<path d="M167.701 129.66C167.581 129.66 167.401 129.66 167.281 129.6C167.101 129.54 167.041 129.36 167.101 129.24C167.161 129.06 167.341 129 167.521 129.06C167.821 129.18 168.061 128.94 168.121 128.76C168.361 128.34 168.301 127.8 167.941 127.5C167.821 127.38 167.761 127.2 167.881 127.08C168.001 126.96 168.181 126.9 168.301 127.02C168.901 127.5 169.081 128.4 168.661 129.06C168.481 129.42 168.061 129.66 167.701 129.66Z" fill="#00283C"/>
<path d="M172.56 113.34H172.44C171.48 112.98 171.12 113.28 171.12 113.28C171.06 113.34 170.94 113.34 170.88 113.34C170.82 113.34 170.7 113.28 170.7 113.16C170.7 113.16 169.74 110.82 168.06 110.94C167.94 110.94 167.76 110.88 167.76 110.7C167.76 110.7 167.46 109.44 166.62 109.26C166.44 109.2 166.38 109.08 166.38 108.9C166.44 108.72 166.56 108.66 166.74 108.66C167.64 108.9 168.06 109.86 168.24 110.28C169.8 110.34 170.76 111.96 171.12 112.62C171.66 112.5 172.14 112.56 172.68 112.74C172.86 112.8 172.92 112.98 172.86 113.1C172.8 113.28 172.68 113.34 172.56 113.34Z" fill="#00283C"/>
<path d="M174.66 121.68C174.48 121.68 174.36 121.56 174.36 121.38C174.36 120.54 174 119.7 173.34 119.16C172.86 118.74 172.26 118.44 171.66 118.5C171.48 118.56 171.36 118.44 171.3 118.26C171.3 118.08 171.36 117.96 171.54 117.9C172.38 117.84 173.16 118.14 173.76 118.74C174.54 119.4 175.02 120.42 175.02 121.44C174.96 121.56 174.78 121.68 174.66 121.68Z" fill="#00283C"/>
<path d="M171.9 119.88C171.72 119.88 171.6 119.76 171.6 119.64C171.48 118.38 170.1 116.64 168.66 116.46C168.48 116.46 168.36 116.28 168.42 116.1C168.42 115.92 168.6 115.8 168.72 115.86C170.46 116.04 172.02 118.02 172.2 119.58C172.2 119.76 172.14 119.88 171.9 119.88Z" fill="#00283C"/>
<path d="M168.12 121.68C167.94 121.68 167.82 121.56 167.82 121.38C167.82 121.26 167.88 121.2 167.94 121.14C168.18 120.72 168.3 120.3 168.24 119.82C168.24 119.28 168 118.8 167.52 118.5C167.4 118.44 167.34 118.26 167.4 118.08C167.46 117.96 167.64 117.9 167.82 117.96C168.42 118.32 168.84 119.04 168.84 119.76C168.96 120.42 168.72 121.08 168.3 121.62C168.24 121.62 168.18 121.68 168.12 121.68Z" fill="#00283C"/>
<path d="M160.8 129.84C159.54 129.84 158.28 129.48 157.14 128.88C155.64 128.1 154.38 126.96 153.48 125.58C151.8 124.74 150.42 123.36 149.58 121.74C148.74 120.24 148.5 118.44 148.98 116.76C147.42 113.52 148.56 111.9 148.98 111.42C148.86 110.4 149.22 109.32 150 108.6C151.08 107.4 152.76 107.46 153.48 107.58C153.54 106.14 154.26 104.76 155.4 103.86C156.36 103.2 157.56 103.08 158.64 103.56C161.82 104.76 162.42 108.84 162.42 108.96V129.42C162.42 129.54 162.36 129.66 162.18 129.72C161.76 129.78 161.28 129.84 160.8 129.84ZM152.64 108.12C151.8 108.06 151.02 108.42 150.42 108.96C149.28 110.28 149.58 111.36 149.58 111.42C149.64 111.54 149.58 111.66 149.46 111.72C149.4 111.78 147.9 113.16 149.52 116.58C149.58 116.64 149.58 116.76 149.52 116.82C149.04 118.38 149.28 120 150.06 121.44C150.9 123 152.16 124.26 153.78 125.1C153.84 125.1 153.9 125.16 153.9 125.22C154.74 126.54 155.94 127.62 157.32 128.34C158.64 129.12 160.2 129.36 161.76 129.12V108.96C161.76 108.96 161.16 105.12 158.34 104.04C157.44 103.62 156.42 103.74 155.64 104.28C154.56 105.18 153.96 106.5 153.96 107.88C153.96 108.06 153.84 108.18 153.66 108.18H153.6C153.36 108.12 153 108.12 152.64 108.12Z" fill="#00283C"/>
<path d="M153.54 122.52C153.48 122.52 153.481 122.52 153.421 122.46C151.861 121.74 150.841 119.64 150.721 118.62C150.121 118.14 149.581 117.54 149.161 116.88C149.101 116.76 149.101 116.58 149.221 116.46C149.341 116.34 149.52 116.4 149.64 116.52C150.06 117.18 150.601 117.72 151.201 118.2C151.261 118.26 151.321 118.32 151.321 118.44C151.381 119.16 152.221 121.2 153.721 121.92C153.841 121.98 153.9 122.16 153.84 122.34C153.72 122.46 153.66 122.52 153.54 122.52Z" fill="#00283C"/>
<path d="M153.72 125.64C153.6 125.64 153.48 125.58 153.42 125.4C152.76 123.24 153.48 120.72 155.04 119.94C155.16 119.82 155.34 119.88 155.46 120C155.58 120.12 155.52 120.3 155.4 120.42C155.4 120.42 155.34 120.42 155.34 120.48C154.08 121.14 153.42 123.42 154.02 125.22C154.08 125.4 153.96 125.52 153.84 125.58C153.78 125.64 153.78 125.64 153.72 125.64Z" fill="#00283C"/>
<path d="M156.6 122.28C156.54 122.28 156.48 122.28 156.42 122.22C155.04 120.96 154.44 119.22 154.92 117.78C154.98 117.6 155.16 117.54 155.28 117.6C155.46 117.66 155.52 117.84 155.46 117.96C155.04 119.16 155.58 120.66 156.78 121.74C156.9 121.86 156.9 122.04 156.78 122.16C156.78 122.22 156.72 122.28 156.6 122.28Z" fill="#00283C"/>
<path d="M158.881 127.32C158.101 127.26 157.441 126.18 157.441 125.34C157.321 124.86 157.621 124.38 158.101 124.26C158.281 124.2 158.401 124.32 158.461 124.5C158.521 124.68 158.401 124.8 158.221 124.86C158.041 124.92 157.981 125.04 157.981 125.34C158.041 125.94 158.461 126.72 158.881 126.72C159.061 126.72 159.181 126.9 159.121 127.08C159.181 127.2 159.061 127.32 158.881 127.32Z" fill="#00283C"/>
<path d="M155.34 109.08C155.22 109.08 155.16 109.02 155.1 108.96C154.74 108.6 154.26 108.3 153.72 108.24C153.54 108.18 153.42 108.06 153.48 107.88C153.54 107.7 153.66 107.58 153.84 107.64C154.38 107.76 154.86 107.94 155.34 108.3C155.7 107.88 156.12 107.52 156.66 107.34C157.2 107.22 157.74 107.28 158.16 107.52C158.28 107.22 158.52 106.98 158.82 106.8C159.12 106.62 159.48 106.62 159.78 106.74C159.96 106.8 160.02 106.98 159.96 107.1C159.9 107.28 159.72 107.34 159.6 107.28C159.42 107.22 159.3 107.22 159.12 107.34C158.88 107.52 158.7 107.76 158.64 108C158.64 108.06 158.52 108.18 158.46 108.18C158.4 108.24 158.28 108.24 158.22 108.18C157.8 107.88 157.32 107.82 156.9 107.94C156.42 108.12 155.94 108.48 155.7 108.9C155.52 109.02 155.46 109.08 155.34 109.08Z" fill="#00283C"/>
<path d="M151.68 115.44C151.5 115.44 151.38 115.32 151.38 115.14C151.26 114.3 151.68 113.52 152.4 113.1C153.24 112.74 154.2 112.8 154.98 113.34C155.1 113.46 155.16 113.64 155.04 113.76C154.92 113.88 154.74 113.94 154.62 113.82C154.08 113.46 153.3 113.4 152.7 113.64C152.22 113.94 151.92 114.54 151.98 115.08C151.98 115.26 151.86 115.38 151.68 115.44C151.68 115.38 151.68 115.38 151.68 115.44Z" fill="#00283C"/>
<path d="M154.38 115.08C154.2 115.08 154.08 114.9 154.08 114.78C154.2 114 154.62 113.34 155.28 112.98C156 112.56 156.9 112.5 157.68 112.86C157.86 112.92 157.92 113.1 157.86 113.28C157.8 113.46 157.62 113.52 157.44 113.46C156.84 113.16 156.12 113.22 155.58 113.52C155.1 113.82 154.74 114.3 154.68 114.9C154.62 114.96 154.5 115.08 154.38 115.08Z" fill="#00283C"/>
<path d="M158.22 118.98C158.1 118.98 158.04 118.92 157.98 118.86C157.5 118.02 157.38 117.06 157.68 116.1C157.86 115.74 158.22 115.44 158.64 115.44C158.82 115.44 158.94 115.56 158.94 115.74C158.94 115.92 158.82 116.04 158.64 116.04C158.46 116.04 158.28 116.16 158.16 116.34C157.98 117.06 158.04 117.84 158.4 118.44C158.52 118.56 158.46 118.74 158.34 118.86C158.34 118.92 158.28 118.98 158.22 118.98Z" fill="#00283C"/>
<path d="M169.621 147.36V154.44C169.621 156.3 168.601 157.68 167.041 157.98C166.261 158.1 165.481 158.16 164.761 158.04C164.101 157.98 163.501 157.86 162.841 157.68C162.181 157.5 161.581 157.26 160.921 157.02C160.081 156.66 159.361 156.18 158.641 155.7C157.081 154.5 156.121 152.7 156.061 150.72V143.64C156.181 143.76 156.301 143.82 156.421 143.88C158.401 144.96 160.561 145.8 162.721 146.34L162.901 146.4C164.941 147 167.101 147.36 169.201 147.36C169.381 147.36 169.501 147.36 169.621 147.36Z" fill="#5A3296"/>
<path d="M165.66 158.4C165.36 158.4 165.06 158.4 164.7 158.34C164.04 158.28 163.38 158.16 162.72 157.98C161.16 157.56 159.72 156.84 158.4 155.88C156.72 154.62 155.76 152.76 155.7 150.66V143.58C155.7 143.4 155.82 143.28 156 143.28C156.06 143.28 156.12 143.28 156.18 143.34C156.3 143.4 156.36 143.52 156.48 143.58C158.46 144.66 160.56 145.5 162.72 146.04L162.9 146.1C164.94 146.7 166.98 147 169.08 147.06H169.14C169.26 147.06 169.32 147.06 169.44 147C169.5 147 169.62 147 169.68 147.06C169.74 147.12 169.8 147.18 169.8 147.3V154.38C169.8 156.36 168.66 157.92 166.98 158.22C166.62 158.34 166.14 158.4 165.66 158.4ZM156.36 144.12V150.66C156.42 152.52 157.32 154.26 158.82 155.4C160.08 156.3 161.46 156.96 162.9 157.38C163.5 157.56 164.16 157.68 164.76 157.74C165.48 157.8 166.26 157.8 166.98 157.68C168.42 157.38 169.32 156.12 169.32 154.44V147.72H169.26C167.1 147.66 164.94 147.36 162.84 146.76L162.66 146.7C160.44 146.04 158.34 145.26 156.36 144.12Z" fill="#00283C"/>
<path d="M164.76 158.22C164.82 159 164.22 159.66 163.44 159.72C163.26 159.72 163.02 159.72 162.84 159.6C161.76 159.24 160.98 158.28 160.92 157.14C160.92 157.08 160.92 157.02 160.92 156.96C161.52 157.26 162.18 157.44 162.84 157.62C163.44 157.8 164.1 157.92 164.76 157.98C164.76 158.1 164.76 158.16 164.76 158.22Z" fill="#5A3296"/>
<path d="M163.32 159.96C163.14 159.96 162.9 159.96 162.72 159.9C161.52 159.54 160.62 158.46 160.62 157.14C160.62 157.08 160.62 157.02 160.62 156.96C160.62 156.84 160.68 156.78 160.8 156.72C160.86 156.66 160.98 156.66 161.1 156.72C161.7 157.02 162.3 157.2 162.96 157.38C163.56 157.56 164.22 157.68 164.82 157.74C164.94 157.74 165.06 157.86 165.12 157.98C165.12 158.04 165.12 158.1 165.12 158.16C165.18 159.06 164.46 159.84 163.56 159.9C163.38 160.02 163.32 160.02 163.32 159.96ZM161.22 157.5C161.4 158.4 162.06 159.06 162.9 159.36C163.26 159.48 163.68 159.42 164.04 159.18C164.28 159 164.46 158.64 164.46 158.34C163.86 158.28 163.32 158.16 162.78 157.98C162.24 157.86 161.7 157.68 161.22 157.5Z" fill="#00283C"/>
<path d="M168.06 150.36C164.34 150.3 160.74 149.28 157.5 147.42C157.38 147.36 157.32 147.12 157.38 147C157.44 146.88 157.62 146.82 157.8 146.88C160.98 148.74 164.64 149.7 168.3 149.76C168.48 149.76 168.6 149.88 168.6 150.06C168.6 150.24 168.48 150.36 168.3 150.36H168.06Z" fill="#00283C"/>
<path d="M168.06 152.94C164.34 152.88 160.74 151.86 157.5 150C157.38 149.94 157.32 149.76 157.38 149.58C157.44 149.46 157.62 149.4 157.8 149.46C160.98 151.32 164.64 152.28 168.3 152.34C168.48 152.34 168.6 152.46 168.6 152.64C168.6 152.82 168.48 152.94 168.3 152.94H168.06Z" fill="#00283C"/>
<path d="M168.06 155.52C164.34 155.46 160.74 154.44 157.5 152.58C157.38 152.52 157.32 152.34 157.38 152.16C157.44 152.04 157.62 151.98 157.8 152.04C160.98 153.9 164.64 154.86 168.3 154.92C168.48 154.92 168.6 155.04 168.6 155.22C168.6 155.4 168.48 155.52 168.3 155.52H168.06Z" fill="#00283C"/>
<path d="M162.66 88.5C162.48 87.6 162.3 86.7 162.24 85.8C162.18 84.9 162.12 84 162.12 83.1C162.12 82.2 162.18 81.3 162.24 80.4C162.3 79.5 162.42 78.6 162.66 77.7C162.72 77.52 162.84 77.46 163.02 77.46C163.14 77.46 163.2 77.58 163.26 77.7C163.44 78.6 163.62 79.5 163.68 80.4C163.74 81.3 163.8 82.2 163.8 83.1C163.8 84 163.8 84.9 163.68 85.8C163.62 86.7 163.5 87.6 163.26 88.5C163.2 88.68 163.02 88.74 162.9 88.74C162.78 88.68 162.72 88.62 162.66 88.5Z" fill="#5A3296"/>
<path d="M190.98 119.34C191.94 119.4 192.84 119.52 193.8 119.76C194.7 119.94 195.6 120.18 196.5 120.48C197.4 120.78 198.3 121.02 199.14 121.38C200.04 121.74 200.88 122.1 201.72 122.58C201.84 122.64 201.9 122.82 201.84 123C201.78 123.12 201.66 123.18 201.54 123.12C200.58 123.06 199.68 122.94 198.72 122.7C197.82 122.52 196.92 122.28 196.02 121.98C195.12 121.68 194.22 121.44 193.38 121.08C192.48 120.72 191.64 120.36 190.8 119.88C190.68 119.82 190.62 119.58 190.68 119.46C190.74 119.4 190.86 119.34 190.98 119.34Z" fill="#5A3296"/>
<path d="M181.74 100.02C182.28 99.2401 182.82 98.5201 183.48 97.8001C184.08 97.0801 184.74 96.4201 185.4 95.8201C186.06 95.2201 186.78 94.5601 187.5 94.0201C188.22 93.4201 189 92.8801 189.78 92.4001C189.9 92.3401 190.14 92.3401 190.2 92.5201C190.26 92.6401 190.26 92.7601 190.2 92.8201C189.66 93.6001 189.06 94.3201 188.46 95.0401C187.86 95.7601 187.2 96.4201 186.54 97.0201C185.88 97.6201 185.16 98.2801 184.44 98.8801C183.72 99.4801 182.94 100.02 182.16 100.5C181.98 100.56 181.8 100.5 181.74 100.38C181.68 100.26 181.68 100.14 181.74 100.02Z" fill="#5A3296"/>
<path d="M187.2 138.06C188.22 138.6 189.18 139.26 190.08 139.92C190.98 140.58 191.88 141.3 192.78 142.02C193.68 142.74 194.52 143.46 195.3 144.3C196.14 145.08 196.92 145.92 197.64 146.76C197.76 146.88 197.7 147.06 197.58 147.18C197.46 147.24 197.34 147.3 197.22 147.24C196.2 146.7 195.3 146.04 194.34 145.38C193.44 144.72 192.54 144 191.64 143.34C190.74 142.68 189.9 141.9 189.12 141.06C188.28 140.28 187.5 139.44 186.78 138.6C186.66 138.48 186.72 138.3 186.84 138.18C186.96 138.06 187.08 138 187.2 138.06Z" fill="#5A3296"/>
<path d="M134.88 104.58C133.92 104.58 133.02 104.46 132.12 104.34C131.22 104.22 130.32 103.98 129.42 103.8C128.52 103.62 127.62 103.32 126.78 103.02C125.88 102.72 125.04 102.36 124.2 101.94C124.08 101.88 124.02 101.7 124.08 101.52C124.14 101.4 124.26 101.34 124.38 101.34C125.34 101.34 126.24 101.46 127.14 101.64C128.04 101.76 128.94 102 129.84 102.18C130.74 102.36 131.64 102.66 132.48 102.96C133.38 103.26 134.22 103.62 135.06 104.04C135.24 104.1 135.3 104.22 135.3 104.4C135.24 104.58 135.06 104.64 134.88 104.58Z" fill="#5A3296"/>
<path d="M143.7 90C142.86 89.1 142.08 88.2 141.36 87.18C140.64 86.22 139.92 85.2 139.26 84.24C138.6 83.28 137.94 82.2 137.34 81.18C136.74 80.1 136.14 79.02 135.66 77.94C135.6 77.76 135.66 77.58 135.84 77.52C135.96 77.46 136.08 77.52 136.2 77.58C137.04 78.48 137.82 79.38 138.54 80.4C139.26 81.36 139.98 82.38 140.64 83.34C141.3 84.3 141.96 85.38 142.56 86.4C143.16 87.48 143.76 88.56 144.24 89.64C144.3 89.82 144.24 90 144.06 90.06C143.88 90.12 143.76 90.06 143.7 90Z" fill="#5A3296"/>
<path d="M138.96 125.46C138.18 125.88 137.34 126.3 136.44 126.6C135.6 126.96 134.7 127.2 133.86 127.44C133.02 127.68 132.12 127.92 131.22 128.04C130.32 128.22 129.42 128.34 128.52 128.4C128.34 128.46 128.16 128.34 128.16 128.16C128.1 127.98 128.22 127.8 128.4 127.8C129.18 127.38 130.02 126.96 130.92 126.66C131.76 126.3 132.66 126.06 133.5 125.82C134.34 125.58 135.24 125.34 136.14 125.16C137.04 124.98 137.94 124.86 138.84 124.8C139.02 124.8 139.14 124.92 139.14 125.1C139.14 125.22 139.08 125.34 138.96 125.46Z" fill="#5A3296"/>
<path d="M55.8004 132.96C58.2604 136.62 60.4204 137.34 60.4204 137.34C60.4204 137.34 53.9404 137.1 49.3204 133.56C39.9604 133.38 32.4004 128.46 32.4004 122.4C32.4004 116.22 40.2004 111.24 49.8604 111.24C59.5204 111.24 67.3204 116.22 67.3204 122.4C67.3804 127.32 62.5804 131.46 55.8004 132.96Z" fill="#F5FF8C"/>
<path d="M60.4202 137.64C60.1802 137.64 53.8802 137.4 49.2602 133.86C39.6602 133.62 32.1602 128.58 32.1602 122.4C32.1602 116.1 40.1402 110.94 49.9202 110.94C59.7002 110.94 67.6802 116.1 67.6802 122.4C67.6802 127.14 63.1202 131.4 56.2802 133.08C58.5002 136.32 60.4802 136.98 60.4802 136.98C60.6602 136.98 60.7802 137.16 60.7202 137.34C60.7202 137.58 60.6002 137.7 60.4202 137.64ZM49.9202 111.6C40.4402 111.6 32.7602 116.46 32.7602 122.46C32.7602 128.34 40.0802 133.14 49.3802 133.32C49.4402 133.32 49.5002 133.32 49.5602 133.38C52.8002 135.84 57.0002 136.68 59.1002 136.98C57.7202 135.96 56.5202 134.64 55.6202 133.14C55.5602 133.08 55.5602 132.96 55.6202 132.84C55.6802 132.72 55.7402 132.66 55.8002 132.66C62.5802 131.1 67.1402 127.02 67.1402 122.46C67.0802 116.46 59.4002 111.6 49.9202 111.6Z" fill="#00283C"/>
<path d="M43.4404 124.08C44.2689 124.08 44.9404 123.409 44.9404 122.58C44.9404 121.752 44.2689 121.08 43.4404 121.08C42.612 121.08 41.9404 121.752 41.9404 122.58C41.9404 123.409 42.612 124.08 43.4404 124.08Z" fill="#5A3296"/>
<path d="M43.4406 124.38C42.4206 124.38 41.6406 123.6 41.6406 122.58C41.6406 121.56 42.4206 120.78 43.4406 120.78C44.4606 120.78 45.2406 121.56 45.2406 122.58C45.2406 123.6 44.4606 124.38 43.4406 124.38ZM43.4406 121.38C42.7806 121.38 42.2406 121.92 42.2406 122.58C42.2406 123.24 42.7806 123.78 43.4406 123.78C44.1006 123.78 44.6406 123.24 44.6406 122.58C44.6406 121.92 44.1006 121.38 43.4406 121.38Z" fill="#00283C"/>
<path d="M49.9199 124.08C50.7483 124.08 51.4199 123.409 51.4199 122.58C51.4199 121.752 50.7483 121.08 49.9199 121.08C49.0915 121.08 48.4199 121.752 48.4199 122.58C48.4199 123.409 49.0915 124.08 49.9199 124.08Z" fill="#5A3296"/>
<path d="M49.9201 124.38C48.9001 124.38 48.1201 123.6 48.1201 122.58C48.1201 121.56 48.9001 120.78 49.9201 120.78C50.9401 120.78 51.7201 121.56 51.7201 122.58C51.7201 123.6 50.8801 124.38 49.9201 124.38ZM49.9201 121.38C49.2601 121.38 48.7201 121.92 48.7201 122.58C48.7201 123.24 49.2601 123.78 49.9201 123.78C50.5801 123.78 51.1201 123.24 51.1201 122.58C51.1201 121.92 50.5801 121.38 49.9201 121.38Z" fill="#00283C"/>
<path d="M56.3398 124.08C57.1683 124.08 57.8398 123.409 57.8398 122.58C57.8398 121.752 57.1683 121.08 56.3398 121.08C55.5114 121.08 54.8398 121.752 54.8398 122.58C54.8398 123.409 55.5114 124.08 56.3398 124.08Z" fill="#5A3296"/>
<path d="M56.4006 124.38C55.3806 124.38 54.6006 123.6 54.6006 122.58C54.6006 121.56 55.3806 120.78 56.4006 120.78C57.4206 120.78 58.2006 121.56 58.2006 122.58C58.2006 123.6 57.4206 124.38 56.4006 124.38ZM56.4006 121.38C55.7406 121.38 55.2006 121.92 55.2006 122.58C55.2006 123.24 55.7406 123.78 56.4006 123.78C57.0606 123.78 57.6006 123.24 57.6006 122.58C57.6006 121.92 57.0606 121.38 56.4006 121.38Z" fill="#00283C"/>
<path d="M166.92 184.62C164.46 188.28 162.36 189 162.36 189C162.36 189 168.84 188.76 173.46 185.22C182.82 185.04 190.38 180.12 190.38 174.06C190.38 167.88 182.58 162.9 172.92 162.9C163.26 162.9 155.46 167.88 155.46 174.06C155.34 178.98 160.14 183.12 166.92 184.62Z" fill="#F5FF8C"/>
<path d="M162.3 189.36C162.12 189.36 162 189.3 161.94 189.12C161.94 188.94 162 188.82 162.18 188.76C162.18 188.76 164.16 188.04 166.38 184.86C159.54 183.18 154.98 178.92 154.98 174.18C154.98 167.88 162.96 162.72 172.74 162.72C182.52 162.72 190.5 167.88 190.5 174.18C190.5 180.36 183 185.4 173.4 185.64C168.9 189.06 162.6 189.3 162.3 189.36ZM172.8 163.26C163.32 163.26 155.64 168.12 155.64 174.12C155.64 178.68 160.2 182.76 166.98 184.32C167.1 184.32 167.16 184.38 167.22 184.5C167.28 184.56 167.28 184.68 167.22 184.8C166.26 186.24 165.12 187.56 163.68 188.64C165.78 188.34 169.98 187.56 173.22 185.04C173.28 184.98 173.34 184.98 173.4 184.98C182.7 184.8 190.02 180 190.02 174.12C190.02 168.18 182.28 163.26 172.8 163.26Z" fill="#00283C"/>
<path d="M179.28 175.74C180.109 175.74 180.78 175.069 180.78 174.24C180.78 173.412 180.109 172.74 179.28 172.74C178.452 172.74 177.78 173.412 177.78 174.24C177.78 175.069 178.452 175.74 179.28 175.74Z" fill="#5A3296"/>
<path d="M179.28 176.04C178.26 176.04 177.48 175.26 177.48 174.24C177.48 173.22 178.26 172.44 179.28 172.44C180.3 172.44 181.08 173.22 181.08 174.24C181.08 175.26 180.24 176.04 179.28 176.04ZM179.28 173.04C178.62 173.04 178.08 173.58 178.08 174.24C178.08 174.9 178.62 175.44 179.28 175.44C179.94 175.44 180.48 174.9 180.48 174.24C180.48 173.58 179.94 173.1 179.28 173.04Z" fill="#00283C"/>
<path d="M172.801 175.74C173.629 175.74 174.301 175.069 174.301 174.24C174.301 173.412 173.629 172.74 172.801 172.74C171.972 172.74 171.301 173.412 171.301 174.24C171.301 175.069 171.972 175.74 172.801 175.74Z" fill="#5A3296"/>
<path d="M172.8 176.04C171.78 176.04 171 175.26 171 174.24C171 173.22 171.78 172.44 172.8 172.44C173.82 172.44 174.6 173.22 174.6 174.24C174.6 175.26 173.82 176.04 172.8 176.04ZM172.8 173.04C172.14 173.04 171.6 173.58 171.6 174.24C171.6 174.9 172.14 175.44 172.8 175.44C173.46 175.44 174 174.9 174 174.24C174 173.58 173.46 173.1 172.8 173.04Z" fill="#00283C"/>
<path d="M166.381 175.74C167.209 175.74 167.881 175.069 167.881 174.24C167.881 173.412 167.209 172.74 166.381 172.74C165.552 172.74 164.881 173.412 164.881 174.24C164.881 175.069 165.552 175.74 166.381 175.74Z" fill="#5A3296"/>
<path d="M166.38 176.04C165.36 176.04 164.58 175.26 164.58 174.24C164.58 173.22 165.36 172.44 166.38 172.44C167.4 172.44 168.18 173.22 168.18 174.24C168.18 175.26 167.34 176.04 166.38 176.04ZM166.38 173.04C165.72 173.04 165.18 173.58 165.18 174.24C165.18 174.9 165.72 175.44 166.38 175.44C167.04 175.44 167.58 174.9 167.58 174.24C167.52 173.58 166.98 173.1 166.38 173.04Z" fill="#00283C"/>
<path d="M238.32 160.86C235.86 164.52 233.76 165.24 233.76 165.24C233.76 165.24 240.24 165 244.86 161.46C254.22 161.28 261.78 156.36 261.78 150.3C261.78 144.12 253.98 139.14 244.32 139.14C234.66 139.14 226.86 144.12 226.86 150.3C226.74 155.22 231.54 159.36 238.32 160.86Z" fill="#F5FF8C"/>
<path d="M233.7 165.6C233.58 165.6 233.46 165.48 233.4 165.36C233.4 165.24 233.46 165.06 233.58 165C233.58 165 235.56 164.28 237.78 161.1C230.94 159.42 226.38 155.16 226.38 150.42C226.38 144.12 234.36 138.96 244.14 138.96C253.92 138.96 261.9 144.12 261.9 150.42C261.9 156.6 254.4 161.64 244.8 161.88C240.3 165.36 234 165.6 233.7 165.6ZM244.2 139.56C234.72 139.56 227.04 144.42 227.04 150.42C227.04 154.98 231.6 159.06 238.38 160.62C238.5 160.62 238.56 160.68 238.62 160.8C238.68 160.92 238.62 160.98 238.62 161.1C237.66 162.6 236.52 163.86 235.08 164.94C237.18 164.7 241.38 163.86 244.62 161.34C244.68 161.28 244.74 161.28 244.8 161.28C254.1 161.1 261.42 156.3 261.42 150.42C261.42 144.42 253.68 139.56 244.2 139.56Z" fill="#00283C"/>
<path d="M250.68 151.98C251.508 151.98 252.18 151.308 252.18 150.48C252.18 149.652 251.508 148.98 250.68 148.98C249.851 148.98 249.18 149.652 249.18 150.48C249.18 151.308 249.851 151.98 250.68 151.98Z" fill="#5A3296"/>
<path d="M250.68 152.28C249.66 152.28 248.88 151.5 248.88 150.48C248.88 149.46 249.66 148.68 250.68 148.68C251.7 148.68 252.48 149.46 252.48 150.48C252.48 151.5 251.64 152.28 250.68 152.28ZM250.68 149.34C250.02 149.34 249.48 149.88 249.48 150.54C249.48 151.2 250.02 151.74 250.68 151.74C251.34 151.74 251.88 151.2 251.88 150.54C251.88 149.88 251.34 149.34 250.68 149.34Z" fill="#00283C"/>
<path d="M244.2 151.98C245.029 151.98 245.7 151.308 245.7 150.48C245.7 149.652 245.029 148.98 244.2 148.98C243.372 148.98 242.7 149.652 242.7 150.48C242.7 151.308 243.372 151.98 244.2 151.98Z" fill="#5A3296"/>
<path d="M244.199 152.28C243.179 152.28 242.399 151.5 242.399 150.48C242.399 149.46 243.179 148.68 244.199 148.68C245.219 148.68 245.999 149.46 245.999 150.48C245.999 151.5 245.219 152.28 244.199 152.28ZM244.199 149.34C243.539 149.34 242.999 149.88 242.999 150.54C242.999 151.2 243.539 151.74 244.199 151.74C244.859 151.74 245.399 151.2 245.399 150.54C245.399 149.88 244.859 149.34 244.199 149.34Z" fill="#00283C"/>
<path d="M237.78 151.98C238.609 151.98 239.28 151.308 239.28 150.48C239.28 149.652 238.609 148.98 237.78 148.98C236.952 148.98 236.28 149.652 236.28 150.48C236.28 151.308 236.952 151.98 237.78 151.98Z" fill="#5A3296"/>
<path d="M237.779 152.28C236.759 152.28 235.979 151.5 235.979 150.48C235.979 149.46 236.759 148.68 237.779 148.68C238.799 148.68 239.579 149.46 239.579 150.48C239.579 151.5 238.739 152.28 237.779 152.28ZM237.779 149.34C237.119 149.34 236.579 149.88 236.579 150.54C236.579 151.2 237.119 151.74 237.779 151.74C238.439 151.74 238.979 151.2 238.979 150.54C238.979 149.88 238.439 149.34 237.779 149.34Z" fill="#00283C"/>
</svg>
