<svg width="300" height="300" viewBox="0 0 300 300" fill="none" xmlns="http://www.w3.org/2000/svg">
<path d="M214.919 153.6C221.279 160.68 226.919 167.58 236.819 159.36C242.879 154.32 260.099 146.4 268.439 142.26C273.779 139.68 276.119 133.38 273.839 127.92C268.799 115.86 258.719 96.96 243.839 93.96C221.759 89.52 216.239 102.84 208.079 107.28C199.919 111.72 194.159 130.44 214.919 153.6Z" fill="#5A3296"/>
<path d="M209.1 119.04C177.18 134.82 177.48 132 168.18 132.18C158.88 132.36 152.46 133.74 145.98 138C145.98 138 133.2 127.68 120.12 127.92C107.04 128.16 104.82 131.46 94.14 126.36C83.46 121.26 52.02 97.8599 52.02 97.8599C52.02 97.8599 22.44 109.92 22.98 139.74C22.98 139.74 64.92 162.84 71.64 168.9C78.36 174.96 77.88 178.56 82.98 183.6C82.98 183.6 82.32 196.98 95.64 193.5C95.64 193.5 94.74 203.4 109.44 202.68C109.44 202.68 109.5 211.26 121.98 209.28C121.98 209.28 130.02 215.94 136.92 214.26C143.82 212.58 144.6 209.88 144.6 209.88C144.6 209.88 154.32 210.48 153.84 203.88C153.84 203.88 163.98 204.54 164.28 196.32C164.28 196.32 176.4 198.78 176.28 189.18C176.28 189.18 189.9 195.84 191.7 182.22C191.7 182.22 201.66 175.98 205.14 167.22C208.62 158.46 226.02 151.74 226.02 151.74C226.02 151.74 235.32 123.24 209.1 119.04Z" fill="#F5FF8C"/>
<path d="M134.52 214.8C128.64 214.8 122.76 210.3 121.86 209.58C117.3 210.3 113.88 209.7 111.66 207.78C110.22 206.58 109.32 204.84 109.14 202.98C103.86 203.22 100.02 202.08 97.6796 199.62C96.1796 198.06 95.3996 196.02 95.3396 193.86C91.4396 194.82 88.3196 194.4 86.1596 192.6C82.6796 189.78 82.6796 184.62 82.6796 183.66C80.8796 181.8 79.3196 179.7 78.0596 177.42C76.3796 174.3 74.0996 171.48 71.4596 169.08C64.8596 163.08 23.2796 140.22 22.8596 139.98C22.7396 139.92 22.6796 139.86 22.6796 139.74C22.1996 110.04 51.5996 97.68 51.8996 97.56C52.0196 97.5 52.0796 97.56 52.1996 97.62C52.4996 97.86 83.8196 121.08 94.3196 126.12C101.52 129.6 104.82 129.18 110.34 128.46C113.58 128.04 116.88 127.74 120.12 127.68C132.36 127.44 144.42 136.44 145.98 137.64C152.04 133.68 158.1 132.12 168.12 131.88C169.5 131.88 170.64 131.88 171.72 131.94C177.96 132.12 181.74 132.24 208.92 118.8C208.98 118.8 209.04 118.8 209.1 118.8C216.36 120 221.64 123.12 224.7 128.16C230.64 137.94 226.2 151.68 226.2 151.86C226.2 151.92 226.08 152.04 226.02 152.04C225.84 152.1 208.68 158.76 205.32 167.34C202.08 175.56 193.02 181.68 191.88 182.4C191.34 186.24 189.84 188.82 187.38 190.14C183.3 192.3 178.02 190.32 176.52 189.66C176.46 191.94 175.68 193.74 174.18 194.94C171.06 197.52 165.9 196.86 164.52 196.68C164.46 198.6 163.62 200.4 162.18 201.72C159.48 204.18 155.34 204.24 154.14 204.24C154.2 205.62 153.72 206.94 152.76 207.9C150.42 210.3 145.8 210.3 144.78 210.24C144.42 210.96 142.86 213.18 136.98 214.62C136.14 214.74 135.36 214.8 134.52 214.8ZM121.92 208.92C121.98 208.92 122.04 208.92 122.1 208.98C122.16 209.04 130.14 215.52 136.74 213.9C143.34 212.28 144.18 209.76 144.18 209.7C144.24 209.58 144.36 209.46 144.48 209.46C144.54 209.46 149.76 209.76 152.22 207.3C153.12 206.34 153.6 205.08 153.42 203.76C153.42 203.7 153.42 203.58 153.48 203.52C153.54 203.46 153.6 203.4 153.72 203.46C153.78 203.46 158.76 203.76 161.64 201.12C163.02 199.86 163.8 198.06 163.8 196.2C163.8 196.14 163.86 196.02 163.92 195.96C163.98 195.9 164.1 195.9 164.16 195.9C164.22 195.9 170.34 197.1 173.64 194.4C175.08 193.2 175.8 191.4 175.74 189.12C175.74 189 175.8 188.94 175.86 188.88C175.92 188.82 176.04 188.82 176.16 188.88C176.22 188.88 182.52 191.94 186.96 189.54C189.24 188.28 190.68 185.82 191.16 182.1C191.16 182.04 191.22 181.92 191.28 181.86C191.4 181.8 201.18 175.56 204.6 166.98C206.1 163.26 210.06 159.54 216.48 155.82C219.36 154.14 222.42 152.7 225.54 151.44C225.96 150 229.56 137.46 224.04 128.4C221.1 123.54 216 120.48 208.98 119.34C181.74 132.78 177.9 132.72 171.6 132.54C170.52 132.48 169.38 132.48 168 132.48C157.98 132.72 152.04 134.28 145.98 138.24C145.86 138.3 145.74 138.3 145.62 138.24C145.5 138.12 133.08 128.22 120.42 128.22H119.94C116.7 128.28 113.46 128.52 110.22 128.94C104.58 129.66 101.22 130.08 93.8396 126.54C83.6396 121.68 54.0596 99.78 51.7796 98.1C49.4996 99.12 22.6796 111.42 23.0996 139.5C26.2796 141.24 65.0996 162.72 71.6396 168.6C74.3396 171 76.6196 173.88 78.3596 177.06C79.5596 179.34 81.1196 181.44 82.9796 183.3C83.0396 183.36 83.0996 183.42 83.0396 183.54C83.0396 183.6 82.7996 189.24 86.2796 192.06C88.3796 193.8 91.4396 194.1 95.3396 193.08C95.4596 193.08 95.5196 193.08 95.5796 193.14C95.6396 193.2 95.6996 193.32 95.6996 193.38C95.6396 195.48 96.4196 197.52 97.8596 199.08C100.14 201.42 103.92 202.5 109.14 202.2C109.2 202.2 109.32 202.2 109.38 202.26C109.44 202.32 109.5 202.38 109.5 202.5C109.62 204.3 110.46 205.98 111.84 207.18C114.18 209.1 117.48 209.64 121.92 208.92Z" fill="#00283C"/>
<path d="M177.96 149.22C164.7 152.82 158.34 150.18 158.34 150.18C158.34 150.18 141.48 162.6 131.16 158.52C120.84 154.44 129.18 147.06 134.1 144.06C137.94 141.84 141.9 139.8 145.98 138" fill="#F5FF8C"/>
<path d="M135.9 159.66C134.22 159.66 132.6 159.42 131.04 158.82C127.8 157.56 126.12 155.82 125.94 153.78C125.52 149.22 132.54 144.72 133.98 143.82C137.82 141.54 141.84 139.56 145.92 137.76C146.1 137.7 146.22 137.76 146.34 137.94C146.4 138.12 146.34 138.24 146.16 138.36C142.08 140.16 138.12 142.14 134.34 144.42C130.62 146.7 126.3 150.54 126.6 153.78C126.78 155.64 128.34 157.14 131.34 158.34C141.42 162.36 158.04 150.18 158.22 150.06C158.28 150 158.4 150 158.52 150C158.58 150 164.94 152.52 177.96 148.98C178.14 148.92 178.32 149.04 178.32 149.22C178.32 149.4 178.26 149.58 178.08 149.58C165.84 152.94 159.54 151.02 158.46 150.6C156.9 151.62 145.5 159.66 135.9 159.66Z" fill="#00283C"/>
<path d="M122.399 140.58C128.519 144.12 131.339 145.98 131.339 145.98Z" fill="#F5FF8C"/>
<path d="M131.34 146.28C131.28 146.28 131.22 146.28 131.16 146.22C131.1 146.22 128.28 144.36 122.22 140.82C122.1 140.76 122.04 140.58 122.1 140.4C122.16 140.28 122.34 140.22 122.52 140.28C128.58 143.82 131.46 145.68 131.46 145.68C131.58 145.8 131.64 145.98 131.52 146.1C131.58 146.22 131.46 146.28 131.34 146.28Z" fill="#00283C"/>
<path d="M191.639 182.46C191.579 182.46 191.519 182.46 191.519 182.4L146.699 156.96C146.579 156.9 146.519 156.72 146.579 156.54C146.639 156.42 146.819 156.36 146.999 156.42L191.759 181.86C191.879 181.92 191.939 182.1 191.879 182.28C191.819 182.4 191.759 182.46 191.639 182.46Z" fill="#00283C"/>
<path d="M176.219 189.42C176.159 189.42 176.099 189.42 176.099 189.36L155.279 178.08C155.159 178.02 155.099 177.84 155.159 177.66C155.219 177.54 155.399 177.48 155.579 177.54L176.399 188.82C176.519 188.88 176.579 189.06 176.519 189.24C176.399 189.36 176.339 189.42 176.219 189.42Z" fill="#00283C"/>
<path d="M164.22 196.56C164.16 196.56 164.1 196.56 164.1 196.5L147.72 187.26C147.6 187.2 147.54 187.02 147.6 186.84C147.66 186.72 147.84 186.66 148.02 186.72L164.46 195.96C164.58 196.02 164.64 196.2 164.58 196.38C164.46 196.5 164.34 196.56 164.22 196.56Z" fill="#00283C"/>
<path d="M83.04 183.6C83.04 183.6 84.78 180.96 94.86 176.22C104.94 171.48 118.14 164.76 123.42 166.86C128.7 168.96 126.72 174.72 124.2 177C121.68 179.28 95.76 193.44 95.76 193.44" fill="#F5FF8C"/>
<path d="M95.6998 193.74C95.5798 193.74 95.4598 193.68 95.4598 193.56C95.3998 193.44 95.4598 193.26 95.5798 193.14C95.8198 193.02 121.5 178.98 123.96 176.7C125.4 175.32 126.78 172.68 126.36 170.4C126.06 168.84 125.04 167.7 123.3 167.04C118.68 165.18 107.16 170.64 97.8598 175.02L94.9798 176.4C85.1998 181.02 83.2798 183.66 83.2798 183.66C83.1598 183.78 82.9798 183.84 82.8598 183.72C82.7398 183.6 82.6798 183.42 82.7998 183.3C82.8598 183.18 84.7198 180.54 94.7398 175.8L97.6198 174.42C107.46 169.74 118.68 164.46 123.54 166.38C125.46 167.16 126.6 168.48 126.96 170.22C127.44 172.74 126 175.56 124.38 177.06C121.86 179.4 96.8998 192.96 95.8798 193.56C95.8198 193.74 95.7598 193.74 95.6998 193.74Z" fill="#00283C"/>
<path d="M109.439 202.68C109.439 202.68 127.979 193.74 133.379 188.94C138.779 184.14 134.279 174.48 124.079 177" fill="#F5FF8C"/>
<path d="M109.439 202.92C109.319 202.92 109.259 202.86 109.199 202.8C109.139 202.68 109.199 202.5 109.319 202.38C109.499 202.32 127.859 193.44 133.199 188.7C135.479 186.72 136.079 183.48 134.639 180.84C133.259 178.2 129.779 175.92 124.199 177.3C124.019 177.36 123.839 177.24 123.839 177.06C123.839 176.88 123.899 176.7 124.079 176.7C127.799 175.74 132.899 176.22 135.239 180.54C136.799 183.42 136.139 187.02 133.679 189.12C128.279 193.92 110.399 202.56 109.679 202.92C109.559 202.98 109.499 202.98 109.439 202.92Z" fill="#00283C"/>
<path d="M121.979 209.22C121.979 209.22 139.139 202.02 142.139 195.9C145.139 189.78 138.779 187.26 133.439 188.88" fill="#F5FF8C"/>
<path d="M121.98 209.52C121.86 209.52 121.74 209.46 121.68 209.34C121.62 209.22 121.68 209.04 121.86 208.98C122.04 208.92 138.96 201.78 141.84 195.84C142.86 193.74 142.8 191.94 141.72 190.68C140.16 188.88 136.74 188.28 133.56 189.3C133.38 189.36 133.2 189.24 133.2 189.06C133.14 188.88 133.26 188.7 133.44 188.7C136.92 187.62 140.52 188.28 142.26 190.26C143.16 191.28 143.94 193.14 142.5 196.08C139.56 202.2 122.94 209.22 122.22 209.52C122.04 209.52 121.98 209.52 121.98 209.52Z" fill="#00283C"/>
<path d="M144.54 209.82C144.54 209.82 152.22 194.1 142.08 195.9Z" fill="#F5FF8C"/>
<path d="M144.54 210.12C144.48 210.12 144.48 210.12 144.42 210.12C144.3 210.06 144.24 209.88 144.3 209.7C144.36 209.58 148.8 200.46 146.34 197.22C145.56 196.2 144.18 195.9 142.2 196.26C142.02 196.26 141.9 196.2 141.84 196.02C141.84 195.84 141.9 195.72 142.08 195.66C144.3 195.24 145.92 195.66 146.82 196.86C149.46 200.4 145.02 209.58 144.84 210C144.78 210.06 144.66 210.12 144.54 210.12Z" fill="#00283C"/>
<path d="M153.839 204.12C153.779 204.12 153.719 204.12 153.719 204.06L147.239 200.34C147.119 200.28 147.059 200.1 147.119 199.92C147.179 199.8 147.359 199.74 147.539 199.8L154.019 203.52C154.139 203.58 154.199 203.76 154.139 203.94C154.019 204.06 153.959 204.12 153.839 204.12Z" fill="#00283C"/>
<path d="M65.8193 107.88C54.4193 112.92 37.1993 131.76 35.2793 146.58L44.8793 152.04C44.8793 152.04 59.5193 123.42 74.6993 114.06L76.7993 115.5C76.7993 115.5 78.4793 113.64 76.0793 111.6C73.6793 109.56 69.7193 105.78 65.8193 107.88Z" fill="#F5FF8C"/>
<path d="M44.8792 152.4C44.8192 152.4 44.7592 152.4 44.7592 152.34L35.1592 146.88C35.0392 146.82 34.9792 146.7 35.0392 146.58C36.8992 132.3 53.7592 112.92 65.7592 107.64C69.5392 105.6 73.2592 108.84 75.7192 110.94L76.2592 111.42C77.0392 112.02 77.5792 112.86 77.6992 113.82C77.7592 114.54 77.5192 115.2 77.0392 115.74C76.9192 115.86 76.7992 115.86 76.6192 115.8L74.6992 114.48C59.8192 123.84 45.3592 151.98 45.1792 152.22C45.1192 152.28 45.0592 152.34 44.9992 152.34C44.9992 152.4 44.9392 152.4 44.8792 152.4ZM35.6392 146.46L44.8192 151.68C46.3792 148.68 60.2992 122.64 74.5792 113.82C74.6992 113.76 74.8192 113.76 74.9392 113.82L76.7992 115.08C77.0392 114.72 77.1592 114.24 77.1592 113.82C77.0392 113.04 76.6192 112.32 75.9592 111.84L75.4192 111.36C73.0792 109.32 69.5392 106.32 66.1192 108.12C54.1792 113.34 37.5592 132.36 35.6392 146.46Z" fill="#00283C"/>
<path d="M51.3597 143.28C58.9149 143.28 65.0397 137.155 65.0397 129.6C65.0397 122.045 58.9149 115.92 51.3597 115.92C43.8044 115.92 37.6797 122.045 37.6797 129.6C37.6797 137.155 43.8044 143.28 51.3597 143.28Z" fill="#5A3296"/>
<path d="M51.3593 140.22C57.2245 140.22 61.9793 135.465 61.9793 129.6C61.9793 123.735 57.2245 118.98 51.3593 118.98C45.494 118.98 40.7393 123.735 40.7393 129.6C40.7393 135.465 45.494 140.22 51.3593 140.22Z" fill="#F5FF8C"/>
<path d="M51.3595 140.52C45.2995 140.52 40.4395 135.6 40.4395 129.6C40.4395 123.54 45.3595 118.68 51.3595 118.68C57.4195 118.68 62.2795 123.6 62.2795 129.6C62.2795 135.66 57.3595 140.52 51.3595 140.52ZM51.3595 119.28C45.6595 119.28 41.0395 123.9 41.0395 129.6C41.0395 135.3 45.6595 139.92 51.3595 139.92C57.0595 139.92 61.6795 135.3 61.6795 129.6C61.6795 123.9 57.0595 119.28 51.3595 119.28Z" fill="#00283C"/>
<path d="M44.8799 124.14C47.8799 120.6 53.2199 120.18 56.7599 123.18C56.9399 123.3 57.1199 123.48 57.2399 123.66" fill="#F5FF8C"/>
<path d="M44.88 124.44C44.82 124.44 44.76 124.44 44.7 124.38C44.58 124.26 44.58 124.08 44.64 123.96C47.76 120.3 53.28 119.88 56.94 123C57.12 123.18 57.3 123.3 57.42 123.48C57.54 123.6 57.54 123.78 57.42 123.9C57.3 124.02 57.12 124.02 57 123.9C53.82 120.72 48.66 120.72 45.48 123.9C45.36 124.02 45.18 124.2 45.06 124.38C45.06 124.38 45 124.44 44.88 124.44Z" fill="#00283C"/>
</svg>
