<svg width="1466" height="27" viewBox="0 0 1466 27" fill="none" xmlns="http://www.w3.org/2000/svg">
<path d="M1372.08 0.529785L1430.04 7.34863L1465.84 7.34863V26.1005L0.635864 26.1005V17.5769L88.4287 7.34863L133.604 17.5769L154.06 7.34863L194.974 17.5769L232.477 17.5769L307.485 17.5769L417.439 7.34863L504.379 17.5769L564.044 7.34863L629.676 21.8387L830.832 7.34863L870.893 17.5769L1068.64 17.5769L1094.21 0.529785C1105.29 6.21217 1128.48 17.5769 1132.57 17.5769C1136.66 17.5769 1136.54 6.21217 1135.98 0.529785L1153.02 17.5769L1165.81 7.34863L1173.48 17.5769L1218.66 7.34863L1290.25 17.5769L1372.08 0.529785Z" fill="#EB6423"/>
</svg>
