<svg width="1466" height="27" viewBox="0 0 1466 27" fill="none" xmlns="http://www.w3.org/2000/svg">
<path d="M1372.08 0.439941L1430.04 7.25879L1465.84 7.25879V26.0107L0.635864 26.0107V17.4871L88.4287 7.25879L133.604 17.4871L154.06 7.25879L194.974 17.4871L232.477 17.4871L307.485 17.4871L417.439 7.25879L504.379 17.4871L564.044 7.25879L629.676 21.7489L830.832 7.25879L870.893 17.4871L1068.64 17.4871L1094.21 0.439941C1105.29 6.12232 1128.48 17.4871 1132.57 17.4871C1136.66 17.4871 1136.54 6.12232 1135.98 0.439941L1153.02 17.4871L1165.81 7.25879L1173.48 17.4871L1218.66 7.25879L1290.25 17.4871L1372.08 0.439941Z" fill="#F5FF8C"/>
</svg>
